<svg width="90" height="91" viewBox="0 0 90 91" fill="none" xmlns="http://www.w3.org/2000/svg">
<path d="M18.3363 88.5998H0.936328C0.536328 88.5998 0.236328 88.2998 0.236328 87.8998V56.9998C0.236328 56.5998 0.536328 56.2998 0.936328 56.2998H18.2363C18.6363 56.2998 18.9363 56.5998 18.9363 56.9998V87.8998C19.0363 88.2998 18.6363 88.5998 18.3363 88.5998ZM1.63633 87.1998H17.5363V57.6998H1.63633V87.1998Z" fill="#0F304D"/>
<path d="M53.1361 90.8996C51.9361 90.8996 50.7361 90.7996 49.5361 90.5996L18.1361 85.5996C17.8361 85.4996 17.5361 85.1996 17.5361 84.8996V59.9996C17.5361 59.5996 17.8361 59.2996 18.2361 59.2996L37.3361 57.7996C41.0361 57.4996 44.6361 58.4996 47.7361 60.6996L60.0361 69.2996C61.5361 70.3996 62.4361 72.2996 62.2361 74.1996C70.9361 73.2996 77.8361 67.6996 82.2361 62.9996C83.1361 61.9996 84.4361 61.4996 85.6361 61.5996C86.9361 61.6996 88.1361 62.4996 88.8361 63.5996C89.9361 65.2996 89.9361 67.5996 88.7361 69.2996C81.1361 79.9996 71.4361 86.7996 59.1361 90.0996C57.1361 90.5996 55.1361 90.8996 53.1361 90.8996ZM19.0361 84.2996L49.8361 89.1996C52.8361 89.6996 55.8361 89.4996 58.7361 88.6996C70.7361 85.4996 80.1361 78.8996 87.6361 68.4996C88.4361 67.2996 88.5361 65.6996 87.7361 64.3996C87.2361 63.5996 86.4361 63.0996 85.5361 62.9996C84.6361 62.9996 83.8361 63.2996 83.2361 63.9996C78.6361 68.8996 71.3361 74.8996 61.9361 75.6996C61.7361 76.3996 61.2361 77.0996 60.7361 77.6996C59.8361 78.5996 58.6361 79.1996 57.4361 79.1996C56.9361 79.1996 56.4361 79.0996 56.0361 78.9996C53.8361 78.1996 46.3361 75.3996 42.7361 71.8996C42.4361 71.5996 42.4361 71.1996 42.7361 70.8996C43.0361 70.5996 43.4361 70.5996 43.7361 70.8996C46.4361 73.5996 52.0361 76.0996 56.4361 77.6996C56.7361 77.7996 57.0361 77.8996 57.4361 77.8996C58.3361 77.8996 59.1361 77.4996 59.7361 76.8996C60.2361 76.3996 60.5361 75.7996 60.7361 75.0996C61.1361 73.3996 60.5361 71.6996 59.2361 70.7996L46.9361 62.1996C44.1361 60.1996 40.8361 59.2996 37.4361 59.5996L18.9361 60.9996V84.2996H19.0361Z" fill="#0F304D"/>
<path d="M60.1365 71.0997C59.7365 71.0997 59.4365 70.7997 59.4365 70.3997C59.4365 69.9997 59.7365 69.6997 60.1365 69.5997C65.8365 69.1997 70.8365 66.3997 74.0365 64.0997C74.9365 63.4997 76.0365 63.2997 77.0365 63.5997C78.0365 63.8997 78.9365 64.6997 79.3365 65.6997C79.5365 66.1997 79.6365 66.6997 79.6365 67.1997C79.6365 67.2997 79.6365 67.3997 79.6365 67.3997C79.5365 67.7997 79.1365 67.9997 78.8365 67.9997C78.4365 67.8997 78.2365 67.4997 78.2365 67.1997C78.2365 66.8997 78.1365 66.5997 78.0365 66.2997C77.7365 65.6997 77.3365 65.1997 76.7365 64.9997C76.1365 64.7997 75.5365 64.8997 75.0365 65.2997C71.4365 67.6997 66.2365 70.6997 60.1365 71.0997Z" fill="#0F304D"/>
<path d="M56.3362 68.3C55.9362 68.3 55.6362 68 55.6362 67.7C55.6362 67.3 55.8362 67 56.2362 66.9C59.4362 66.5 62.8362 65.4 66.3362 63.6C67.3362 63.1 68.4362 63.1 69.3362 63.5C70.3362 63.9 71.0362 64.8 71.2362 65.9C71.3362 66.2 71.3362 66.5 71.3362 66.8C71.3362 66.9 71.3362 67.1 71.3362 67.2C71.2362 67.6 70.9362 67.9 70.5362 67.8C70.1362 67.7 69.8362 67.4 69.9362 67V66.9C69.9362 66.7 69.9362 66.5 69.8362 66.3C69.6362 65.6 69.2362 65.1 68.7362 64.8C68.1362 64.5 67.5362 64.6 66.9362 64.9C63.4362 66.7 59.8362 67.9 56.3362 68.3C56.4362 68.3 56.3362 68.3 56.3362 68.3Z" fill="#0F304D"/>
<path d="M13.1365 88.5997H6.13652C5.73652 88.5997 5.43652 88.2997 5.43652 87.8997V84.3997C5.43652 82.0997 7.33652 80.1997 9.63652 80.1997C11.9365 80.1997 13.8365 82.0997 13.8365 84.3997V87.8997C13.8365 88.2997 13.5365 88.5997 13.1365 88.5997ZM6.83652 87.1997H12.3365V84.3997C12.3365 82.8997 11.1365 81.5997 9.53652 81.5997C7.93652 81.5997 6.73652 82.7997 6.73652 84.3997V87.1997H6.83652Z" fill="#0F304D"/>
<path d="M23.1365 36.5C13.0365 36.5 4.93652 28.3 4.93652 18.3C4.93652 8.3 13.0365 0 23.1365 0C33.2365 0 41.3365 8.2 41.3365 18.2C41.3365 28.2 33.2365 36.5 23.1365 36.5ZM23.1365 1.4C13.8365 1.4 6.33652 9 6.33652 18.2C6.33652 27.4 13.8365 35 23.1365 35C32.4365 35 39.9365 27.5 39.9365 18.2C39.9365 8.9 32.4365 1.4 23.1365 1.4Z" fill="#0F304D"/>
<path d="M23.1363 26.4002C20.5363 26.4002 18.3363 24.4002 18.3363 22.0002C18.3363 21.6002 18.6363 21.3002 19.0363 21.3002C19.4363 21.3002 19.7363 21.6002 19.7363 22.0002C19.7363 23.7002 21.2363 25.0002 23.0363 25.0002C24.8363 25.0002 26.3363 23.6002 26.3363 22.0002C26.3363 20.4002 24.8363 19.0002 23.0363 19.0002C20.4363 19.0002 18.2363 17.0002 18.2363 14.6002C18.2363 12.2002 20.3363 10.2002 23.0363 10.2002C25.7363 10.2002 27.8363 12.2002 27.8363 14.6002C27.8363 15.0002 27.5363 15.3002 27.1363 15.3002C26.7363 15.3002 26.4363 15.0002 26.4363 14.6002C26.4363 12.9002 24.9363 11.6002 23.1363 11.6002C21.3363 11.6002 19.8363 13.0002 19.8363 14.6002C19.8363 16.3002 21.3363 17.6002 23.1363 17.6002C25.7363 17.6002 27.9363 19.6002 27.9363 22.0002C27.9363 24.4002 25.7363 26.4002 23.1363 26.4002Z" fill="#0F304D"/>
<path d="M23.1365 28.3C22.7365 28.3 22.4365 28 22.4365 27.6V25.7C22.4365 25.3 22.7365 25 23.1365 25C23.5365 25 23.8365 25.3 23.8365 25.7V27.6C23.8365 28 23.5365 28.3 23.1365 28.3Z" fill="#0F304D"/>
<path d="M23.1365 11.5002C22.7365 11.5002 22.4365 11.2002 22.4365 10.8002V8.9002C22.4365 8.5002 22.7365 8.2002 23.1365 8.2002C23.5365 8.2002 23.8365 8.5002 23.8365 8.9002V10.8002C23.8365 11.2002 23.5365 11.5002 23.1365 11.5002Z" fill="#0F304D"/>
<path d="M64.6363 55.3C53.3363 55.3 44.2363 46.1 44.2363 34.9C44.2363 23.6 53.4363 14.5 64.6363 14.5C75.9363 14.5 85.0363 23.7 85.0363 34.9C85.1363 46.1 75.9363 55.3 64.6363 55.3ZM64.6363 15.9C54.1363 15.9 45.6363 24.4 45.6363 34.9C45.6363 45.4 54.1363 53.9 64.6363 53.9C75.1363 53.9 83.6363 45.4 83.6363 34.9C83.6363 24.4 75.1363 15.9 64.6363 15.9Z" fill="#0F304D"/>
<path d="M64.6363 44.0003C61.7363 44.0003 59.3363 41.8003 59.3363 39.1003C59.3363 38.7003 59.6363 38.4003 60.0363 38.4003C60.4363 38.4003 60.7363 38.7003 60.7363 39.1003C60.7363 41.0003 62.4363 42.6003 64.5363 42.6003C66.6363 42.6003 68.3363 41.0003 68.3363 39.1003C68.3363 37.2003 66.6363 35.6003 64.5363 35.6003C61.6363 35.6003 59.2363 33.4003 59.2363 30.7003C59.2363 28.0003 61.6363 25.8003 64.5363 25.8003C67.4363 25.8003 69.8363 28.0003 69.8363 30.7003C69.8363 31.1003 69.5363 31.4003 69.1363 31.4003C68.7363 31.4003 68.4363 31.1003 68.4363 30.7003C68.4363 28.8003 66.7363 27.2003 64.6363 27.2003C62.5363 27.2003 60.8363 28.8003 60.8363 30.7003C60.8363 32.6003 62.5363 34.2003 64.6363 34.2003C67.5363 34.2003 69.9363 36.4003 69.9363 39.1003C69.9363 41.8003 67.5363 44.0003 64.6363 44.0003Z" fill="#0F304D"/>
<path d="M64.6365 46.1001C64.2365 46.1001 63.9365 45.8001 63.9365 45.4001V43.3001C63.9365 42.9001 64.2365 42.6001 64.6365 42.6001C65.0365 42.6001 65.3365 42.9001 65.3365 43.3001V45.4001C65.3365 45.8001 65.0365 46.1001 64.6365 46.1001Z" fill="#0F304D"/>
<path d="M64.6365 27.2002C64.2365 27.2002 63.9365 26.9002 63.9365 26.5002V24.4002C63.9365 24.0002 64.2365 23.7002 64.6365 23.7002C65.0365 23.7002 65.3365 24.0002 65.3365 24.4002V26.5002C65.3365 26.9002 65.0365 27.2002 64.6365 27.2002Z" fill="#0F304D"/>
</svg>
