<svg width="51" height="50" viewBox="0 0 51 50" fill="none" xmlns="http://www.w3.org/2000/svg">
<g clip-path="url(#clip0)">
<path d="M25.6427 50C22.2693 50 18.9937 49.3384 15.9092 48.0337C12.9319 46.7757 10.2574 44.9725 7.96493 42.6801C5.67251 40.3877 3.86932 37.7132 2.61129 34.7358C1.30665 31.6466 0.64502 28.3711 0.64502 24.9977C0.64502 21.4752 1.36723 18.0645 2.78368 14.8635C4.15355 11.7743 6.10583 9.03457 8.58463 6.72351C13.2301 2.39027 19.2873 0 25.6427 0C29.0161 0 32.2917 0.661635 35.3762 1.96627C38.3535 3.2243 41.028 5.02749 43.3204 7.31991C45.6129 9.61234 47.4161 12.2868 48.6741 15.2642C49.9787 18.3487 50.6404 21.6243 50.6404 24.9977C50.6404 28.3711 49.9787 31.6466 48.6741 34.7312C47.4161 37.7085 45.6129 40.383 43.3204 42.6754C41.028 44.9679 38.3535 46.771 35.3762 48.0291C32.2917 49.3384 29.0161 50 25.6427 50ZM25.6427 10.4836C21.9524 10.4836 18.4346 11.8721 15.7368 14.3882C14.2971 15.7348 13.1602 17.3283 12.3634 19.1175C11.5434 20.972 11.124 22.9475 11.124 24.9977C11.124 28.8743 12.6337 32.5179 15.3734 35.2623C18.1131 38.0021 21.7614 39.5117 25.638 39.5117C29.5147 39.5117 33.1583 38.0021 35.9027 35.2623C38.6424 32.5226 40.1521 28.8743 40.1521 24.9977C40.1521 21.1211 38.6424 17.4774 35.9027 14.733C33.1676 11.9933 29.5193 10.4836 25.6427 10.4836Z" fill="#00878F"/>
<path d="M45.4032 30.2395C42.5097 30.2395 40.1614 27.8912 40.1614 24.9977C40.1614 21.121 38.6517 17.4774 35.912 14.733C33.1676 11.9933 29.5193 10.4836 25.6427 10.4836C22.7492 10.4836 20.4009 8.13531 20.4009 5.24182C20.4009 2.34834 22.7492 0 25.6427 0C29.0161 0 32.2917 0.661635 35.3762 1.96627C38.3535 3.2243 41.028 5.02749 43.3205 7.31991C45.6129 9.61234 47.4161 12.2868 48.6741 15.2642C49.9787 18.3487 50.6404 21.6243 50.6404 24.9977C50.645 27.8958 48.2967 30.2395 45.4032 30.2395Z" fill="#C5E16F"/>
</g>
<defs>
<clipPath id="clip0">
<rect width="50" height="50" fill="white" transform="translate(0.64502)"/>
</clipPath>
</defs>
</svg>
