<svg width="50" height="50" viewBox="0 0 50 50" fill="none" xmlns="http://www.w3.org/2000/svg">
<path d="M47.4702 4.22886H41.7659V2.43781C41.7659 1.09453 40.6746 0 39.3353 0C37.996 0 36.9048 1.09453 36.9048 2.43781V4.22886H13.0456V2.43781C13.0456 1.09453 11.9544 0 10.6151 0C9.27579 0 8.18452 1.09453 8.18452 2.43781V4.22886H2.52976C1.14087 4.22886 0 5.32338 0 6.71642V47.4627C0 48.8557 1.14087 50 2.52976 50H47.4702C48.8591 50 50 48.8557 50 47.4627V6.71642C50 5.32338 48.8591 4.22886 47.4702 4.22886ZM48.8591 14.8259V47.5124C48.8591 48.2587 48.2639 48.9055 47.4702 48.9055H2.52976C1.78571 48.9055 1.14087 48.3085 1.14087 47.5124V14.8259H48.8591ZM11.9048 7.16418C11.9048 7.8607 11.3095 8.45771 10.6151 8.45771C9.92063 8.45771 9.3254 7.8607 9.3254 7.16418V2.43781C9.3254 1.74129 9.92063 1.14428 10.6151 1.14428C11.3095 1.14428 11.9048 1.74129 11.9048 2.43781V7.16418ZM40.625 7.16418C40.625 7.8607 40.0298 8.45771 39.3353 8.45771C38.6409 8.45771 38.0456 7.8607 38.0456 7.16418V2.43781C38.0456 1.74129 38.6409 1.14428 39.3353 1.14428C40.0298 1.14428 40.625 1.74129 40.625 2.43781V7.16418ZM10.6151 9.55224C11.9544 9.55224 13.0456 8.45771 13.0456 7.11443V5.32338H36.9544V7.11443C36.9544 8.45771 38.0456 9.55224 39.3849 9.55224C40.7242 9.55224 41.8155 8.45771 41.8155 7.11443V5.32338H47.5198C48.2639 5.32338 48.9087 5.9204 48.9087 6.71642V13.6816H1.14087V6.71642C1.14087 5.97015 1.73611 5.32338 2.52976 5.32338H8.23413V7.11443C8.23413 8.50746 9.27579 9.55224 10.6151 9.55224Z" fill="#0F304D"/>
<path d="M17.6589 25.6718H22.2224C23.0161 25.6718 23.6113 25.025 23.6113 24.2787V19.7016C23.6113 18.9056 22.9664 18.3086 22.2224 18.3086H17.6589C16.8653 18.3086 16.27 18.9554 16.27 19.7016V24.2787C16.27 25.0748 16.9149 25.6718 17.6589 25.6718ZM17.4109 24.2787V19.7016C17.4109 19.5524 17.5101 19.4529 17.6589 19.4529H22.2224C22.3712 19.4529 22.4704 19.5524 22.4704 19.7016V24.2787C22.4704 24.428 22.3712 24.5275 22.2224 24.5275H17.6589C17.5101 24.5275 17.4109 24.428 17.4109 24.2787Z" fill="#0F304D"/>
<path d="M7.63889 25.6718H12.2024C12.996 25.6718 13.5913 25.025 13.5913 24.2787V19.7016C13.5913 18.9056 12.9464 18.3086 12.2024 18.3086H7.63889C6.84524 18.3086 6.25 18.9554 6.25 19.7016V24.2787C6.25 25.0748 6.84524 25.6718 7.63889 25.6718ZM7.39087 24.2787V19.7016C7.39087 19.5524 7.49008 19.4529 7.63889 19.4529H12.2024C12.3512 19.4529 12.4504 19.5524 12.4504 19.7016V24.2787C12.4504 24.428 12.3512 24.5275 12.2024 24.5275H7.63889C7.49008 24.5275 7.39087 24.428 7.39087 24.2787Z" fill="#0F304D"/>
<path d="M27.7282 25.6718H32.2917C33.0854 25.6718 33.6806 25.025 33.6806 24.2787V19.7016C33.6806 18.9056 33.0358 18.3086 32.2917 18.3086H27.7282C26.9346 18.3086 26.3394 18.9554 26.3394 19.7016V24.2787C26.3394 25.0748 26.9346 25.6718 27.7282 25.6718ZM27.4802 24.2787V19.7016C27.4802 19.5524 27.5794 19.4529 27.7282 19.4529H32.2917C32.4405 19.4529 32.5398 19.5524 32.5398 19.7016V24.2787C32.5398 24.428 32.4405 24.5275 32.2917 24.5275H27.7282C27.5794 24.5275 27.4802 24.428 27.4802 24.2787Z" fill="#0F304D"/>
<path d="M37.7978 25.6718H42.3613C43.155 25.6718 43.7502 25.025 43.7502 24.2787V19.7016C43.7502 18.9056 43.1054 18.3086 42.3613 18.3086H37.7978C37.0042 18.3086 36.4089 18.9554 36.4089 19.7016V24.2787C36.3593 25.0748 37.0042 25.6718 37.7978 25.6718ZM37.5002 24.2787V19.7016C37.5002 19.5524 37.5994 19.4529 37.7482 19.4529H42.3117C42.4605 19.4529 42.5597 19.5524 42.5597 19.7016V24.2787C42.5597 24.428 42.4605 24.5275 42.3117 24.5275H37.7482C37.649 24.5275 37.5002 24.428 37.5002 24.2787Z" fill="#0F304D"/>
<path d="M7.63889 35.5224H12.2024C12.996 35.5224 13.5913 34.8756 13.5913 34.1293V29.5522C13.5913 28.7562 12.9464 28.1592 12.2024 28.1592H7.63889C6.84524 28.1592 6.25 28.8059 6.25 29.5522V34.1293C6.25 34.9253 6.84524 35.5224 7.63889 35.5224ZM7.39087 34.1293V29.5522C7.39087 29.403 7.49008 29.3035 7.63889 29.3035H12.2024C12.3512 29.3035 12.4504 29.403 12.4504 29.5522V34.1293C12.4504 34.2786 12.3512 34.3781 12.2024 34.3781H7.63889C7.49008 34.3781 7.39087 34.2786 7.39087 34.1293Z" fill="#0F304D"/>
<path d="M17.6589 35.5224H22.2224C23.0161 35.5224 23.6113 34.8756 23.6113 34.1293V29.5522C23.6113 28.7562 22.9664 28.1592 22.2224 28.1592H17.6589C16.8653 28.1592 16.27 28.8059 16.27 29.5522V34.1293C16.27 34.9253 16.9149 35.5224 17.6589 35.5224ZM17.4109 34.1293V29.5522C17.4109 29.403 17.5101 29.3035 17.6589 29.3035H22.2224C22.3712 29.3035 22.4704 29.403 22.4704 29.5522V34.1293C22.4704 34.2786 22.3712 34.3781 22.2224 34.3781H17.6589C17.5101 34.3781 17.4109 34.2786 17.4109 34.1293Z" fill="#0F304D"/>
<path d="M27.7282 35.5224H32.2917C33.0854 35.5224 33.6806 34.8756 33.6806 34.1293V29.5522C33.6806 28.7562 33.0358 28.1592 32.2917 28.1592H27.7282C26.9346 28.1592 26.3394 28.8059 26.3394 29.5522V34.1293C26.3394 34.9253 26.9346 35.5224 27.7282 35.5224ZM27.4802 34.1293V29.5522C27.4802 29.403 27.5794 29.3035 27.7282 29.3035H32.2917C32.4405 29.3035 32.5398 29.403 32.5398 29.5522V34.1293C32.5398 34.2786 32.4405 34.3781 32.2917 34.3781H27.7282C27.5794 34.3781 27.4802 34.2786 27.4802 34.1293Z" fill="#0F304D"/>
<path d="M37.7978 35.5224H42.3613C43.155 35.5224 43.7502 34.8756 43.7502 34.1293V29.5522C43.7502 28.7562 43.1054 28.1592 42.3613 28.1592H37.7978C37.0042 28.1592 36.4089 28.8059 36.4089 29.5522V34.1293C36.3593 34.9253 37.0042 35.5224 37.7978 35.5224ZM37.5002 34.1293V29.5522C37.5002 29.403 37.5994 29.3035 37.7482 29.3035H42.3117C42.4605 29.3035 42.5597 29.403 42.5597 29.5522V34.1293C42.5597 34.2786 42.4605 34.3781 42.3117 34.3781H37.7482C37.649 34.3781 37.5002 34.2786 37.5002 34.1293Z" fill="#0F304D"/>
<path d="M7.63889 45.3729H12.2024C12.996 45.3729 13.5913 44.7262 13.5913 43.9799V39.4028C13.5913 38.6068 12.9464 38.0098 12.2024 38.0098H7.63889C6.84524 38.0098 6.25 38.6565 6.25 39.4028V43.9799C6.25 44.7759 6.84524 45.3729 7.63889 45.3729ZM7.39087 43.9799V39.4028C7.39087 39.2535 7.49008 39.154 7.63889 39.154H12.2024C12.3512 39.154 12.4504 39.2535 12.4504 39.4028V43.9799C12.4504 44.1292 12.3512 44.2287 12.2024 44.2287H7.63889C7.49008 44.2784 7.39087 44.1292 7.39087 43.9799Z" fill="#0F304D"/>
<path d="M17.6589 45.3729H22.2224C23.0161 45.3729 23.6113 44.7262 23.6113 43.9799V39.4028C23.6113 38.6068 22.9664 38.0098 22.2224 38.0098H17.6589C16.8653 38.0098 16.27 38.6565 16.27 39.4028V43.9799C16.27 44.7759 16.9149 45.3729 17.6589 45.3729ZM17.4109 43.9799V39.4028C17.4109 39.2535 17.5101 39.154 17.6589 39.154H22.2224C22.3712 39.154 22.4704 39.2535 22.4704 39.4028V43.9799C22.4704 44.1292 22.3712 44.2287 22.2224 44.2287H17.6589C17.5101 44.2784 17.4109 44.1292 17.4109 43.9799Z" fill="#0F304D"/>
<path d="M27.7282 45.3729H32.2917C33.0854 45.3729 33.6806 44.7262 33.6806 43.9799V39.4028C33.6806 38.6068 33.0358 38.0098 32.2917 38.0098H27.7282C26.9346 38.0098 26.3394 38.6565 26.3394 39.4028V43.9799C26.3394 44.7759 26.9346 45.3729 27.7282 45.3729ZM27.4802 43.9799V39.4028C27.4802 39.2535 27.5794 39.154 27.7282 39.154H32.2917C32.4405 39.154 32.5398 39.2535 32.5398 39.4028V43.9799C32.5398 44.1292 32.4405 44.2287 32.2917 44.2287H27.7282C27.5794 44.2784 27.4802 44.1292 27.4802 43.9799Z" fill="#0F304D"/>
<path d="M40.0796 39.7514C40.4764 39.7514 40.774 40.0997 40.774 40.4977C40.774 40.7465 40.9724 40.9952 41.2204 40.9952C41.4685 40.9952 41.6669 40.7962 41.6669 40.4977C41.6669 39.7514 41.1708 39.1047 40.4764 38.9057V38.8559C40.4764 38.6072 40.278 38.3584 40.03 38.3584C39.782 38.3584 39.5835 38.5574 39.5835 38.8559V38.9057C38.8891 39.1047 38.3931 39.7514 38.3931 40.4977C38.3931 41.443 39.1371 42.1892 40.03 42.1892C40.4268 42.1892 40.7244 42.5375 40.7244 42.9355C40.7244 43.3335 40.4268 43.6818 40.03 43.6818C39.6331 43.6818 39.3355 43.3335 39.3355 42.9355C39.3355 42.6868 39.1371 42.438 38.8891 42.438C38.6411 42.438 38.4427 42.637 38.4427 42.9355C38.4427 43.6818 38.9387 44.3285 39.6331 44.5276V44.5773C39.6331 44.8261 39.8316 45.0748 40.0796 45.0748C40.3276 45.0748 40.526 44.8758 40.526 44.5773V44.5276C41.2204 44.3285 41.7165 43.6818 41.7165 42.9355C41.7165 41.9902 40.9724 41.244 40.0796 41.244C39.6827 41.244 39.3851 40.8957 39.3851 40.4977C39.3851 40.0997 39.6827 39.7514 40.0796 39.7514Z" fill="#0F304D"/>
</svg>
