<svg width="547" height="182" viewBox="0 0 547 182" fill="none" xmlns="http://www.w3.org/2000/svg">
<path d="M229.84 155H228.18L226.56 151.16H220L218.38 155H216.72L222.34 141.76H224.22L229.84 155ZM225.98 149.78L223.28 143.32L220.58 149.78H225.98ZM235.647 153.8C236.287 153.8 236.853 153.62 237.347 153.26C237.84 152.9 238.2 152.433 238.427 151.86H240.047C239.74 152.847 239.18 153.64 238.367 154.24C237.513 154.853 236.5 155.16 235.327 155.16C233.86 155.16 232.667 154.66 231.747 153.66C230.853 152.687 230.407 151.467 230.407 150C230.407 148.533 230.853 147.313 231.747 146.34C232.667 145.34 233.86 144.84 235.327 144.84C236.5 144.84 237.513 145.147 238.367 145.76C239.18 146.36 239.74 147.153 240.047 148.14H238.427C238.2 147.567 237.84 147.1 237.347 146.74C236.853 146.38 236.287 146.2 235.647 146.2C235.007 146.2 234.46 146.3 234.007 146.5C233.567 146.7 233.193 146.973 232.887 147.32C232.233 148.04 231.907 148.933 231.907 150C231.907 151.067 232.233 151.96 232.887 152.68C233.553 153.427 234.473 153.8 235.647 153.8ZM249.705 153.38C248.892 154.567 247.699 155.16 246.125 155.16C244.685 155.16 243.512 154.66 242.605 153.66C241.725 152.673 241.285 151.453 241.285 150C241.285 148.547 241.725 147.327 242.605 146.34C243.512 145.34 244.719 144.84 246.225 144.84C247.745 144.84 248.905 145.427 249.705 146.6V145H251.205V158.96H249.705V153.38ZM246.325 146.2C245.259 146.2 244.392 146.573 243.725 147.32C243.099 148.027 242.785 148.92 242.785 150C242.785 151.08 243.099 151.973 243.725 152.68C244.392 153.427 245.259 153.8 246.325 153.8C247.405 153.8 248.259 153.427 248.885 152.68C249.485 151.973 249.785 151.08 249.785 150C249.785 148.92 249.485 148.027 248.885 147.32C248.259 146.573 247.405 146.2 246.325 146.2ZM261.02 155V153.44C260.66 153.92 260.22 154.327 259.7 154.66C259.18 154.993 258.587 155.16 257.92 155.16C257.253 155.16 256.68 155.067 256.2 154.88C255.72 154.693 255.3 154.413 254.94 154.04C254.113 153.227 253.7 152.153 253.7 150.82V145H255.2V150.78C255.2 151.7 255.46 152.433 255.98 152.98C256.5 153.527 257.173 153.8 258 153.8C258.84 153.8 259.553 153.52 260.14 152.96C260.727 152.387 261.02 151.653 261.02 150.76V145H262.52V155H261.02ZM265.128 145H266.628V155H265.128V145ZM266.688 141.36V143.32H265.068V141.36H266.688ZM274.51 144.84V146.34H274.33C273.25 146.34 272.37 146.773 271.69 147.64C271.05 148.467 270.73 149.453 270.73 150.6V155H269.23V145H270.73V147.46C271.05 146.42 271.743 145.653 272.81 145.16C273.25 144.947 273.783 144.84 274.41 144.84H274.51ZM280.33 153.8C281.677 153.8 282.644 153.24 283.23 152.12H284.87C284.524 153.027 283.97 153.76 283.21 154.32C282.464 154.88 281.497 155.16 280.31 155.16C278.804 155.16 277.577 154.66 276.63 153.66C275.71 152.687 275.25 151.467 275.25 150C275.25 148.52 275.69 147.3 276.57 146.34C277.504 145.34 278.717 144.84 280.21 144.84C281.704 144.84 282.917 145.34 283.85 146.34C284.73 147.3 285.17 148.52 285.17 150V150.6H276.79C276.897 151.52 277.264 152.28 277.89 152.88C278.53 153.493 279.344 153.8 280.33 153.8ZM280.21 146.2C279.29 146.2 278.517 146.487 277.89 147.06C277.304 147.607 276.944 148.32 276.81 149.2H283.61C283.477 148.32 283.117 147.607 282.53 147.06C281.904 146.487 281.13 146.2 280.21 146.2ZM299.061 153.4C298.261 154.573 297.068 155.16 295.481 155.16C294.041 155.16 292.868 154.66 291.961 153.66C291.081 152.673 290.641 151.453 290.641 150C290.641 148.547 291.081 147.327 291.961 146.34C292.868 145.34 294.074 144.84 295.581 144.84C297.088 144.84 298.248 145.433 299.061 146.62V145H300.561V155H299.061V153.4ZM295.681 153.8C296.761 153.8 297.614 153.427 298.241 152.68C298.841 151.973 299.141 151.08 299.141 150C299.141 148.92 298.841 148.027 298.241 147.32C297.614 146.573 296.761 146.2 295.681 146.2C294.614 146.2 293.748 146.573 293.081 147.32C292.454 148.027 292.141 148.92 292.141 150C292.141 151.08 292.454 151.973 293.081 152.68C293.748 153.427 294.614 153.8 295.681 153.8ZM309.035 147.68C308.902 146.64 308.062 146.12 306.515 146.12C304.982 146.12 304.215 146.6 304.215 147.56C304.215 147.96 304.375 148.267 304.695 148.48C305.029 148.68 305.442 148.847 305.935 148.98C306.429 149.113 306.962 149.24 307.535 149.36C308.122 149.467 308.662 149.627 309.155 149.84C309.649 150.04 310.055 150.32 310.375 150.68C310.709 151.04 310.875 151.533 310.875 152.16C310.875 153.133 310.509 153.88 309.775 154.4C309.042 154.907 308.049 155.16 306.795 155.16C305.462 155.16 304.402 154.827 303.615 154.16C302.895 153.573 302.509 152.807 302.455 151.86H304.015C304.109 152.78 304.629 153.4 305.575 153.72C305.922 153.827 306.262 153.88 306.595 153.88C306.942 153.88 307.262 153.86 307.555 153.82C307.849 153.78 308.135 153.707 308.415 153.6C309.055 153.347 309.375 152.913 309.375 152.3C309.375 151.887 309.209 151.573 308.875 151.36C308.555 151.133 308.149 150.953 307.655 150.82C307.162 150.673 306.622 150.547 306.035 150.44C305.462 150.32 304.929 150.16 304.435 149.96C303.942 149.76 303.529 149.487 303.195 149.14C302.875 148.793 302.715 148.313 302.715 147.7C302.715 146.793 303.042 146.093 303.695 145.6C304.362 145.093 305.342 144.84 306.635 144.84C307.862 144.84 308.829 145.133 309.535 145.72C310.122 146.213 310.462 146.867 310.555 147.68H309.035ZM318.684 147.68C318.551 146.64 317.711 146.12 316.164 146.12C314.631 146.12 313.864 146.6 313.864 147.56C313.864 147.96 314.024 148.267 314.344 148.48C314.677 148.68 315.091 148.847 315.584 148.98C316.077 149.113 316.611 149.24 317.184 149.36C317.771 149.467 318.311 149.627 318.804 149.84C319.297 150.04 319.704 150.32 320.024 150.68C320.357 151.04 320.524 151.533 320.524 152.16C320.524 153.133 320.157 153.88 319.424 154.4C318.691 154.907 317.697 155.16 316.444 155.16C315.111 155.16 314.051 154.827 313.264 154.16C312.544 153.573 312.157 152.807 312.104 151.86H313.664C313.757 152.78 314.277 153.4 315.224 153.72C315.571 153.827 315.911 153.88 316.244 153.88C316.591 153.88 316.911 153.86 317.204 153.82C317.497 153.78 317.784 153.707 318.064 153.6C318.704 153.347 319.024 152.913 319.024 152.3C319.024 151.887 318.857 151.573 318.524 151.36C318.204 151.133 317.797 150.953 317.304 150.82C316.811 150.673 316.271 150.547 315.684 150.44C315.111 150.32 314.577 150.16 314.084 149.96C313.591 149.76 313.177 149.487 312.844 149.14C312.524 148.793 312.364 148.313 312.364 147.7C312.364 146.793 312.691 146.093 313.344 145.6C314.011 145.093 314.991 144.84 316.284 144.84C317.511 144.84 318.477 145.133 319.184 145.72C319.771 146.213 320.111 146.867 320.204 147.68H318.684ZM326.912 153.8C328.259 153.8 329.226 153.24 329.812 152.12H331.452C331.106 153.027 330.552 153.76 329.792 154.32C329.046 154.88 328.079 155.16 326.892 155.16C325.386 155.16 324.159 154.66 323.212 153.66C322.292 152.687 321.832 151.467 321.832 150C321.832 148.52 322.272 147.3 323.152 146.34C324.086 145.34 325.299 144.84 326.792 144.84C328.286 144.84 329.499 145.34 330.432 146.34C331.312 147.3 331.752 148.52 331.752 150V150.6H323.372C323.479 151.52 323.846 152.28 324.472 152.88C325.112 153.493 325.926 153.8 326.912 153.8ZM326.792 146.2C325.872 146.2 325.099 146.487 324.472 147.06C323.886 147.607 323.526 148.32 323.392 149.2H330.192C330.059 148.32 329.699 147.607 329.112 147.06C328.486 146.487 327.712 146.2 326.792 146.2ZM334.548 155V146.32H332.508V145H334.548V141.42H336.048V145H338.348V146.32H336.048V155H334.548ZM345.871 147.68C345.738 146.64 344.898 146.12 343.351 146.12C341.818 146.12 341.051 146.6 341.051 147.56C341.051 147.96 341.211 148.267 341.531 148.48C341.865 148.68 342.278 148.847 342.771 148.98C343.265 149.113 343.798 149.24 344.371 149.36C344.958 149.467 345.498 149.627 345.991 149.84C346.485 150.04 346.891 150.32 347.211 150.68C347.545 151.04 347.711 151.533 347.711 152.16C347.711 153.133 347.345 153.88 346.611 154.4C345.878 154.907 344.885 155.16 343.631 155.16C342.298 155.16 341.238 154.827 340.451 154.16C339.731 153.573 339.345 152.807 339.291 151.86H340.851C340.945 152.78 341.465 153.4 342.411 153.72C342.758 153.827 343.098 153.88 343.431 153.88C343.778 153.88 344.098 153.86 344.391 153.82C344.685 153.78 344.971 153.707 345.251 153.6C345.891 153.347 346.211 152.913 346.211 152.3C346.211 151.887 346.045 151.573 345.711 151.36C345.391 151.133 344.985 150.953 344.491 150.82C343.998 150.673 343.458 150.547 342.871 150.44C342.298 150.32 341.765 150.16 341.271 149.96C340.778 149.76 340.365 149.487 340.031 149.14C339.711 148.793 339.551 148.313 339.551 147.7C339.551 146.793 339.878 146.093 340.531 145.6C341.198 145.093 342.178 144.84 343.471 144.84C344.698 144.84 345.665 145.133 346.371 145.72C346.958 146.213 347.298 146.867 347.391 147.68H345.871ZM206.11 177V168.32H204.07V167H206.11V163.42H207.61V167H209.91V168.32H207.61V177H206.11ZM213.054 163V168.56C213.414 168.08 213.854 167.673 214.374 167.34C214.894 167.007 215.487 166.84 216.154 166.84C216.821 166.84 217.394 166.933 217.874 167.12C218.354 167.307 218.774 167.587 219.134 167.96C219.961 168.773 220.374 169.847 220.374 171.18V177H218.874V171.22C218.874 170.3 218.614 169.567 218.094 169.02C217.574 168.473 216.901 168.2 216.074 168.2C215.234 168.2 214.521 168.48 213.934 169.04C213.347 169.613 213.054 170.347 213.054 171.24V177H211.554V163H213.054ZM230.682 175.4C229.882 176.573 228.689 177.16 227.102 177.16C225.662 177.16 224.489 176.66 223.582 175.66C222.702 174.673 222.262 173.453 222.262 172C222.262 170.547 222.702 169.327 223.582 168.34C224.489 167.34 225.695 166.84 227.202 166.84C228.709 166.84 229.869 167.433 230.682 168.62V167H232.182V177H230.682V175.4ZM227.302 175.8C228.382 175.8 229.235 175.427 229.862 174.68C230.462 173.973 230.762 173.08 230.762 172C230.762 170.92 230.462 170.027 229.862 169.32C229.235 168.573 228.382 168.2 227.302 168.2C226.235 168.2 225.369 168.573 224.702 169.32C224.075 170.027 223.762 170.92 223.762 172C223.762 173.08 224.075 173.973 224.702 174.68C225.369 175.427 226.235 175.8 227.302 175.8ZM235.857 177V168.32H233.817V167H235.857V163.42H237.357V167H239.657V168.32H237.357V177H235.857ZM249.858 164.26C249.151 164.26 248.618 164.42 248.258 164.74C247.911 165.047 247.738 165.547 247.738 166.24V167H250.058V168.32H247.738V177H246.238V168.32H244.518V167H246.238V166.12C246.238 165.027 246.564 164.207 247.218 163.66C247.871 163.113 248.778 162.84 249.938 162.84H250.058V164.26H249.858ZM251.691 167H253.191V177H251.691V167ZM253.251 163.36V165.32H251.631V163.36H253.251ZM256.872 177V168.32H254.832V167H256.872V163.42H258.372V167H260.672V168.32H258.372V177H256.872ZM270.913 166.84C272.407 166.84 273.62 167.34 274.553 168.34C275.433 169.3 275.873 170.52 275.873 172C275.873 173.48 275.433 174.7 274.553 175.66C273.62 176.66 272.407 177.16 270.913 177.16C269.42 177.16 268.207 176.66 267.273 175.66C266.393 174.7 265.953 173.48 265.953 172C265.953 170.52 266.393 169.3 267.273 168.34C268.207 167.34 269.42 166.84 270.913 166.84ZM270.913 175.8C271.993 175.8 272.847 175.427 273.473 174.68C274.073 173.973 274.373 173.08 274.373 172C274.373 170.92 274.073 170.027 273.473 169.32C272.847 168.573 271.993 168.2 270.913 168.2C269.833 168.2 268.98 168.573 268.353 169.32C267.753 170.027 267.453 170.92 267.453 172C267.453 173.08 267.753 173.973 268.353 174.68C268.98 175.427 269.833 175.8 270.913 175.8ZM285.083 177V175.44C284.723 175.92 284.283 176.327 283.763 176.66C283.243 176.993 282.649 177.16 281.983 177.16C281.316 177.16 280.743 177.067 280.263 176.88C279.783 176.693 279.363 176.413 279.003 176.04C278.176 175.227 277.763 174.153 277.763 172.82V167H279.263V172.78C279.263 173.7 279.523 174.433 280.043 174.98C280.563 175.527 281.236 175.8 282.063 175.8C282.903 175.8 283.616 175.52 284.203 174.96C284.789 174.387 285.083 173.653 285.083 172.76V167H286.583V177H285.083ZM294.471 166.84V168.34H294.291C293.211 168.34 292.331 168.773 291.651 169.64C291.011 170.467 290.691 171.453 290.691 172.6V177H289.191V167H290.691V169.46C291.011 168.42 291.704 167.653 292.771 167.16C293.211 166.947 293.744 166.84 294.371 166.84H294.471ZM304.963 175.8C305.603 175.8 306.17 175.62 306.663 175.26C307.156 174.9 307.516 174.433 307.743 173.86H309.363C309.056 174.847 308.496 175.64 307.683 176.24C306.83 176.853 305.816 177.16 304.643 177.16C303.176 177.16 301.983 176.66 301.063 175.66C300.17 174.687 299.723 173.467 299.723 172C299.723 170.533 300.17 169.313 301.063 168.34C301.983 167.34 303.176 166.84 304.643 166.84C305.816 166.84 306.83 167.147 307.683 167.76C308.496 168.36 309.056 169.153 309.363 170.14H307.743C307.516 169.567 307.156 169.1 306.663 168.74C306.17 168.38 305.603 168.2 304.963 168.2C304.323 168.2 303.776 168.3 303.323 168.5C302.883 168.7 302.51 168.973 302.203 169.32C301.55 170.04 301.223 170.933 301.223 172C301.223 173.067 301.55 173.96 302.203 174.68C302.87 175.427 303.79 175.8 304.963 175.8ZM316.502 166.84V168.34H316.322C315.242 168.34 314.362 168.773 313.682 169.64C313.042 170.467 312.722 171.453 312.722 172.6V177H311.222V167H312.722V169.46C313.042 168.42 313.735 167.653 314.802 167.16C315.242 166.947 315.775 166.84 316.402 166.84H316.502ZM318.116 167H319.616V177H318.116V167ZM319.676 163.36V165.32H318.056V163.36H319.676ZM323.298 177V168.32H321.258V167H323.298V163.42H324.798V167H327.098V168.32H324.798V177H323.298ZM333.006 175.8C334.353 175.8 335.319 175.24 335.906 174.12H337.546C337.199 175.027 336.646 175.76 335.886 176.32C335.139 176.88 334.173 177.16 332.986 177.16C331.479 177.16 330.253 176.66 329.306 175.66C328.386 174.687 327.926 173.467 327.926 172C327.926 170.52 328.366 169.3 329.246 168.34C330.179 167.34 331.393 166.84 332.886 166.84C334.379 166.84 335.593 167.34 336.526 168.34C337.406 169.3 337.846 170.52 337.846 172V172.6H329.466C329.573 173.52 329.939 174.28 330.566 174.88C331.206 175.493 332.019 175.8 333.006 175.8ZM332.886 168.2C331.966 168.2 331.193 168.487 330.566 169.06C329.979 169.607 329.619 170.32 329.486 171.2H336.286C336.153 170.32 335.793 169.607 335.206 169.06C334.579 168.487 333.806 168.2 332.886 168.2ZM344.959 166.84V168.34H344.779C343.699 168.34 342.819 168.773 342.139 169.64C341.499 170.467 341.179 171.453 341.179 172.6V177H339.679V167H341.179V169.46C341.499 168.42 342.192 167.653 343.259 167.16C343.699 166.947 344.232 166.84 344.859 166.84H344.959ZM346.573 167H348.073V177H346.573V167ZM348.133 163.36V165.32H346.513V163.36H348.133ZM358.475 175.4C357.675 176.573 356.482 177.16 354.895 177.16C353.455 177.16 352.282 176.66 351.375 175.66C350.495 174.673 350.055 173.453 350.055 172C350.055 170.547 350.495 169.327 351.375 168.34C352.282 167.34 353.488 166.84 354.995 166.84C356.502 166.84 357.662 167.433 358.475 168.62V167H359.975V177H358.475V175.4ZM355.095 175.8C356.175 175.8 357.028 175.427 357.655 174.68C358.255 173.973 358.555 173.08 358.555 172C358.555 170.92 358.255 170.027 357.655 169.32C357.028 168.573 356.175 168.2 355.095 168.2C354.028 168.2 353.162 168.573 352.495 169.32C351.868 170.027 351.555 170.92 351.555 172C351.555 173.08 351.868 173.973 352.495 174.68C353.162 175.427 354.028 175.8 355.095 175.8Z" fill="#686868"/>
<path d="M318.128 105C318.536 105 318.867 104.669 318.867 104.262V28.2C318.867 28.1838 318.859 28.1703 318.858 28.1544C318.853 28.0874 318.84 28.0229 318.818 27.9595C318.81 27.9358 318.804 27.9123 318.793 27.8899C318.758 27.8135 318.713 27.741 318.651 27.6791C318.651 27.6786 318.651 27.6781 318.65 27.6777L300.197 9.21657C300.197 9.21617 300.196 9.21594 300.196 9.21549C300.134 9.15374 300.061 9.10889 299.985 9.07329C299.963 9.06283 299.939 9.05688 299.916 9.04868C299.852 9.0265 299.788 9.01343 299.721 9.00919C299.705 9.00816 299.691 9 299.675 9H247.738C247.33 9 247 9.33065 247 9.73846V104.262C247 104.669 247.33 105 247.738 105H318.128ZM300.413 11.5219L316.346 27.4615H300.413V11.5219ZM248.477 10.4769H298.937V28.2C298.937 28.6078 299.267 28.9385 299.675 28.9385H317.39V103.523H248.477V10.4769Z" fill="#0F304D"/>
<path d="M257.734 19.7079H286.225C286.633 19.7079 286.963 19.3772 286.963 18.9694C286.963 18.5616 286.633 18.231 286.225 18.231H257.734C257.326 18.231 256.996 18.5616 256.996 18.9694C256.996 19.3772 257.326 19.7079 257.734 19.7079Z" fill="#0F304D"/>
<path d="M257.734 31.5692H291.394C291.802 31.5692 292.133 31.2386 292.133 30.8307C292.133 30.4229 291.802 30.0923 291.394 30.0923H257.734C257.326 30.0923 256.996 30.4229 256.996 30.8307C256.996 31.2386 257.326 31.5692 257.734 31.5692Z" fill="#0F304D"/>
<path d="M257.734 43.4305H306.843C307.251 43.4305 307.582 43.0999 307.582 42.6921C307.582 42.2843 307.251 41.9536 306.843 41.9536H257.734C257.326 41.9536 256.996 42.2843 256.996 42.6921C256.996 43.0999 257.326 43.4305 257.734 43.4305Z" fill="#0F304D"/>
<path d="M257.734 55.2924H297.302C297.71 55.2924 298.04 54.9617 298.04 54.5539C298.04 54.1461 297.71 53.8154 297.302 53.8154H257.734C257.326 53.8154 256.996 54.1461 256.996 54.5539C256.996 54.9617 257.326 55.2924 257.734 55.2924Z" fill="#0F304D"/>
<path d="M307.582 66.4152C307.582 66.0074 307.251 65.6768 306.843 65.6768H257.734C257.326 65.6768 256.996 66.0074 256.996 66.4152C256.996 66.823 257.326 67.1537 257.734 67.1537H306.843C307.251 67.1537 307.582 66.823 307.582 66.4152Z" fill="#0F304D"/>
<path d="M307.653 82.0215C307.517 81.6054 307.553 81.0296 307.59 80.4202C307.647 79.4892 307.712 78.4338 307.121 77.6225C306.525 76.8032 305.496 76.5389 304.587 76.306C304.001 76.1557 303.447 76.0132 303.101 75.7615C302.763 75.5153 302.461 75.0371 302.141 74.5309C301.637 73.7329 301.065 72.8282 300.089 72.5109C299.149 72.2048 298.175 72.5903 297.316 72.9288C296.764 73.1463 296.194 73.3709 295.741 73.3709C295.288 73.3709 294.718 73.1463 294.166 72.9288C293.306 72.5895 292.33 72.2052 291.393 72.5109C290.416 72.8282 289.845 73.7329 289.341 74.5309C289.021 75.0371 288.719 75.5153 288.38 75.7615C288.034 76.0132 287.48 76.1557 286.894 76.306C285.986 76.5393 284.957 76.8036 284.361 77.6228C283.77 78.4345 283.835 79.4895 283.892 80.4206C283.929 81.0299 283.964 81.6054 283.829 82.0215C283.704 82.4073 283.348 82.835 282.971 83.2882C282.364 84.0191 281.674 84.8474 281.674 85.8923C281.674 86.9369 282.364 87.7651 282.971 88.4964C283.348 88.9493 283.704 89.3773 283.829 89.7631C283.964 90.1792 283.929 90.755 283.892 91.3644C283.835 92.2951 283.77 93.3505 284.361 94.1618C284.957 94.981 285.986 95.2453 286.895 95.4786C287.481 95.629 288.035 95.7714 288.381 96.0231C288.719 96.2694 289.021 96.7475 289.341 97.2537C289.845 98.0517 290.417 98.9564 291.393 99.2737C291.634 99.3516 291.877 99.3847 292.119 99.3847C292.824 99.3847 293.527 99.1075 294.166 98.8554C294.718 98.6383 295.288 98.4133 295.741 98.4133C296.194 98.4133 296.765 98.6383 297.316 98.8558C298.176 99.1944 299.149 99.5766 300.089 99.2737C301.066 98.9564 301.637 98.0517 302.141 97.2537C302.461 96.7475 302.763 96.2694 303.101 96.0231C303.448 95.771 304.001 95.629 304.588 95.4782C305.496 95.2453 306.525 94.981 307.121 94.1618C307.712 93.3501 307.647 92.2947 307.59 91.3637C307.553 90.7543 307.517 90.1788 307.653 89.7631C307.778 89.3773 308.134 88.9493 308.51 88.4964C309.118 87.7651 309.807 86.9369 309.807 85.8923C309.807 84.8474 309.118 84.0188 308.51 83.2879C308.134 82.835 307.778 82.407 307.653 82.0215ZM307.375 87.552C306.926 88.0922 306.461 88.6511 306.248 89.307C306.026 89.9895 306.072 90.7341 306.116 91.4538C306.162 92.2031 306.205 92.9106 305.927 93.2928C305.643 93.6826 304.92 93.8683 304.221 94.0478C303.525 94.2263 302.807 94.4106 302.232 94.8288C301.666 95.2413 301.273 95.8633 300.892 96.4648C300.486 97.1088 300.102 97.7167 299.633 97.8689C299.2 98.0106 298.547 97.7535 297.858 97.4816C297.178 97.2137 296.475 96.9364 295.741 96.9364C295.007 96.9364 294.304 97.2137 293.624 97.4816C292.935 97.7531 292.284 98.0113 291.85 97.8689C291.38 97.7167 290.996 97.1084 290.59 96.4648C290.21 95.8633 289.817 95.2413 289.25 94.8288C288.675 94.4109 287.957 94.2263 287.262 94.0478C286.562 93.8683 285.839 93.6826 285.555 93.2928C285.277 92.9106 285.32 92.2035 285.366 91.4546C285.41 90.7345 285.456 89.9899 285.234 89.3066C285.021 88.6511 284.556 88.0922 284.107 87.552C283.615 86.9611 283.151 86.4029 283.151 85.8923C283.151 85.3814 283.615 84.8236 284.107 84.2326C284.556 83.6921 285.021 83.1332 285.234 82.4776C285.456 81.7947 285.41 81.0505 285.366 80.3304C285.32 79.5815 285.277 78.874 285.555 78.4918C285.839 78.102 286.562 77.9163 287.262 77.7368C287.956 77.5583 288.675 77.3737 289.249 76.9558C289.816 76.5433 290.209 75.9213 290.589 75.3198C290.996 74.6758 291.38 74.0679 291.849 73.9157C291.934 73.888 292.028 73.8757 292.128 73.8757C292.54 73.8757 293.07 74.0845 293.624 74.303C294.304 74.5709 295.007 74.8478 295.741 74.8478C296.474 74.8478 297.177 74.5709 297.857 74.303C298.547 74.0315 299.198 73.7748 299.632 73.9157C300.102 74.0679 300.486 74.6762 300.892 75.3198C301.272 75.9213 301.665 76.5433 302.232 76.9558C302.806 77.3737 303.525 77.5583 304.22 77.7364C304.92 77.916 305.643 78.1017 305.927 78.4915C306.205 78.8737 306.162 79.5811 306.116 80.3297C306.071 81.0501 306.026 81.7947 306.248 82.478C306.461 83.1332 306.925 83.6917 307.375 84.2322C307.866 84.8232 308.33 85.3814 308.33 85.8923C308.33 86.4029 307.866 86.9611 307.375 87.552Z" fill="#0F304D"/>
<path d="M295.741 77.7402C291.246 77.7402 287.589 81.3972 287.589 85.8922C287.589 90.3871 291.246 94.0441 295.741 94.0441C300.236 94.0441 303.893 90.3871 303.893 85.8922C303.893 81.3972 300.236 77.7402 295.741 77.7402ZM295.741 92.5672C292.06 92.5672 289.066 89.5729 289.066 85.8922C289.066 82.2114 292.06 79.2172 295.741 79.2172C299.422 79.2172 302.416 82.2114 302.416 85.8922C302.416 89.5729 299.422 92.5672 295.741 92.5672Z" fill="#0F304D"/>
<path d="M298.102 83.2354L294.355 86.9825L293.38 86.0075C293.092 85.719 292.624 85.719 292.336 86.0075C292.047 86.296 292.047 86.7633 292.336 87.0517L293.833 88.5488C293.977 88.6931 294.166 88.7652 294.355 88.7652C294.544 88.7652 294.733 88.6931 294.877 88.5488L299.146 84.2796C299.435 83.9912 299.435 83.5239 299.146 83.2354C298.858 82.9469 298.391 82.9469 298.102 83.2354Z" fill="#0F304D"/>
<path d="M84.1786 59.834C79.3411 59.834 75.6323 63.559 75.6323 68.4178C75.6323 71.333 77.2448 74.2483 79.6636 75.7059L83.6948 82.8321C83.6948 83.156 84.0173 83.156 84.1786 83.156C84.3398 83.156 84.6623 83.156 84.6623 82.8321L88.6936 75.8679C91.1123 74.4103 92.7248 71.495 92.7248 68.5797C92.7248 63.883 88.8548 59.834 84.1786 59.834ZM91.5961 68.5797C91.5961 71.333 90.3061 73.6005 88.0486 74.8961L87.8873 75.0581L85.4686 79.269L84.3398 81.3745L80.7923 75.0581L80.6311 74.8961C78.5348 73.6005 77.0836 71.1711 77.0836 68.5797C77.0836 64.5308 80.4698 61.1297 84.5011 61.1297C88.5323 61.1297 91.5961 64.3688 91.5961 68.5797Z" fill="#0F304D"/>
<path d="M84.1787 62.5874C80.9537 62.5874 78.3737 65.3407 78.3737 68.4179C78.3737 71.4951 81.115 74.2484 84.1787 74.2484C87.2425 74.2484 89.9837 71.4951 89.9837 68.4179C89.9837 65.1787 87.4037 62.5874 84.1787 62.5874ZM88.855 68.5799C88.855 71.1712 86.92 73.2767 84.1787 73.2767C81.5987 73.2767 79.5025 71.1712 79.5025 68.5799C79.5025 65.9885 81.5987 63.8831 84.1787 63.8831C86.7587 63.8831 88.855 65.9885 88.855 68.5799Z" fill="#0F304D"/>
<path d="M127.716 39.8647C126.104 38.569 125.136 36.4635 125.136 34.1961C125.136 30.1471 128.522 26.746 132.554 26.746C135.94 26.746 138.842 29.0134 139.649 32.2526L140.777 31.9287C139.81 28.2036 136.424 25.6123 132.554 25.6123C127.716 25.6123 124.007 29.3374 124.007 34.1961C124.007 36.4635 124.975 38.569 126.587 40.1886C127.071 39.8647 127.232 39.7027 127.716 39.7027V39.8647Z" fill="#0F304D"/>
<path d="M139.971 34.3583C139.971 37.1116 138.681 39.379 136.424 40.6747L136.262 40.8366L133.844 45.0476L132.554 47.153L129.329 41.4845C129.006 41.4845 128.361 41.4845 127.877 41.4845L131.909 48.6106C131.909 48.9346 132.231 48.9346 132.392 48.9346C132.554 48.9346 132.876 48.9346 132.876 48.6106L136.907 41.6464C139.487 40.1888 141.1 37.4355 141.1 34.5202C141.1 34.1963 141.1 33.8724 141.1 33.7104L139.971 34.0344C139.81 34.0344 139.971 34.1963 139.971 34.3583Z" fill="#0F304D"/>
<path d="M130.296 38.5686V38.4067C128.845 37.5969 127.878 36.1392 127.878 34.3577C127.878 31.7664 129.974 29.6609 132.554 29.6609C134.65 29.6609 136.424 31.1185 137.069 33.062L138.198 32.7381C137.553 30.3087 135.295 28.3652 132.554 28.3652C129.329 28.3652 126.749 31.1185 126.749 34.1957C126.749 36.4632 128.039 38.4067 129.974 39.3784L130.458 39.0545L130.296 38.5686Z" fill="#0F304D"/>
<path d="M132.554 38.8927C132.392 38.8927 132.231 38.8927 132.07 38.8927L132.231 40.0265L132.07 40.1884C132.231 40.1884 132.392 40.1884 132.392 40.1884C135.617 40.1884 138.197 37.5971 138.197 34.3579L136.907 34.6818C136.907 37.1112 134.972 38.8927 132.554 38.8927Z" fill="#0F304D"/>
<path d="M59.9914 90.7197H59.1851C58.2176 90.7197 57.5726 91.3676 57.5726 92.3393V92.9871C57.5726 93.9589 58.2176 94.6067 59.1851 94.6067H59.9914C60.9589 94.6067 61.6039 93.9589 61.6039 92.9871V92.3393C61.6039 91.5295 60.9589 90.7197 59.9914 90.7197ZM59.9914 92.9871H59.1851V92.3393H59.9914V92.9871Z" fill="#0F304D"/>
<path d="M54.8312 99.1414L53.7025 98.4936L51.2837 95.4163C50.8 94.9305 50.155 94.6065 49.3487 94.9305L48.7037 95.2544L48.22 94.7685C48.0587 94.6065 47.7362 94.4446 47.4137 94.2826V83.9173C47.4137 83.2694 47.0912 82.7836 46.6075 82.4597L45.64 81.8118C45.3175 81.6499 44.995 81.6499 44.6725 81.6499H44.0275L41.77 81.164L40.1575 80.1922C39.835 80.0303 39.6737 80.0303 39.3512 80.0303H37.4162C37.0937 80.0303 36.7712 80.1922 36.4487 80.3542L34.5137 81.8118H33.385C31.9337 81.8118 31.2887 83.4314 32.2562 84.5651L32.4175 84.7271L31.45 84.889C30.805 85.051 30.3212 85.5369 30.3212 86.1847C30.16 87.4804 30.16 87.6423 30.16 87.8043C30.16 88.4521 30.4825 88.938 31.1275 89.2619C29.6762 90.3956 29.515 90.3956 29.515 90.5576C28.7087 91.3674 28.87 92.1772 29.6762 94.6065C29.8375 95.0924 30.16 95.4163 30.6437 95.5783H30.805C30.805 95.7403 30.805 95.7403 30.805 95.7403C30.805 96.3881 31.1275 97.1979 32.095 97.3598L29.0312 98.3316C28.225 98.6555 27.7412 99.4653 27.9025 100.275C28.0637 101.085 28.87 101.571 29.6762 101.571L33.2237 101.085C33.385 101.085 33.5462 100.923 33.8687 100.923L37.4162 98.9794C37.4162 98.9794 37.5775 98.9794 37.5775 98.8175L38.3837 98.1696C38.545 98.1696 38.545 98.0077 38.7062 97.8457C38.8675 97.8457 39.0287 97.8457 39.19 97.8457C39.3512 97.8457 41.125 97.5218 41.2862 97.3598C41.6087 97.3598 42.0925 97.0359 42.415 96.874C42.415 96.874 42.415 96.712 42.5762 96.712L43.2212 97.1979C43.5437 97.5218 44.0275 97.6838 44.5112 97.5218L45.1562 97.3598L45.4787 97.5218L46.4462 97.8457L48.22 98.9794C48.7037 100.275 49.0262 100.437 49.1875 100.599C49.1875 100.599 49.3487 100.761 49.51 100.923C49.6712 101.085 49.8325 101.247 49.9937 101.409C50.155 101.733 50.155 101.895 50.4775 102.057L51.6062 103.028C51.9287 103.352 52.2512 103.514 52.735 103.514C52.8962 103.514 54.67 103.028 54.67 103.028C55.315 102.866 55.7987 102.219 55.7987 101.409V100.599C55.6375 99.9512 55.315 99.4653 54.8312 99.1414ZM54.025 101.895L52.5737 102.381L51.445 101.409C51.445 101.409 51.2837 100.761 51.1225 100.761C50.9612 100.761 50.155 99.7892 49.9937 99.6273C49.8325 99.4653 49.3487 98.1696 49.3487 98.1696L46.93 96.55L45.9625 96.3881L45.3175 96.0642L44.1887 96.2261L42.8987 95.2544L41.125 95.0924C41.125 95.0924 41.2862 96.0642 41.125 96.0642C40.9637 96.0642 39.19 96.55 39.19 96.55L40.3187 94.7685L39.835 94.1207L36.9325 96.55L37.4162 96.874L36.61 97.5218L33.0625 99.6273L29.515 100.113L32.9012 98.9794L34.5137 97.8457L34.675 97.1979L35.32 96.3881L33.7075 96.874L33.0625 95.9022H32.2562C32.2562 95.7403 32.4175 94.6065 32.4175 94.6065L31.1275 94.1207C31.1275 94.1207 30.4825 91.8532 30.6437 91.6913C30.805 91.5293 32.4175 90.2337 32.4175 90.2337L33.385 90.5576L34.9975 89.9097L34.8362 88.2902L33.8687 88.776L31.7725 87.8043L31.9337 86.5086L33.7075 86.0227V86.9945C33.7075 86.9945 34.5137 87.1565 34.675 87.1565C34.8362 87.1565 35.1587 85.8608 35.1587 85.8608C35.1587 85.8608 34.3525 85.5369 34.3525 85.3749C34.3525 85.2129 34.1912 84.2412 34.1912 84.2412L33.385 83.4314H34.9975L37.4162 81.6499H39.5125L41.2862 82.6216L44.1887 83.4314L45.1562 83.2694L46.1237 83.9173V95.5783L47.2525 95.9022L48.5425 97.1979L50.3162 96.55L52.8962 99.7892L54.025 100.599V101.895Z" fill="#0F304D"/>
<path d="M74.8263 98.8174C74.665 98.3315 74.5038 98.0076 74.02 97.8456C72.8913 97.1978 72.2463 96.8739 71.9238 96.8739C72.085 96.226 71.6013 95.5782 71.1175 95.2543L69.505 94.4445C69.1825 94.2825 68.86 94.2825 68.5375 94.2825L67.2475 93.7966C66.925 93.6347 66.6025 93.6347 66.28 93.7966L65.7963 93.1488C65.4738 92.8249 64.99 92.501 64.5063 92.501H63.8613C62.8938 92.501 62.2488 93.1488 62.2488 94.1206V94.6064C62.2488 95.4162 62.7325 96.0641 63.5388 96.226L64.6675 96.5499C64.99 96.5499 64.99 96.5499 65.1513 96.5499C65.3125 97.0358 65.7963 97.3597 66.28 97.5217C66.4413 98.0076 66.7638 98.4934 67.4088 98.6554C67.7313 98.8174 68.215 98.6554 68.5375 98.6554C68.6988 98.8174 68.86 98.8174 69.0213 98.8174C69.1825 98.8174 69.1825 98.8174 69.3438 98.8174C69.1825 98.9793 69.1825 99.1413 69.0213 99.4652C68.86 99.9511 69.0213 100.437 69.3438 100.761L69.1825 101.733C69.0213 102.38 69.3438 103.19 69.9888 103.352L70.795 103.838C71.1175 104 71.6013 104 72.085 104C72.5688 103.838 72.8913 103.514 73.0525 103.19L73.2138 102.866C73.6975 102.704 74.02 102.704 74.3425 102.38L75.1488 101.733C75.955 101.085 76.1163 99.7891 74.8263 98.8174ZM64.0225 94.6064V94.1206H64.6675L65.3125 94.9304L64.0225 94.6064ZM69.8275 97.0358C69.8275 96.8739 69.8275 96.5499 69.8275 96.388L70.4725 96.7119L69.8275 97.0358ZM73.375 101.085L72.085 101.409L71.6013 102.38L70.795 101.895L71.1175 100.275L70.6338 99.6272L71.44 99.1413L71.1175 98.1695C71.2788 98.1695 73.2138 99.3032 73.2138 99.3032V99.7891L74.1813 100.437L73.375 101.085Z" fill="#0F304D"/>
<path d="M153.839 30.6329L153.355 29.3373C153.194 28.8514 152.71 28.5275 152.226 28.3655C152.065 27.8796 151.743 27.5557 151.259 27.3938L150.13 23.9926C149.969 23.6687 149.646 23.3448 149.324 23.0209L148.195 22.373C147.872 22.2111 147.711 22.2111 147.389 22.2111C147.066 22.2111 146.744 22.373 146.421 22.535C146.099 22.373 145.776 22.373 145.454 22.535L145.131 22.8589C144.647 23.0209 144.164 23.3448 144.003 23.9926L143.357 26.0981C143.357 26.26 143.357 26.422 143.357 26.422L143.196 29.4992L142.874 30.309L142.229 30.6329C141.906 30.7949 141.584 31.2808 141.422 31.6047L140.616 31.7666C140.939 32.5764 141.1 33.0623 141.1 33.5482L142.874 33.0623L143.035 32.0905L144.164 31.4427L144.809 29.8231L144.97 26.422L145.615 24.4785L146.099 24.3165L146.421 25.1263L147.55 23.9926L148.679 24.6405L150.13 28.8514L150.775 29.0133L151.259 29.9851H151.904L152.387 31.1188L150.614 32.7384H149.969L148.84 34.196L148.679 34.8438L146.744 36.3015L146.582 37.5971L146.099 39.2167L146.582 40.3504L146.26 40.9983L147.872 42.4559C147.872 42.4559 147.711 43.4277 147.55 43.4277L145.454 44.7233L143.357 45.5331L141.1 46.9907V47.3147L144.003 45.3712L144.97 45.5331L141.745 47.8005L140.616 48.1244L141.422 49.2582V50.7158L139.81 49.2582L139.649 48.4484L138.681 48.7723L138.359 48.1244L138.842 46.019L138.197 45.857L137.391 44.5614L135.779 44.7233L137.069 46.019V48.6103L137.714 48.4484L138.359 49.2582L138.197 49.744L139.487 51.0397L138.52 53.4691L137.069 52.6593L137.391 53.4691L138.359 54.9267L138.197 56.8702L137.23 59.4616L136.908 58.9757L137.069 57.1941L135.617 56.2224L135.456 53.955L134.811 53.631L135.134 55.8985L136.101 57.518L136.262 60.2713L137.23 60.7572L137.714 61.8909L137.23 62.2148L138.036 62.7007L136.908 63.6725L137.714 64.1583H138.359L138.52 64.9681L137.391 66.1019L136.585 66.2638L137.552 67.2356L136.585 68.2073L135.617 68.6932L134.489 70.1508L134.327 71.2845L132.715 71.6084L131.909 72.7422L131.747 74.0378L128.522 77.439L127.716 79.5444L127.232 82.6216L128.522 85.8608L130.941 88.938V90.5576L132.876 93.7968V98.3316L132.554 99.1414L131.264 99.6273L129.49 97.6838H128.845L127.394 95.0924L126.587 94.9305L125.781 93.4728L126.265 92.0152C126.265 92.0152 125.298 91.6913 125.298 91.5294C125.298 91.3674 125.459 89.2619 125.459 89.2619L124.975 88.2902C124.975 88.2902 124.169 88.1282 124.007 88.1282L121.266 85.6988L119.976 86.0228L118.364 87.3184L116.751 85.6988L114.655 85.213L111.43 86.1847L110.462 84.4032L109.979 84.7271V85.5369H108.044L107.237 86.1847L106.109 86.3467L105.141 85.8608L104.819 86.9945L105.786 86.8326L106.27 86.5086L106.754 87.1565L107.721 86.3467L108.044 86.8326L106.754 88.4521C106.754 88.4521 108.689 89.7478 108.527 89.7478C108.527 89.7478 107.721 90.0717 107.56 90.0717L105.948 88.938L105.464 89.7478L104.658 89.4239L104.012 90.0717L102.884 89.4239L100.787 87.8043L100.304 88.2902V88.6141L95.7887 88.1282L94.015 88.938L93.2087 88.2902L92.5638 88.7761L93.0475 89.4239L90.79 91.5294L89.5 92.0152H89.0163L86.4362 94.4446V95.5783L85.9525 96.0642L86.1138 98.4936L86.92 100.113L86.1138 100.437L85.3075 99.7892C85.3075 99.7892 83.8563 99.7892 83.695 99.6273C83.5338 99.6273 81.76 98.8175 81.76 98.6555C81.76 98.4936 80.9538 96.2262 80.9538 96.2262L80.7925 95.0924C80.7925 95.0924 78.535 92.6631 78.535 92.5011C78.535 92.3391 77.89 90.2337 77.7287 90.0717C77.5675 89.9098 75.6325 87.8043 75.6325 87.8043H72.8913L71.44 90.0717L67.4087 87.3184C67.4087 87.3184 67.2475 85.3749 67.2475 85.213C67.0863 85.051 63.2163 80.3542 63.2163 80.3542L59.3462 79.8683L58.8625 81.326C58.8625 81.326 51.445 80.1922 51.1225 80.0303C50.9613 79.8683 42.7375 74.8476 42.7375 74.8476V74.0378L37.255 73.5519C37.255 73.5519 36.9325 71.1226 36.7712 70.9606C36.61 70.7987 35.32 69.0171 35.32 69.0171L34.675 69.1791V68.2073L33.5463 67.8834L32.4175 66.2638C32.4175 66.2638 29.8375 65.454 29.8375 65.2921C29.8375 65.1301 30.16 63.3486 30.16 63.3486C30.16 63.1866 28.225 58.6518 28.225 58.6518L29.1925 57.518L28.225 56.2224L28.3862 54.4408L28.87 54.1169L28.7087 53.3071C28.7087 53.4691 28.225 53.631 28.225 53.631C28.0637 53.4691 27.7413 52.6593 27.7413 52.6593V51.3636C27.7413 51.3636 26.935 50.2299 26.935 49.906C26.7738 49.5821 26.935 47.9625 26.935 47.9625L27.4187 47.3147L26.6125 44.5614L27.7413 42.7798L28.225 40.0265V37.1113L30.6437 33.0623L32.4175 27.7177C32.4175 27.5557 33.0625 24.4785 33.0625 24.4785C33.0625 24.3165 33.2237 20.1056 33.2237 20.1056L36.61 22.535V23.6687L36.1263 24.4785L36.61 25.1263L37.4162 23.0209V19.6197C50.3162 23.8307 73.2137 28.6894 91.2737 27.3938L91.7575 26.26L92.4025 26.584L92.5638 28.2035L94.66 28.8514L95.305 28.3655L96.4337 28.5275L97.24 29.4992L97.885 29.3373L98.8525 30.147H99.4975L100.304 29.6612L100.787 29.9851H102.077L102.4 30.309H103.206L101.755 30.9568L97.885 34.5199H98.8525L100.626 33.5482L100.787 34.0341L100.626 34.5199L101.916 34.6819L104.658 33.0623L106.592 31.4427L107.076 31.6047L105.464 33.5482V34.0341L106.431 33.3862L107.882 34.5199L109.495 34.6819L110.301 34.196L111.107 34.5199L111.43 35.0058L112.881 35.1678L113.204 35.9776H114.332L114.977 36.6254L116.267 36.9493L116.912 37.9211L116.59 38.245L117.235 39.3787L116.912 40.3504L115.945 41.6461V42.6179L116.429 42.9418L117.719 41.1602L118.364 41.4841L119.17 43.9135V45.5331L118.364 46.6668L117.88 48.7723L118.847 48.9342L120.137 49.744L120.944 48.9342H121.589L123.04 47.6386L124.814 46.6668L127.232 43.9135L126.587 42.2939L127.555 41.4841C127.555 41.4841 127.716 41.4841 127.877 41.4841C127.394 41.1602 126.91 40.6744 126.426 40.3504C126.265 40.5124 125.942 40.6744 125.62 40.9983C124.975 41.4841 124.814 42.2939 125.136 42.9418L125.298 43.4277L123.846 45.2092C123.362 45.3712 122.556 45.857 122.395 46.019C122.234 46.1809 122.234 46.1809 120.944 47.1527C120.621 47.1527 120.137 47.1527 119.815 47.4766V47.3147L120.46 46.3429C120.621 46.019 120.783 45.6951 120.783 45.3712V43.7516C120.783 43.5896 120.782 43.4277 120.621 43.1037L119.976 40.6744C119.815 40.1885 119.492 39.8646 119.009 39.7026L118.525 39.5406C118.686 38.8928 118.525 38.7309 118.202 38.245C118.364 37.9211 118.202 37.4352 118.041 37.1113L117.396 36.1395C117.235 35.8156 116.912 35.4917 116.429 35.4917L115.461 35.1678L115.3 34.8438C114.978 34.5199 114.655 34.358 114.171 34.358C114.01 33.8721 113.526 33.5482 112.881 33.3862H112.075C111.914 33.0623 111.591 32.9003 111.43 32.9003L110.624 32.5764C110.462 32.4145 110.14 32.4145 109.979 32.4145C109.656 32.4145 109.334 32.5764 109.011 32.7384L108.85 32.9003H108.366L108.205 32.5764C109.172 31.4427 108.527 30.147 107.237 29.8231L106.754 29.6612C106.27 29.4992 105.786 29.6612 105.464 29.9851L104.658 30.6329C105.141 29.4992 104.335 28.3655 103.206 28.3655H103.045C102.723 28.2035 102.4 28.0416 102.077 28.0416H101.11C100.787 27.8796 100.626 27.7177 100.142 27.7177C99.82 27.7177 99.4975 27.8796 99.175 28.0416L98.8525 27.8796C98.6912 27.8796 98.2075 27.7177 97.7237 27.7177C97.4012 27.3938 97.0788 27.0698 96.595 27.0698L95.4662 26.9079C95.1437 26.9079 94.66 26.9079 94.3375 27.0698L93.8538 26.9079L93.6925 26.26C93.6925 25.7742 93.2087 25.2883 92.725 24.9644L92.08 24.6405C91.7575 24.4785 91.2738 24.4785 90.79 24.6405C90.145 24.8024 89.9837 25.2883 89.8225 25.7742C72.8913 26.9079 50.3162 22.2111 37.9 18.1621C36.9325 17.8382 35.8037 18.3241 35.8037 19.9437L34.1912 18.8099C33.0625 18.0002 31.6112 18.648 31.6112 19.9437C31.45 22.8589 31.45 23.8307 31.45 24.4785C31.45 24.8024 31.1275 26.0981 30.9662 27.2318L29.3537 32.4145L27.0962 36.3015C26.935 36.4634 26.935 36.7873 26.935 37.1113V39.8646L26.29 42.2939L25.3225 43.7516C25 44.0755 25 44.5614 25 45.0472L25.4838 46.9907C25.3225 47.3147 25.1612 47.4766 25.1612 47.8005C25 49.744 25.1612 50.068 25.1612 50.2299C25.1612 50.3919 25.3225 50.7158 25.9675 51.6875V52.4973C25.9675 52.6593 25.9675 52.9832 26.1287 53.1452C26.4512 53.631 26.6125 53.955 26.7737 54.2789L26.6125 55.8985C26.6125 56.3843 26.7737 56.8702 27.2575 57.3561C26.935 57.842 26.935 58.3278 27.0962 58.8137C27.7412 60.2713 28.5475 62.3768 28.87 63.1866C28.87 63.5105 28.7087 63.8344 28.7087 63.9964C28.5475 64.6442 28.5475 64.8062 28.5475 64.9681C28.5475 66.1019 29.1925 66.4258 31.7725 67.3975L32.5787 68.6932C32.74 69.0171 33.0625 69.1791 33.385 69.341C33.5462 70.1508 34.1912 70.6367 34.8362 70.6367C35.1587 71.1226 35.32 71.4465 35.4812 71.6084C35.4812 72.0943 35.6425 72.9041 35.8037 73.7139C35.965 74.5237 36.4487 75.0096 37.255 75.1715L41.4475 75.6574C41.6087 75.9813 41.77 76.3052 42.0925 76.4672C43.3825 77.277 50.3162 81.4879 50.4775 81.6499C50.8 81.8118 50.9612 81.9738 58.7012 83.1075C59.5075 83.2695 60.3137 82.7836 60.475 81.9738L62.2487 82.1357C63.7 83.7553 65.1512 85.5369 65.635 86.1847C65.635 86.5086 65.7962 87.1565 65.7962 87.8043C65.7962 88.2902 66.1188 88.7761 66.4412 89.1L70.4725 91.8533C71.2788 92.3391 72.2463 92.1772 72.73 91.3674L73.6975 89.9098H74.8262C75.4712 90.5576 75.955 91.2054 76.2775 91.3674C76.4387 91.8533 76.7612 92.825 76.9225 93.1489C76.9225 93.6348 77.245 93.9587 79.18 96.2262C79.18 96.5501 79.18 97.0359 79.3413 97.1979C79.6637 98.1697 80.1475 99.3034 80.1475 99.4653C80.47 100.923 83.2113 101.733 83.3725 101.733C83.5337 101.733 83.695 101.733 84.8237 101.895L85.1462 102.219C85.63 102.543 86.1137 102.704 86.7587 102.543L87.565 102.219C88.3712 101.895 88.855 100.923 88.5325 99.9512L87.8875 98.4936L87.7262 97.0359C88.21 96.5501 88.0487 96.0642 88.21 95.4164L89.8225 93.9587C89.9837 93.9587 90.145 93.9587 90.3063 93.9587L91.2737 93.6348C91.435 93.6348 91.7575 93.4729 91.9187 93.3109L94.1762 91.2054C94.1762 91.2054 94.4987 91.0435 94.66 91.0435L96.1112 90.3956L100.304 90.7196C100.626 90.7196 100.949 90.7196 101.271 90.5576L102.077 91.2054L102.239 91.3674L103.367 92.0152C104.012 92.3391 104.658 92.1772 105.141 91.8533C105.625 92.0152 106.109 92.0152 106.592 91.6913L106.754 91.8533C107.399 92.5011 108.205 92.3391 109.173 92.0152H109.334C110.462 91.6913 111.107 90.0717 109.334 88.7761C109.495 88.4521 109.656 88.2902 109.817 87.9663H110.624C110.946 88.2902 111.591 88.2902 111.914 88.1282L114.816 87.3184L116.106 87.6423L117.396 88.938C118.041 89.5858 118.847 89.5858 119.492 88.938L120.783 87.8043C123.04 89.9098 123.04 89.9098 123.524 90.0717C123.524 90.0717 123.685 90.0717 123.846 90.0717C123.362 90.8815 123.362 91.0435 123.362 91.0435C123.362 91.6913 123.685 92.0152 124.007 92.3391C123.846 92.825 123.846 93.3109 124.169 93.7968L124.975 95.2544C125.298 95.7403 125.62 95.9022 126.104 96.0642L127.232 98.1697C127.555 98.6555 128.039 98.9794 128.522 98.9794L129.812 100.437C130.296 100.923 130.941 101.085 131.586 100.923L132.876 100.437C133.36 100.275 133.682 99.9512 133.844 99.4653L134.166 98.6555C134.327 98.4936 134.327 98.1697 134.327 98.0077V93.4728C134.327 93.1489 134.327 92.987 134.166 92.6631L132.554 89.7478V88.4521C132.554 88.1282 132.392 87.8043 132.231 87.4804L129.974 84.5651L129.006 81.9738L129.49 79.5444L130.135 77.9248L133.199 74.6857C133.36 74.3617 133.521 74.1998 133.683 73.7139L133.844 72.7422L134.005 72.4182L134.972 72.2563C135.617 72.0943 136.101 71.6084 136.262 70.9606C136.262 70.6367 136.424 70.3128 136.424 70.1508C136.585 69.9889 136.907 69.6649 137.069 69.341L137.714 69.0171C137.875 69.0171 138.036 68.8551 138.036 68.6932L139.004 67.7214C139.487 67.2356 139.649 66.5877 139.326 66.1019L139.81 65.616C140.132 65.2921 140.455 64.6442 140.294 64.1583L140.132 63.3486C140.132 63.0246 139.971 62.8627 139.81 62.7007C139.971 62.2148 139.81 61.567 139.487 61.2431C139.487 60.9192 139.004 60.1094 139.004 59.7855L139.971 57.1941C139.971 57.0322 140.132 56.8702 140.132 56.7083L140.294 54.7648C140.294 54.4408 140.294 54.2789 140.132 54.1169L140.294 53.955L140.939 52.3354C141.423 52.4973 141.906 52.6593 142.229 52.3354C142.874 52.1734 143.196 51.5256 143.196 50.8777V49.4201C143.196 49.2582 143.196 49.0962 143.196 48.9342L145.938 46.9907C146.421 46.6668 146.582 46.1809 146.582 45.5331C147.066 45.2092 148.034 44.5614 148.356 44.5614C149.001 44.2374 149.162 43.7516 149.485 42.4559C149.646 41.8081 149.485 41.3222 149.001 40.8363C148.679 40.6744 148.517 40.3504 148.356 40.1885C148.356 39.8646 148.356 39.5406 148.195 39.3787L148.034 38.8928L148.356 37.9211V37.7591L148.517 37.1113C149.001 36.7873 149.485 36.3015 149.807 36.1395C150.291 35.8156 150.452 35.3297 150.614 34.8438L151.097 34.358C151.42 34.358 151.743 34.196 152.065 34.0341L153.839 32.4145C154 31.9286 154.161 31.1188 153.839 30.6329Z" fill="#0F304D"/>
<path d="M110.946 36.4632L109.334 36.9491L108.527 37.1111L107.076 40.1883V40.8361L108.85 38.2448L108.689 39.5404L107.721 43.9133L108.044 46.6666L108.85 49.4199L109.334 49.7438C109.334 49.7438 111.591 48.2862 111.43 48.1242C111.43 48.1242 111.107 45.047 111.107 44.8851C111.107 44.8851 110.301 42.4557 110.301 42.2937C110.301 42.1318 110.946 39.0546 110.946 39.0546L111.914 38.5687L112.72 36.3013L111.914 36.6252C111.752 36.7871 110.946 36.4632 110.946 36.4632Z" fill="#0F304D"/>
<path d="M139.81 33.8722L141.1 33.5483C141.1 33.0624 140.939 32.4146 140.778 31.9287L139.649 32.2526C139.81 32.9005 139.81 33.3863 139.81 33.8722Z" fill="#0F304D"/>
<path d="M129.329 41.484L129.006 40.8362L128.845 40.6742C128.523 40.5122 128.2 40.1883 127.878 40.0264H127.716C127.394 40.0264 127.233 40.0264 126.588 40.5122C127.071 40.9981 127.555 41.322 128.039 41.646C128.361 41.484 129.006 41.484 129.329 41.484Z" fill="#0F304D"/>
<path d="M138.197 32.7383L137.069 33.0622C137.23 33.3861 137.23 33.872 137.23 34.3579C137.23 34.5198 137.23 34.6818 137.23 34.8437L138.52 34.5198C138.359 33.71 138.359 33.2242 138.197 32.7383Z" fill="#0F304D"/>
<path d="M132.07 38.8931C131.425 38.8931 130.941 38.7311 130.296 38.4072V38.5692L130.458 39.217L129.974 39.5409C130.619 39.8649 131.425 40.0268 132.231 40.1888L132.393 40.0268L132.07 38.8931Z" fill="#0F304D"/>
<path d="M416.188 141.76C416.975 141.76 417.735 141.913 418.468 142.22C419.202 142.513 419.848 142.947 420.408 143.52C421.648 144.787 422.268 146.407 422.268 148.38C422.268 150.353 421.648 151.973 420.408 153.24C419.848 153.813 419.202 154.253 418.468 154.56C417.735 154.853 416.975 155 416.188 155H410.608V141.76H416.188ZM416.128 153.58C417.515 153.58 418.642 153.067 419.508 152.04C420.348 151.053 420.768 149.833 420.768 148.38C420.768 146.927 420.348 145.707 419.508 144.72C418.642 143.693 417.515 143.18 416.128 143.18H412.108V153.58H416.128ZM424.37 145H425.87V155H424.37V145ZM425.93 141.36V143.32H424.31V141.36H425.93ZM434.352 147.68C434.219 146.64 433.379 146.12 431.832 146.12C430.299 146.12 429.532 146.6 429.532 147.56C429.532 147.96 429.692 148.267 430.012 148.48C430.345 148.68 430.759 148.847 431.252 148.98C431.745 149.113 432.279 149.24 432.852 149.36C433.439 149.467 433.979 149.627 434.472 149.84C434.965 150.04 435.372 150.32 435.692 150.68C436.025 151.04 436.192 151.533 436.192 152.16C436.192 153.133 435.825 153.88 435.092 154.4C434.359 154.907 433.365 155.16 432.112 155.16C430.779 155.16 429.719 154.827 428.932 154.16C428.212 153.573 427.825 152.807 427.772 151.86H429.332C429.425 152.78 429.945 153.4 430.892 153.72C431.239 153.827 431.579 153.88 431.912 153.88C432.259 153.88 432.579 153.86 432.872 153.82C433.165 153.78 433.452 153.707 433.732 153.6C434.372 153.347 434.692 152.913 434.692 152.3C434.692 151.887 434.525 151.573 434.192 151.36C433.872 151.133 433.465 150.953 432.972 150.82C432.479 150.673 431.939 150.547 431.352 150.44C430.779 150.32 430.245 150.16 429.752 149.96C429.259 149.76 428.845 149.487 428.512 149.14C428.192 148.793 428.032 148.313 428.032 147.7C428.032 146.793 428.359 146.093 429.012 145.6C429.679 145.093 430.659 144.84 431.952 144.84C433.179 144.84 434.145 145.133 434.852 145.72C435.439 146.213 435.779 146.867 435.872 147.68H434.352ZM439.2 155V146.32H437.16V145H439.2V141.42H440.7V145H443V146.32H440.7V155H439.2ZM449.924 144.84V146.34H449.744C448.664 146.34 447.784 146.773 447.104 147.64C446.464 148.467 446.144 149.453 446.144 150.6V155H444.644V145H446.144V147.46C446.464 146.42 447.157 145.653 448.224 145.16C448.664 144.947 449.197 144.84 449.824 144.84H449.924ZM451.538 145H453.038V155H451.538V145ZM453.098 141.36V143.32H451.478V141.36H453.098ZM457.14 146.62C457.953 145.433 459.147 144.84 460.72 144.84C462.16 144.84 463.327 145.34 464.22 146.34C465.113 147.327 465.56 148.547 465.56 150C465.56 151.453 465.113 152.673 464.22 153.66C463.327 154.66 462.12 155.16 460.6 155.16C459.093 155.16 457.94 154.573 457.14 153.4V155H455.64V141H457.14V146.62ZM460.52 153.8C461.587 153.8 462.453 153.427 463.12 152.68C463.747 151.973 464.06 151.08 464.06 150C464.06 148.92 463.747 148.027 463.12 147.32C462.453 146.573 461.587 146.2 460.52 146.2C459.44 146.2 458.587 146.573 457.96 147.32C457.36 148.027 457.06 148.92 457.06 150C457.06 151.08 457.36 151.973 457.96 152.68C458.587 153.427 459.44 153.8 460.52 153.8ZM474.735 155V153.44C474.375 153.92 473.935 154.327 473.415 154.66C472.895 154.993 472.302 155.16 471.635 155.16C470.968 155.16 470.395 155.067 469.915 154.88C469.435 154.693 469.015 154.413 468.655 154.04C467.828 153.227 467.415 152.153 467.415 150.82V145H468.915V150.78C468.915 151.7 469.175 152.433 469.695 152.98C470.215 153.527 470.888 153.8 471.715 153.8C472.555 153.8 473.268 153.52 473.855 152.96C474.442 152.387 474.735 151.653 474.735 150.76V145H476.235V155H474.735ZM479.923 155V146.32H477.883V145H479.923V141.42H481.423V145H483.723V146.32H481.423V155H479.923ZM489.631 153.8C490.978 153.8 491.944 153.24 492.531 152.12H494.171C493.824 153.027 493.271 153.76 492.511 154.32C491.764 154.88 490.798 155.16 489.611 155.16C488.104 155.16 486.878 154.66 485.931 153.66C485.011 152.687 484.551 151.467 484.551 150C484.551 148.52 484.991 147.3 485.871 146.34C486.804 145.34 488.018 144.84 489.511 144.84C491.004 144.84 492.218 145.34 493.151 146.34C494.031 147.3 494.471 148.52 494.471 150V150.6H486.091C486.198 151.52 486.564 152.28 487.191 152.88C487.831 153.493 488.644 153.8 489.631 153.8ZM489.511 146.2C488.591 146.2 487.818 146.487 487.191 147.06C486.604 147.607 486.244 148.32 486.111 149.2H492.911C492.778 148.32 492.418 147.607 491.831 147.06C491.204 146.487 490.431 146.2 489.511 146.2ZM505.182 153.8C505.822 153.8 506.388 153.62 506.882 153.26C507.375 152.9 507.735 152.433 507.962 151.86H509.582C509.275 152.847 508.715 153.64 507.902 154.24C507.048 154.853 506.035 155.16 504.862 155.16C503.395 155.16 502.202 154.66 501.282 153.66C500.388 152.687 499.942 151.467 499.942 150C499.942 148.533 500.388 147.313 501.282 146.34C502.202 145.34 503.395 144.84 504.862 144.84C506.035 144.84 507.048 145.147 507.902 145.76C508.715 146.36 509.275 147.153 509.582 148.14H507.962C507.735 147.567 507.375 147.1 506.882 146.74C506.388 146.38 505.822 146.2 505.182 146.2C504.542 146.2 503.995 146.3 503.542 146.5C503.102 146.7 502.728 146.973 502.422 147.32C501.768 148.04 501.442 148.933 501.442 150C501.442 151.067 501.768 151.96 502.422 152.68C503.088 153.427 504.008 153.8 505.182 153.8ZM519.241 153.4C518.441 154.573 517.247 155.16 515.661 155.16C514.221 155.16 513.047 154.66 512.141 153.66C511.261 152.673 510.821 151.453 510.821 150C510.821 148.547 511.261 147.327 512.141 146.34C513.047 145.34 514.254 144.84 515.761 144.84C517.267 144.84 518.427 145.433 519.241 146.62V145H520.741V155H519.241V153.4ZM515.861 153.8C516.941 153.8 517.794 153.427 518.421 152.68C519.021 151.973 519.321 151.08 519.321 150C519.321 148.92 519.021 148.027 518.421 147.32C517.794 146.573 516.941 146.2 515.861 146.2C514.794 146.2 513.927 146.573 513.261 147.32C512.634 148.027 512.321 148.92 512.321 150C512.321 151.08 512.634 151.973 513.261 152.68C513.927 153.427 514.794 153.8 515.861 153.8ZM529.215 147.68C529.082 146.64 528.242 146.12 526.695 146.12C525.162 146.12 524.395 146.6 524.395 147.56C524.395 147.96 524.555 148.267 524.875 148.48C525.208 148.68 525.622 148.847 526.115 148.98C526.608 149.113 527.142 149.24 527.715 149.36C528.302 149.467 528.842 149.627 529.335 149.84C529.828 150.04 530.235 150.32 530.555 150.68C530.888 151.04 531.055 151.533 531.055 152.16C531.055 153.133 530.688 153.88 529.955 154.4C529.222 154.907 528.228 155.16 526.975 155.16C525.642 155.16 524.582 154.827 523.795 154.16C523.075 153.573 522.688 152.807 522.635 151.86H524.195C524.288 152.78 524.808 153.4 525.755 153.72C526.102 153.827 526.442 153.88 526.775 153.88C527.122 153.88 527.442 153.86 527.735 153.82C528.028 153.78 528.315 153.707 528.595 153.6C529.235 153.347 529.555 152.913 529.555 152.3C529.555 151.887 529.388 151.573 529.055 151.36C528.735 151.133 528.328 150.953 527.835 150.82C527.342 150.673 526.802 150.547 526.215 150.44C525.642 150.32 525.108 150.16 524.615 149.96C524.122 149.76 523.708 149.487 523.375 149.14C523.055 148.793 522.895 148.313 522.895 147.7C522.895 146.793 523.222 146.093 523.875 145.6C524.542 145.093 525.522 144.84 526.815 144.84C528.042 144.84 529.008 145.133 529.715 145.72C530.302 146.213 530.642 146.867 530.735 147.68H529.215ZM534.484 141V146.56C534.844 146.08 535.284 145.673 535.804 145.34C536.324 145.007 536.917 144.84 537.584 144.84C538.25 144.84 538.824 144.933 539.304 145.12C539.784 145.307 540.204 145.587 540.564 145.96C541.39 146.773 541.804 147.847 541.804 149.18V155H540.304V149.22C540.304 148.3 540.044 147.567 539.524 147.02C539.004 146.473 538.33 146.2 537.504 146.2C536.664 146.2 535.95 146.48 535.364 147.04C534.777 147.613 534.484 148.347 534.484 149.24V155H532.984V141H534.484ZM427.55 177V168.32H425.51V167H427.55V163.42H429.05V167H431.35V168.32H429.05V177H427.55ZM437.138 166.84C438.631 166.84 439.845 167.34 440.778 168.34C441.658 169.3 442.098 170.52 442.098 172C442.098 173.48 441.658 174.7 440.778 175.66C439.845 176.66 438.631 177.16 437.138 177.16C435.645 177.16 434.431 176.66 433.498 175.66C432.618 174.7 432.178 173.48 432.178 172C432.178 170.52 432.618 169.3 433.498 168.34C434.431 167.34 435.645 166.84 437.138 166.84ZM437.138 175.8C438.218 175.8 439.071 175.427 439.698 174.68C440.298 173.973 440.598 173.08 440.598 172C440.598 170.92 440.298 170.027 439.698 169.32C439.071 168.573 438.218 168.2 437.138 168.2C436.058 168.2 435.205 168.573 434.578 169.32C433.978 170.027 433.678 170.92 433.678 172C433.678 173.08 433.978 173.973 434.578 174.68C435.205 175.427 436.058 175.8 437.138 175.8ZM448.345 167H449.845V177H448.345V167ZM449.905 163.36V165.32H448.285V163.36H449.905ZM453.946 167V168.56C454.306 168.08 454.746 167.673 455.266 167.34C455.786 167.007 456.38 166.84 457.046 166.84C457.713 166.84 458.286 166.933 458.766 167.12C459.246 167.307 459.666 167.587 460.026 167.96C460.853 168.773 461.266 169.847 461.266 171.18V177H459.766V171.22C459.766 170.3 459.506 169.567 458.986 169.02C458.466 168.473 457.793 168.2 456.966 168.2C456.126 168.2 455.413 168.48 454.826 169.04C454.24 169.613 453.946 170.347 453.946 171.24V177H452.446V167H453.946ZM471.901 167L468.001 177H466.241L462.321 167H463.961L467.121 175.4L470.261 167H471.901ZM477.649 175.8C478.995 175.8 479.962 175.24 480.549 174.12H482.189C481.842 175.027 481.289 175.76 480.529 176.32C479.782 176.88 478.815 177.16 477.629 177.16C476.122 177.16 474.895 176.66 473.949 175.66C473.029 174.687 472.569 173.467 472.569 172C472.569 170.52 473.009 169.3 473.889 168.34C474.822 167.34 476.035 166.84 477.529 166.84C479.022 166.84 480.235 167.34 481.169 168.34C482.049 169.3 482.489 170.52 482.489 172V172.6H474.109C474.215 173.52 474.582 174.28 475.209 174.88C475.849 175.493 476.662 175.8 477.649 175.8ZM477.529 168.2C476.609 168.2 475.835 168.487 475.209 169.06C474.622 169.607 474.262 170.32 474.129 171.2H480.929C480.795 170.32 480.435 169.607 479.849 169.06C479.222 168.487 478.449 168.2 477.529 168.2ZM490.201 169.68C490.068 168.64 489.228 168.12 487.681 168.12C486.148 168.12 485.381 168.6 485.381 169.56C485.381 169.96 485.541 170.267 485.861 170.48C486.195 170.68 486.608 170.847 487.101 170.98C487.595 171.113 488.128 171.24 488.701 171.36C489.288 171.467 489.828 171.627 490.321 171.84C490.815 172.04 491.221 172.32 491.541 172.68C491.875 173.04 492.041 173.533 492.041 174.16C492.041 175.133 491.675 175.88 490.941 176.4C490.208 176.907 489.215 177.16 487.961 177.16C486.628 177.16 485.568 176.827 484.781 176.16C484.061 175.573 483.675 174.807 483.621 173.86H485.181C485.275 174.78 485.795 175.4 486.741 175.72C487.088 175.827 487.428 175.88 487.761 175.88C488.108 175.88 488.428 175.86 488.721 175.82C489.015 175.78 489.301 175.707 489.581 175.6C490.221 175.347 490.541 174.913 490.541 174.3C490.541 173.887 490.375 173.573 490.041 173.36C489.721 173.133 489.315 172.953 488.821 172.82C488.328 172.673 487.788 172.547 487.201 172.44C486.628 172.32 486.095 172.16 485.601 171.96C485.108 171.76 484.695 171.487 484.361 171.14C484.041 170.793 483.881 170.313 483.881 169.7C483.881 168.793 484.208 168.093 484.861 167.6C485.528 167.093 486.508 166.84 487.801 166.84C489.028 166.84 489.995 167.133 490.701 167.72C491.288 168.213 491.628 168.867 491.721 169.68H490.201ZM495.05 177V168.32H493.01V167H495.05V163.42H496.55V167H498.85V168.32H496.55V177H495.05ZM504.638 166.84C506.131 166.84 507.345 167.34 508.278 168.34C509.158 169.3 509.598 170.52 509.598 172C509.598 173.48 509.158 174.7 508.278 175.66C507.345 176.66 506.131 177.16 504.638 177.16C503.145 177.16 501.931 176.66 500.998 175.66C500.118 174.7 499.678 173.48 499.678 172C499.678 170.52 500.118 169.3 500.998 168.34C501.931 167.34 503.145 166.84 504.638 166.84ZM504.638 175.8C505.718 175.8 506.571 175.427 507.198 174.68C507.798 173.973 508.098 173.08 508.098 172C508.098 170.92 507.798 170.027 507.198 169.32C506.571 168.573 505.718 168.2 504.638 168.2C503.558 168.2 502.705 168.573 502.078 169.32C501.478 170.027 501.178 170.92 501.178 172C501.178 173.08 501.478 173.973 502.078 174.68C502.705 175.427 503.558 175.8 504.638 175.8ZM516.867 166.84V168.34H516.687C515.607 168.34 514.727 168.773 514.047 169.64C513.407 170.467 513.087 171.453 513.087 172.6V177H511.587V167H513.087V169.46C513.407 168.42 514.1 167.653 515.167 167.16C515.607 166.947 516.14 166.84 516.767 166.84H516.867ZM524.362 169.68C524.228 168.64 523.388 168.12 521.842 168.12C520.308 168.12 519.542 168.6 519.542 169.56C519.542 169.96 519.702 170.267 520.022 170.48C520.355 170.68 520.768 170.847 521.262 170.98C521.755 171.113 522.288 171.24 522.862 171.36C523.448 171.467 523.988 171.627 524.482 171.84C524.975 172.04 525.382 172.32 525.702 172.68C526.035 173.04 526.202 173.533 526.202 174.16C526.202 175.133 525.835 175.88 525.102 176.4C524.368 176.907 523.375 177.16 522.122 177.16C520.788 177.16 519.728 176.827 518.942 176.16C518.222 175.573 517.835 174.807 517.782 173.86H519.342C519.435 174.78 519.955 175.4 520.902 175.72C521.248 175.827 521.588 175.88 521.922 175.88C522.268 175.88 522.588 175.86 522.882 175.82C523.175 175.78 523.462 175.707 523.742 175.6C524.382 175.347 524.702 174.913 524.702 174.3C524.702 173.887 524.535 173.573 524.202 173.36C523.882 173.133 523.475 172.953 522.982 172.82C522.488 172.673 521.948 172.547 521.362 172.44C520.788 172.32 520.255 172.16 519.762 171.96C519.268 171.76 518.855 171.487 518.522 171.14C518.202 170.793 518.042 170.313 518.042 169.7C518.042 168.793 518.368 168.093 519.022 167.6C519.688 167.093 520.668 166.84 521.962 166.84C523.188 166.84 524.155 167.133 524.862 167.72C525.448 168.213 525.788 168.867 525.882 169.68H524.362Z" fill="#686868"/>
<path d="M449.336 88.5998H431.936C431.536 88.5998 431.236 88.2998 431.236 87.8998V56.9998C431.236 56.5998 431.536 56.2998 431.936 56.2998H449.236C449.636 56.2998 449.936 56.5998 449.936 56.9998V87.8998C450.036 88.2998 449.636 88.5998 449.336 88.5998ZM432.636 87.1998H448.536V57.6998H432.636V87.1998Z" fill="#0F304D"/>
<path d="M484.136 90.8996C482.936 90.8996 481.736 90.7996 480.536 90.5996L449.136 85.5996C448.836 85.4996 448.536 85.1996 448.536 84.8996V59.9996C448.536 59.5996 448.836 59.2996 449.236 59.2996L468.336 57.7996C472.036 57.4996 475.636 58.4996 478.736 60.6996L491.036 69.2996C492.536 70.3996 493.436 72.2996 493.236 74.1996C501.936 73.2996 508.836 67.6996 513.236 62.9996C514.136 61.9996 515.436 61.4996 516.636 61.5996C517.936 61.6996 519.136 62.4996 519.836 63.5996C520.936 65.2996 520.936 67.5996 519.736 69.2996C512.136 79.9996 502.436 86.7996 490.136 90.0996C488.136 90.5996 486.136 90.8996 484.136 90.8996ZM450.036 84.2996L480.836 89.1996C483.836 89.6996 486.836 89.4996 489.736 88.6996C501.736 85.4996 511.136 78.8996 518.636 68.4996C519.436 67.2996 519.536 65.6996 518.736 64.3996C518.236 63.5996 517.436 63.0996 516.536 62.9996C515.636 62.9996 514.836 63.2996 514.236 63.9996C509.636 68.8996 502.336 74.8996 492.936 75.6996C492.736 76.3996 492.236 77.0996 491.736 77.6996C490.836 78.5996 489.636 79.1996 488.436 79.1996C487.936 79.1996 487.436 79.0996 487.036 78.9996C484.836 78.1996 477.336 75.3996 473.736 71.8996C473.436 71.5996 473.436 71.1996 473.736 70.8996C474.036 70.5996 474.436 70.5996 474.736 70.8996C477.436 73.5996 483.036 76.0996 487.436 77.6996C487.736 77.7996 488.036 77.8996 488.436 77.8996C489.336 77.8996 490.136 77.4996 490.736 76.8996C491.236 76.3996 491.536 75.7996 491.736 75.0996C492.136 73.3996 491.536 71.6996 490.236 70.7996L477.936 62.1996C475.136 60.1996 471.836 59.2996 468.436 59.5996L449.936 60.9996V84.2996H450.036Z" fill="#0F304D"/>
<path d="M491.136 71.0997C490.736 71.0997 490.436 70.7997 490.436 70.3997C490.436 69.9997 490.736 69.6997 491.136 69.5997C496.836 69.1997 501.836 66.3997 505.036 64.0997C505.936 63.4997 507.036 63.2997 508.036 63.5997C509.036 63.8997 509.936 64.6997 510.336 65.6997C510.536 66.1997 510.636 66.6997 510.636 67.1997C510.636 67.2997 510.636 67.3997 510.636 67.3997C510.536 67.7997 510.136 67.9997 509.836 67.9997C509.436 67.8997 509.236 67.4997 509.236 67.1997C509.236 66.8997 509.136 66.5997 509.036 66.2997C508.736 65.6997 508.336 65.1997 507.736 64.9997C507.136 64.7997 506.536 64.8997 506.036 65.2997C502.436 67.6997 497.236 70.6997 491.136 71.0997Z" fill="#0F304D"/>
<path d="M487.336 68.3C486.936 68.3 486.636 68 486.636 67.7C486.636 67.3 486.836 67 487.236 66.9C490.436 66.5 493.836 65.4 497.336 63.6C498.336 63.1 499.436 63.1 500.336 63.5C501.336 63.9 502.036 64.8 502.236 65.9C502.336 66.2 502.336 66.5 502.336 66.8C502.336 66.9 502.336 67.1 502.336 67.2C502.236 67.6 501.936 67.9 501.536 67.8C501.136 67.7 500.836 67.4 500.936 67V66.9C500.936 66.7 500.936 66.5 500.836 66.3C500.636 65.6 500.236 65.1 499.736 64.8C499.136 64.5 498.536 64.6 497.936 64.9C494.436 66.7 490.836 67.9 487.336 68.3C487.436 68.3 487.336 68.3 487.336 68.3Z" fill="#0F304D"/>
<path d="M444.136 88.5997H437.136C436.736 88.5997 436.436 88.2997 436.436 87.8997V84.3997C436.436 82.0997 438.336 80.1997 440.636 80.1997C442.936 80.1997 444.836 82.0997 444.836 84.3997V87.8997C444.836 88.2997 444.536 88.5997 444.136 88.5997ZM437.836 87.1997H443.336V84.3997C443.336 82.8997 442.136 81.5997 440.536 81.5997C438.936 81.5997 437.736 82.7997 437.736 84.3997V87.1997H437.836Z" fill="#0F304D"/>
<path d="M454.136 36.5C444.036 36.5 435.936 28.3 435.936 18.3C435.936 8.3 444.036 0 454.136 0C464.236 0 472.336 8.2 472.336 18.2C472.336 28.2 464.236 36.5 454.136 36.5ZM454.136 1.4C444.836 1.4 437.336 9 437.336 18.2C437.336 27.4 444.836 35 454.136 35C463.436 35 470.936 27.5 470.936 18.2C470.936 8.9 463.436 1.4 454.136 1.4Z" fill="#0F304D"/>
<path d="M454.136 26.4002C451.536 26.4002 449.336 24.4002 449.336 22.0002C449.336 21.6002 449.636 21.3002 450.036 21.3002C450.436 21.3002 450.736 21.6002 450.736 22.0002C450.736 23.7002 452.236 25.0002 454.036 25.0002C455.836 25.0002 457.336 23.6002 457.336 22.0002C457.336 20.4002 455.836 19.0002 454.036 19.0002C451.436 19.0002 449.236 17.0002 449.236 14.6002C449.236 12.2002 451.336 10.2002 454.036 10.2002C456.736 10.2002 458.836 12.2002 458.836 14.6002C458.836 15.0002 458.536 15.3002 458.136 15.3002C457.736 15.3002 457.436 15.0002 457.436 14.6002C457.436 12.9002 455.936 11.6002 454.136 11.6002C452.336 11.6002 450.836 13.0002 450.836 14.6002C450.836 16.3002 452.336 17.6002 454.136 17.6002C456.736 17.6002 458.936 19.6002 458.936 22.0002C458.936 24.4002 456.736 26.4002 454.136 26.4002Z" fill="#0F304D"/>
<path d="M454.136 28.3C453.736 28.3 453.436 28 453.436 27.6V25.7C453.436 25.3 453.736 25 454.136 25C454.536 25 454.836 25.3 454.836 25.7V27.6C454.836 28 454.536 28.3 454.136 28.3Z" fill="#0F304D"/>
<path d="M454.136 11.5002C453.736 11.5002 453.436 11.2002 453.436 10.8002V8.9002C453.436 8.5002 453.736 8.2002 454.136 8.2002C454.536 8.2002 454.836 8.5002 454.836 8.9002V10.8002C454.836 11.2002 454.536 11.5002 454.136 11.5002Z" fill="#0F304D"/>
<path d="M495.636 55.3C484.336 55.3 475.236 46.1 475.236 34.9C475.236 23.6 484.436 14.5 495.636 14.5C506.936 14.5 516.036 23.7 516.036 34.9C516.136 46.1 506.936 55.3 495.636 55.3ZM495.636 15.9C485.136 15.9 476.636 24.4 476.636 34.9C476.636 45.4 485.136 53.9 495.636 53.9C506.136 53.9 514.636 45.4 514.636 34.9C514.636 24.4 506.136 15.9 495.636 15.9Z" fill="#0F304D"/>
<path d="M495.636 44.0003C492.736 44.0003 490.336 41.8003 490.336 39.1003C490.336 38.7003 490.636 38.4003 491.036 38.4003C491.436 38.4003 491.736 38.7003 491.736 39.1003C491.736 41.0003 493.436 42.6003 495.536 42.6003C497.636 42.6003 499.336 41.0003 499.336 39.1003C499.336 37.2003 497.636 35.6003 495.536 35.6003C492.636 35.6003 490.236 33.4003 490.236 30.7003C490.236 28.0003 492.636 25.8003 495.536 25.8003C498.436 25.8003 500.836 28.0003 500.836 30.7003C500.836 31.1003 500.536 31.4003 500.136 31.4003C499.736 31.4003 499.436 31.1003 499.436 30.7003C499.436 28.8003 497.736 27.2003 495.636 27.2003C493.536 27.2003 491.836 28.8003 491.836 30.7003C491.836 32.6003 493.536 34.2003 495.636 34.2003C498.536 34.2003 500.936 36.4003 500.936 39.1003C500.936 41.8003 498.536 44.0003 495.636 44.0003Z" fill="#0F304D"/>
<path d="M495.636 46.1001C495.236 46.1001 494.936 45.8001 494.936 45.4001V43.3001C494.936 42.9001 495.236 42.6001 495.636 42.6001C496.036 42.6001 496.336 42.9001 496.336 43.3001V45.4001C496.336 45.8001 496.036 46.1001 495.636 46.1001Z" fill="#0F304D"/>
<path d="M495.636 27.2002C495.236 27.2002 494.936 26.9002 494.936 26.5002V24.4002C494.936 24.0002 495.236 23.7002 495.636 23.7002C496.036 23.7002 496.336 24.0002 496.336 24.4002V26.5002C496.336 26.9002 496.036 27.2002 495.636 27.2002Z" fill="#0F304D"/>
<path d="M224.958 60.3617C200.888 78.796 180.469 48.2931 168.932 62.9899" stroke="#0F304D"/>
<path d="M348.599 58.5356C369.382 46.2918 382.749 73.1593 401.8 55.8369" stroke="#0F304D"/>
<path d="M26.1641 141.6C28.1374 141.6 29.7574 142.26 31.0241 143.58C32.2641 144.86 32.8841 146.46 32.8841 148.38C32.8841 150.3 32.2641 151.9 31.0241 153.18C29.7574 154.5 28.1374 155.16 26.1641 155.16C24.1907 155.16 22.5707 154.5 21.3041 153.18C20.0641 151.9 19.4441 150.3 19.4441 148.38C19.4441 146.46 20.0641 144.86 21.3041 143.58C22.5707 142.26 24.1907 141.6 26.1641 141.6ZM26.1641 153.7C27.7374 153.7 29.0107 153.187 29.9841 152.16C30.9174 151.173 31.3841 149.913 31.3841 148.38C31.3841 146.847 30.9174 145.587 29.9841 144.6C29.0107 143.573 27.7374 143.06 26.1641 143.06C24.5907 143.06 23.3174 143.573 22.3441 144.6C21.4107 145.587 20.9441 146.847 20.9441 148.38C20.9441 149.913 21.4107 151.173 22.3441 152.16C23.3174 153.187 24.5907 153.7 26.1641 153.7ZM40.2441 144.84V146.34H40.0641C38.9841 146.34 38.1041 146.773 37.4241 147.64C36.7841 148.467 36.4641 149.453 36.4641 150.6V155H34.9641V145H36.4641V147.46C36.7841 146.42 37.4774 145.653 38.5441 145.16C38.9841 144.947 39.5174 144.84 40.1441 144.84H40.2441ZM41.8586 145H43.3586V155H41.8586V145ZM43.4186 141.36V143.32H41.7986V141.36H43.4186ZM53.7602 146.6V145H55.2602V154.7C55.2602 156.14 54.8468 157.233 54.0202 157.98C53.2068 158.74 52.1068 159.12 50.7202 159.12C49.3335 159.12 48.2468 158.853 47.4602 158.32C46.6868 157.787 46.1602 157.08 45.8802 156.2H47.5402C47.9668 157.24 48.9402 157.76 50.4602 157.76C51.6202 157.76 52.4602 157.493 52.9802 156.96C53.5002 156.427 53.7602 155.64 53.7602 154.6V153.22C52.9468 154.407 51.7535 155 50.1802 155C48.7402 155 47.5668 154.507 46.6602 153.52C45.7802 152.56 45.3402 151.36 45.3402 149.92C45.3402 148.48 45.7802 147.28 46.6602 146.32C47.5668 145.333 48.7735 144.84 50.2802 144.84C51.8002 144.84 52.9602 145.427 53.7602 146.6ZM50.3802 153.64C50.9268 153.64 51.4135 153.547 51.8402 153.36C52.2668 153.16 52.6335 152.893 52.9402 152.56C53.5402 151.867 53.8402 150.987 53.8402 149.92C53.8402 148.853 53.5402 147.973 52.9402 147.28C52.2868 146.56 51.4335 146.2 50.3802 146.2C49.3002 146.2 48.4335 146.56 47.7802 147.28C47.1535 147.987 46.8402 148.867 46.8402 149.92C46.8402 150.973 47.1535 151.853 47.7802 152.56C48.4335 153.28 49.3002 153.64 50.3802 153.64ZM57.8547 145H59.3547V155H57.8547V145ZM59.4147 141.36V143.32H57.7947V141.36H59.4147ZM63.4563 145V146.56C63.8163 146.08 64.2563 145.673 64.7763 145.34C65.2963 145.007 65.8896 144.84 66.5563 144.84C67.2229 144.84 67.7963 144.933 68.2763 145.12C68.7563 145.307 69.1763 145.587 69.5363 145.96C70.3629 146.773 70.7763 147.847 70.7763 149.18V155H69.2763V149.22C69.2763 148.3 69.0163 147.567 68.4963 147.02C67.9763 146.473 67.3029 146.2 66.4763 146.2C65.6363 146.2 64.9229 146.48 64.3363 147.04C63.7496 147.613 63.4563 148.347 63.4563 149.24V155H61.9563V145H63.4563ZM81.0844 153.4C80.2844 154.573 79.091 155.16 77.5044 155.16C76.0644 155.16 74.891 154.66 73.9844 153.66C73.1044 152.673 72.6644 151.453 72.6644 150C72.6644 148.547 73.1044 147.327 73.9844 146.34C74.891 145.34 76.0977 144.84 77.6044 144.84C79.111 144.84 80.271 145.433 81.0844 146.62V145H82.5844V155H81.0844V153.4ZM77.7044 153.8C78.7844 153.8 79.6377 153.427 80.2644 152.68C80.8644 151.973 81.1644 151.08 81.1644 150C81.1644 148.92 80.8644 148.027 80.2644 147.32C79.6377 146.573 78.7844 146.2 77.7044 146.2C76.6377 146.2 75.771 146.573 75.1044 147.32C74.4777 148.027 74.1644 148.92 74.1644 150C74.1644 151.08 74.4777 151.973 75.1044 152.68C75.771 153.427 76.6377 153.8 77.7044 153.8ZM86.2589 155V146.32H84.2189V145H86.2589V141.42H87.7589V145H90.0589V146.32H87.7589V155H86.2589ZM95.967 153.8C97.3137 153.8 98.2804 153.24 98.867 152.12H100.507C100.16 153.027 99.607 153.76 98.847 154.32C98.1004 154.88 97.1337 155.16 95.947 155.16C94.4404 155.16 93.2137 154.66 92.267 153.66C91.347 152.687 90.887 151.467 90.887 150C90.887 148.52 91.327 147.3 92.207 146.34C93.1404 145.34 94.3537 144.84 95.847 144.84C97.3404 144.84 98.5537 145.34 99.487 146.34C100.367 147.3 100.807 148.52 100.807 150V150.6H92.427C92.5337 151.52 92.9004 152.28 93.527 152.88C94.167 153.493 94.9804 153.8 95.967 153.8ZM95.847 146.2C94.927 146.2 94.1537 146.487 93.527 147.06C92.9404 147.607 92.5804 148.32 92.447 149.2H99.247C99.1137 148.32 98.7537 147.607 98.167 147.06C97.5404 146.487 96.767 146.2 95.847 146.2ZM108.04 141.4L103.46 155.64H102.06L106.64 141.4H108.04ZM111.902 143.8C111.648 144.013 111.475 144.253 111.382 144.52C111.302 144.787 111.262 145.073 111.262 145.38C111.262 145.673 111.388 145.947 111.642 146.2C111.908 146.453 112.255 146.667 112.682 146.84C113.108 147.013 113.595 147.167 114.142 147.3C114.688 147.433 115.242 147.573 115.802 147.72C116.375 147.853 116.935 148.013 117.482 148.2C118.028 148.373 118.515 148.6 118.942 148.88C119.888 149.48 120.362 150.3 120.362 151.34C120.362 152.58 119.895 153.527 118.962 154.18C118.042 154.833 116.762 155.16 115.122 155.16C113.268 155.16 111.855 154.773 110.882 154C110.015 153.307 109.522 152.32 109.402 151.04H110.962C111.015 151.947 111.455 152.64 112.282 153.12C113.002 153.533 113.955 153.74 115.142 153.74C117.622 153.74 118.862 152.96 118.862 151.4C118.862 150.867 118.635 150.447 118.182 150.14C117.742 149.833 117.182 149.58 116.502 149.38C115.835 149.18 115.108 148.993 114.322 148.82C113.548 148.647 112.822 148.427 112.142 148.16C111.475 147.88 110.915 147.52 110.462 147.08C110.022 146.627 109.802 146.02 109.802 145.26C109.802 144.18 110.215 143.3 111.042 142.62C111.868 141.94 113.115 141.6 114.782 141.6C116.462 141.6 117.762 141.987 118.682 142.76C119.522 143.44 119.968 144.313 120.022 145.38H118.482C118.348 144.287 117.642 143.56 116.362 143.2C115.908 143.067 115.342 143 114.662 143C113.995 143 113.428 143.08 112.962 143.24C112.508 143.387 112.155 143.573 111.902 143.8ZM126.706 144.84C128.2 144.84 129.413 145.34 130.346 146.34C131.226 147.3 131.666 148.52 131.666 150C131.666 151.48 131.226 152.7 130.346 153.66C129.413 154.66 128.2 155.16 126.706 155.16C125.213 155.16 124 154.66 123.066 153.66C122.186 152.7 121.746 151.48 121.746 150C121.746 148.52 122.186 147.3 123.066 146.34C124 145.34 125.213 144.84 126.706 144.84ZM126.706 153.8C127.786 153.8 128.64 153.427 129.266 152.68C129.866 151.973 130.166 151.08 130.166 150C130.166 148.92 129.866 148.027 129.266 147.32C128.64 146.573 127.786 146.2 126.706 146.2C125.626 146.2 124.773 146.573 124.146 147.32C123.546 148.027 123.246 148.92 123.246 150C123.246 151.08 123.546 151.973 124.146 152.68C124.773 153.427 125.626 153.8 126.706 153.8ZM140.875 155V153.44C140.515 153.92 140.075 154.327 139.555 154.66C139.035 154.993 138.442 155.16 137.775 155.16C137.109 155.16 136.535 155.067 136.055 154.88C135.575 154.693 135.155 154.413 134.795 154.04C133.969 153.227 133.555 152.153 133.555 150.82V145H135.055V150.78C135.055 151.7 135.315 152.433 135.835 152.98C136.355 153.527 137.029 153.8 137.855 153.8C138.695 153.8 139.409 153.52 139.995 152.96C140.582 152.387 140.875 151.653 140.875 150.76V145H142.375V155H140.875ZM150.264 144.84V146.34H150.084C149.004 146.34 148.124 146.773 147.444 147.64C146.804 148.467 146.484 149.453 146.484 150.6V155H144.984V145H146.484V147.46C146.804 146.42 147.497 145.653 148.564 145.16C149.004 144.947 149.537 144.84 150.164 144.84H150.264ZM156.244 153.8C156.884 153.8 157.451 153.62 157.944 153.26C158.438 152.9 158.798 152.433 159.024 151.86H160.644C160.338 152.847 159.778 153.64 158.964 154.24C158.111 154.853 157.098 155.16 155.924 155.16C154.458 155.16 153.264 154.66 152.344 153.66C151.451 152.687 151.004 151.467 151.004 150C151.004 148.533 151.451 147.313 152.344 146.34C153.264 145.34 154.458 144.84 155.924 144.84C157.098 144.84 158.111 145.147 158.964 145.76C159.778 146.36 160.338 147.153 160.644 148.14H159.024C158.798 147.567 158.438 147.1 157.944 146.74C157.451 146.38 156.884 146.2 156.244 146.2C155.604 146.2 155.058 146.3 154.604 146.5C154.164 146.7 153.791 146.973 153.484 147.32C152.831 148.04 152.504 148.933 152.504 150C152.504 151.067 152.831 151.96 153.484 152.68C154.151 153.427 155.071 153.8 156.244 153.8ZM166.963 153.8C168.31 153.8 169.276 153.24 169.863 152.12H171.503C171.156 153.027 170.603 153.76 169.843 154.32C169.096 154.88 168.13 155.16 166.943 155.16C165.436 155.16 164.21 154.66 163.263 153.66C162.343 152.687 161.883 151.467 161.883 150C161.883 148.52 162.323 147.3 163.203 146.34C164.136 145.34 165.35 144.84 166.843 144.84C168.336 144.84 169.55 145.34 170.483 146.34C171.363 147.3 171.803 148.52 171.803 150V150.6H163.423C163.53 151.52 163.896 152.28 164.523 152.88C165.163 153.493 165.976 153.8 166.963 153.8ZM166.843 146.2C165.923 146.2 165.15 146.487 164.523 147.06C163.936 147.607 163.576 148.32 163.443 149.2H170.243C170.11 148.32 169.75 147.607 169.163 147.06C168.536 146.487 167.763 146.2 166.843 146.2ZM44.3427 177H42.8427V163.76H44.3427V177ZM48.7688 167V168.56C49.1288 168.08 49.5688 167.673 50.0888 167.34C50.6088 167.007 51.2021 166.84 51.8688 166.84C52.5354 166.84 53.1088 166.933 53.5888 167.12C54.0688 167.307 54.4888 167.587 54.8488 167.96C55.6754 168.773 56.0888 169.847 56.0888 171.18V177H54.5888V171.22C54.5888 170.3 54.3288 169.567 53.8088 169.02C53.2888 168.473 52.6154 168.2 51.7888 168.2C50.9488 168.2 50.2354 168.48 49.6488 169.04C49.0621 169.613 48.7688 170.347 48.7688 171.24V177H47.2688V167H48.7688ZM66.723 167L62.823 177H61.063L57.143 167H58.783L61.943 175.4L65.083 167H66.723ZM72.4709 175.8C73.8176 175.8 74.7843 175.24 75.3709 174.12H77.0109C76.6643 175.027 76.1109 175.76 75.3509 176.32C74.6043 176.88 73.6376 177.16 72.4509 177.16C70.9443 177.16 69.7176 176.66 68.7709 175.66C67.8509 174.687 67.3909 173.467 67.3909 172C67.3909 170.52 67.8309 169.3 68.7109 168.34C69.6443 167.34 70.8576 166.84 72.3509 166.84C73.8443 166.84 75.0576 167.34 75.9909 168.34C76.8709 169.3 77.3109 170.52 77.3109 172V172.6H68.9309C69.0376 173.52 69.4043 174.28 70.0309 174.88C70.6709 175.493 71.4843 175.8 72.4709 175.8ZM72.3509 168.2C71.4309 168.2 70.6576 168.487 70.0309 169.06C69.4443 169.607 69.0843 170.32 68.9509 171.2H75.7509C75.6176 170.32 75.2576 169.607 74.6709 169.06C74.0443 168.487 73.2709 168.2 72.3509 168.2ZM85.0238 169.68C84.8904 168.64 84.0504 168.12 82.5038 168.12C80.9704 168.12 80.2038 168.6 80.2038 169.56C80.2038 169.96 80.3638 170.267 80.6838 170.48C81.0171 170.68 81.4304 170.847 81.9238 170.98C82.4171 171.113 82.9504 171.24 83.5238 171.36C84.1104 171.467 84.6504 171.627 85.1438 171.84C85.6371 172.04 86.0438 172.32 86.3638 172.68C86.6971 173.04 86.8638 173.533 86.8638 174.16C86.8638 175.133 86.4971 175.88 85.7638 176.4C85.0304 176.907 84.0371 177.16 82.7838 177.16C81.4504 177.16 80.3904 176.827 79.6038 176.16C78.8838 175.573 78.4971 174.807 78.4438 173.86H80.0038C80.0971 174.78 80.6171 175.4 81.5638 175.72C81.9104 175.827 82.2504 175.88 82.5838 175.88C82.9304 175.88 83.2504 175.86 83.5438 175.82C83.8371 175.78 84.1238 175.707 84.4038 175.6C85.0438 175.347 85.3638 174.913 85.3638 174.3C85.3638 173.887 85.1971 173.573 84.8638 173.36C84.5438 173.133 84.1371 172.953 83.6438 172.82C83.1504 172.673 82.6104 172.547 82.0238 172.44C81.4504 172.32 80.9171 172.16 80.4238 171.96C79.9304 171.76 79.5171 171.487 79.1838 171.14C78.8638 170.793 78.7038 170.313 78.7038 169.7C78.7038 168.793 79.0304 168.093 79.6838 167.6C80.3504 167.093 81.3304 166.84 82.6238 166.84C83.8504 166.84 84.8171 167.133 85.5238 167.72C86.1104 168.213 86.4504 168.867 86.5438 169.68H85.0238ZM89.8722 177V168.32H87.8322V167H89.8722V163.42H91.3722V167H93.6722V168.32H91.3722V177H89.8722ZM96.8156 168.52C97.4823 167.4 98.4956 166.84 99.8556 166.84C100.522 166.84 101.136 167.02 101.696 167.38C102.269 167.727 102.716 168.22 103.036 168.86C103.489 168.02 104.196 167.42 105.156 167.06C105.542 166.913 105.976 166.84 106.456 166.84C106.949 166.84 107.416 166.94 107.856 167.14C108.309 167.327 108.709 167.6 109.056 167.96C109.802 168.76 110.176 169.76 110.176 170.96V177H108.676V171C108.676 170.173 108.442 169.493 107.976 168.96C107.509 168.453 106.916 168.2 106.196 168.2C105.436 168.2 104.802 168.447 104.296 168.94C103.762 169.447 103.496 170.14 103.496 171.02V177H101.996V171C101.996 170.173 101.762 169.493 101.296 168.96C100.829 168.453 100.236 168.2 99.5156 168.2C98.7556 168.2 98.1223 168.447 97.6156 168.94C97.0823 169.447 96.8156 170.14 96.8156 171.02V177H95.3156V167H96.8156V168.52ZM117.139 175.8C118.486 175.8 119.452 175.24 120.039 174.12H121.679C121.332 175.027 120.779 175.76 120.019 176.32C119.272 176.88 118.306 177.16 117.119 177.16C115.612 177.16 114.386 176.66 113.439 175.66C112.519 174.687 112.059 173.467 112.059 172C112.059 170.52 112.499 169.3 113.379 168.34C114.312 167.34 115.526 166.84 117.019 166.84C118.512 166.84 119.726 167.34 120.659 168.34C121.539 169.3 121.979 170.52 121.979 172V172.6H113.599C113.706 173.52 114.072 174.28 114.699 174.88C115.339 175.493 116.152 175.8 117.139 175.8ZM117.019 168.2C116.099 168.2 115.326 168.487 114.699 169.06C114.112 169.607 113.752 170.32 113.619 171.2H120.419C120.286 170.32 119.926 169.607 119.339 169.06C118.712 168.487 117.939 168.2 117.019 168.2ZM125.312 167V168.56C125.672 168.08 126.112 167.673 126.632 167.34C127.152 167.007 127.745 166.84 128.412 166.84C129.078 166.84 129.652 166.933 130.132 167.12C130.612 167.307 131.032 167.587 131.392 167.96C132.218 168.773 132.632 169.847 132.632 171.18V177H131.132V171.22C131.132 170.3 130.872 169.567 130.352 169.02C129.832 168.473 129.158 168.2 128.332 168.2C127.492 168.2 126.778 168.48 126.192 169.04C125.605 169.613 125.312 170.347 125.312 171.24V177H123.812V167H125.312ZM135.985 177V168.32H133.945V167H135.985V163.42H137.485V167H139.785V168.32H137.485V177H135.985ZM147.309 169.68C147.176 168.64 146.336 168.12 144.789 168.12C143.256 168.12 142.489 168.6 142.489 169.56C142.489 169.96 142.649 170.267 142.969 170.48C143.302 170.68 143.716 170.847 144.209 170.98C144.702 171.113 145.236 171.24 145.809 171.36C146.396 171.467 146.936 171.627 147.429 171.84C147.922 172.04 148.329 172.32 148.649 172.68C148.982 173.04 149.149 173.533 149.149 174.16C149.149 175.133 148.782 175.88 148.049 176.4C147.316 176.907 146.322 177.16 145.069 177.16C143.736 177.16 142.676 176.827 141.889 176.16C141.169 175.573 140.782 174.807 140.729 173.86H142.289C142.382 174.78 142.902 175.4 143.849 175.72C144.196 175.827 144.536 175.88 144.869 175.88C145.216 175.88 145.536 175.86 145.829 175.82C146.122 175.78 146.409 175.707 146.689 175.6C147.329 175.347 147.649 174.913 147.649 174.3C147.649 173.887 147.482 173.573 147.149 173.36C146.829 173.133 146.422 172.953 145.929 172.82C145.436 172.673 144.896 172.547 144.309 172.44C143.736 172.32 143.202 172.16 142.709 171.96C142.216 171.76 141.802 171.487 141.469 171.14C141.149 170.793 140.989 170.313 140.989 169.7C140.989 168.793 141.316 168.093 141.969 167.6C142.636 167.093 143.616 166.84 144.909 166.84C146.136 166.84 147.102 167.133 147.809 167.72C148.396 168.213 148.736 168.867 148.829 169.68H147.309Z" fill="#686868"/>
</svg>
