<svg width="362" height="136" viewBox="0 0 362 136" fill="none" xmlns="http://www.w3.org/2000/svg">
<path d="M67.5 135.013C58.391 135.013 49.5461 133.226 41.2171 129.703C33.1775 126.306 25.9557 121.437 19.7656 115.247C13.5755 109.057 8.70643 101.835 5.30941 93.7954C1.78658 85.4539 0 76.609 0 67.5C0 57.9884 1.95014 48.7787 5.77493 40.1351C9.4739 31.7936 14.7456 24.3956 21.439 18.1552C33.9828 6.45433 50.3388 0 67.5 0C76.609 0 85.4539 1.78658 93.7829 5.30941C101.822 8.70643 109.044 13.5755 115.234 19.7656C121.425 25.9557 126.294 33.1775 129.691 41.2172C133.213 49.5461 135 58.391 135 67.5C135 76.609 133.213 85.4539 129.691 93.7829C126.294 101.822 121.425 109.044 115.234 115.234C109.044 121.425 101.822 126.294 93.7829 129.691C85.4539 133.226 76.609 135.013 67.5 135.013ZM67.5 28.3085C57.5354 28.3085 48.0363 32.0578 40.7516 38.8518C36.8639 42.4879 33.794 46.7908 31.6426 51.6221C29.4282 56.6295 28.2959 61.9641 28.2959 67.5C28.2959 77.9678 32.3723 87.8066 39.7703 95.2172C47.1682 102.615 57.0196 106.692 67.4874 106.692C77.9553 106.692 87.794 102.615 95.2046 95.2172C102.603 87.8192 106.679 77.9678 106.679 67.5C106.679 57.0322 102.603 47.1934 95.2046 39.7829C87.8192 32.3849 77.9678 28.3085 67.5 28.3085Z" fill="#C5E16F"/>
<path d="M37.0526 37.8579C32.5736 37.8579 28.1826 35.7442 25.4272 31.7936C20.9608 25.377 22.5335 16.5573 28.9501 12.0909C40.2986 4.17707 53.6351 0 67.4999 0C75.3257 0 81.6542 6.3411 81.6542 14.1542C81.6542 21.9674 75.3257 28.3085 67.4999 28.3085C59.4478 28.3085 51.7101 30.7367 45.13 35.3164C42.664 37.0275 39.8457 37.8579 37.0526 37.8579Z" fill="#62BB46"/>
<path d="M173.026 50.112C172.102 50.112 171.304 49.902 170.632 49.482C169.96 49.0527 169.442 48.4787 169.078 47.76C168.723 47.0413 168.546 46.2433 168.546 45.366C168.546 44.4887 168.723 43.6907 169.078 42.972C169.442 42.2533 169.96 41.684 170.632 41.264C171.304 40.8347 172.102 40.62 173.026 40.62C173.726 40.62 174.356 40.746 174.916 40.998C175.476 41.2407 175.952 41.5767 176.344 42.006C176.736 42.4353 177.03 42.9347 177.226 43.504H176.12C175.887 42.9347 175.518 42.482 175.014 42.146C174.51 41.81 173.875 41.642 173.11 41.642C172.363 41.642 171.724 41.81 171.192 42.146C170.669 42.4727 170.273 42.916 170.002 43.476C169.731 44.036 169.596 44.666 169.596 45.366C169.596 46.0567 169.731 46.6867 170.002 47.256C170.273 47.816 170.669 48.264 171.192 48.6C171.724 48.9267 172.363 49.09 173.11 49.09C173.875 49.09 174.51 48.922 175.014 48.586C175.518 48.25 175.887 47.7973 176.12 47.228H177.226C177.03 47.788 176.736 48.2873 176.344 48.726C175.952 49.1553 175.476 49.496 174.916 49.748C174.356 49.9907 173.726 50.112 173.026 50.112ZM181.53 50.112C180.849 50.112 180.251 49.9533 179.738 49.636C179.234 49.3093 178.842 48.8707 178.562 48.32C178.282 47.7693 178.142 47.1627 178.142 46.5C178.142 45.828 178.282 45.2213 178.562 44.68C178.842 44.1293 179.234 43.6953 179.738 43.378C180.251 43.0513 180.849 42.888 181.53 42.888C182.109 42.888 182.603 43 183.014 43.224C183.434 43.448 183.775 43.7513 184.036 44.134V43H185.086V50H184.036V48.88C183.775 49.2533 183.434 49.552 183.014 49.776C182.603 50 182.109 50.112 181.53 50.112ZM181.67 49.16C182.193 49.16 182.631 49.0387 182.986 48.796C183.35 48.5533 183.625 48.2313 183.812 47.83C183.999 47.4193 184.092 46.976 184.092 46.5C184.092 46.0147 183.999 45.5713 183.812 45.17C183.625 44.7687 183.35 44.4467 182.986 44.204C182.631 43.9613 182.193 43.84 181.67 43.84C181.157 43.84 180.713 43.9613 180.34 44.204C179.967 44.4467 179.682 44.7687 179.486 45.17C179.29 45.5713 179.192 46.0147 179.192 46.5C179.192 46.976 179.29 47.4193 179.486 47.83C179.682 48.2313 179.967 48.5533 180.34 48.796C180.713 49.0387 181.157 49.16 181.67 49.16ZM189.45 50.112C188.806 50.112 188.26 50.0047 187.812 49.79C187.374 49.5753 187.038 49.2953 186.804 48.95C186.571 48.5953 186.44 48.2127 186.412 47.802H187.504C187.532 48.0353 187.612 48.264 187.742 48.488C187.882 48.7027 188.092 48.88 188.372 49.02C188.652 49.1507 189.016 49.216 189.464 49.216C189.604 49.216 189.777 49.202 189.982 49.174C190.188 49.146 190.384 49.0947 190.57 49.02C190.766 48.9453 190.93 48.8333 191.06 48.684C191.191 48.5347 191.256 48.3433 191.256 48.11C191.256 47.8207 191.144 47.5967 190.92 47.438C190.696 47.2793 190.407 47.158 190.052 47.074C189.698 46.9807 189.32 46.892 188.918 46.808C188.526 46.724 188.153 46.6167 187.798 46.486C187.444 46.346 187.154 46.1547 186.93 45.912C186.706 45.66 186.594 45.3193 186.594 44.89C186.594 44.2553 186.823 43.7653 187.28 43.42C187.747 43.0653 188.433 42.888 189.338 42.888C189.954 42.888 190.454 42.986 190.836 43.182C191.228 43.3687 191.522 43.6113 191.718 43.91C191.924 44.2087 192.045 44.5307 192.082 44.876H191.018C190.981 44.5773 190.832 44.3207 190.57 44.106C190.318 43.8913 189.898 43.784 189.31 43.784C188.2 43.784 187.644 44.12 187.644 44.792C187.644 45.072 187.756 45.2867 187.98 45.436C188.204 45.5853 188.494 45.7067 188.848 45.8C189.203 45.884 189.576 45.968 189.968 46.052C190.37 46.1267 190.748 46.234 191.102 46.374C191.457 46.514 191.746 46.7147 191.97 46.976C192.194 47.228 192.306 47.5733 192.306 48.012C192.306 48.6933 192.045 49.216 191.522 49.58C191.009 49.9347 190.318 50.112 189.45 50.112ZM193.656 50V40.2H194.706V44.092C194.958 43.756 195.266 43.4713 195.63 43.238C195.994 43.0047 196.461 42.888 197.03 42.888C197.515 42.888 197.968 43.0047 198.388 43.238C198.817 43.462 199.163 43.8027 199.424 44.26C199.695 44.708 199.83 45.2633 199.83 45.926V50H198.78V45.954C198.78 45.3193 198.598 44.8107 198.234 44.428C197.87 44.036 197.399 43.84 196.82 43.84C196.428 43.84 196.073 43.9287 195.756 44.106C195.439 44.2833 195.182 44.5353 194.986 44.862C194.799 45.1793 194.706 45.548 194.706 45.968V50H193.656ZM204.79 50V40.732H211.482V41.74H205.84V44.96H210.866V45.982H205.84V50H204.79ZM212.728 50V40.2H213.778V50H212.728ZM218.637 50.112C217.928 50.112 217.312 49.9533 216.789 49.636C216.267 49.3093 215.865 48.8707 215.585 48.32C215.305 47.7693 215.165 47.1627 215.165 46.5C215.165 45.828 215.305 45.2213 215.585 44.68C215.865 44.1293 216.267 43.6953 216.789 43.378C217.312 43.0513 217.928 42.888 218.637 42.888C219.356 42.888 219.972 43.0513 220.485 43.378C221.008 43.6953 221.409 44.1293 221.689 44.68C221.969 45.2213 222.109 45.828 222.109 46.5C222.109 47.1627 221.969 47.7693 221.689 48.32C221.409 48.8707 221.008 49.3093 220.485 49.636C219.972 49.9533 219.356 50.112 218.637 50.112ZM218.637 49.16C219.16 49.16 219.599 49.0387 219.953 48.796C220.317 48.5533 220.593 48.2313 220.779 47.83C220.966 47.4193 221.059 46.976 221.059 46.5C221.059 46.0147 220.966 45.5713 220.779 45.17C220.593 44.7687 220.317 44.4467 219.953 44.204C219.599 43.9613 219.16 43.84 218.637 43.84C218.124 43.84 217.685 43.9613 217.321 44.204C216.957 44.4467 216.682 44.7687 216.495 45.17C216.309 45.5713 216.215 46.0147 216.215 46.5C216.215 46.976 216.309 47.4193 216.495 47.83C216.682 48.2313 216.957 48.5533 217.321 48.796C217.685 49.0387 218.124 49.16 218.637 49.16ZM224.723 50L222.525 43H223.645L225.325 48.698L227.103 43H228.251L230.029 48.698L231.709 43H232.829L230.631 50H229.427L227.677 44.414L225.927 50H224.723ZM233.768 41.824V40.452H234.902V41.824H233.768ZM233.81 50V43H234.86V50H233.81ZM236.681 50V43H237.731V44.092C237.983 43.756 238.291 43.4713 238.655 43.238C239.019 43.0047 239.486 42.888 240.055 42.888C240.541 42.888 240.993 43.0047 241.413 43.238C241.843 43.462 242.188 43.8027 242.449 44.26C242.72 44.708 242.855 45.2633 242.855 45.926V50H241.805V45.954C241.805 45.3193 241.623 44.8107 241.259 44.428C240.895 44.036 240.424 43.84 239.845 43.84C239.453 43.84 239.099 43.9287 238.781 44.106C238.464 44.2833 238.207 44.5353 238.011 44.862C237.825 45.1793 237.731 45.548 237.731 45.968V50H236.681ZM247.817 52.884C246.94 52.884 246.226 52.6927 245.675 52.31C245.125 51.9367 244.751 51.4467 244.555 50.84H245.717C245.857 51.1853 246.1 51.4513 246.445 51.638C246.791 51.834 247.229 51.932 247.761 51.932C248.564 51.932 249.147 51.7407 249.511 51.358C249.885 50.9847 250.071 50.4387 250.071 49.72V48.754C249.81 49.1273 249.469 49.4307 249.049 49.664C248.639 49.888 248.144 50 247.565 50C246.884 50 246.287 49.846 245.773 49.538C245.269 49.2207 244.877 48.7913 244.597 48.25C244.317 47.7087 244.177 47.1067 244.177 46.444C244.177 45.772 244.317 45.17 244.597 44.638C244.877 44.0967 245.269 43.672 245.773 43.364C246.287 43.0467 246.884 42.888 247.565 42.888C248.144 42.888 248.639 43 249.049 43.224C249.469 43.4387 249.81 43.7373 250.071 44.12V43H251.121V49.79C251.121 50.7887 250.832 51.554 250.253 52.086C249.684 52.618 248.872 52.884 247.817 52.884ZM247.705 49.048C248.219 49.048 248.653 48.9313 249.007 48.698C249.371 48.4647 249.647 48.152 249.833 47.76C250.029 47.3587 250.127 46.92 250.127 46.444C250.127 45.9587 250.029 45.52 249.833 45.128C249.647 44.736 249.371 44.4233 249.007 44.19C248.653 43.9567 248.219 43.84 247.705 43.84C247.192 43.84 246.749 43.9567 246.375 44.19C246.002 44.4233 245.717 44.736 245.521 45.128C245.325 45.52 245.227 45.9587 245.227 46.444C245.227 46.92 245.325 47.3587 245.521 47.76C245.717 48.152 246.002 48.4647 246.375 48.698C246.749 48.9313 247.192 49.048 247.705 49.048ZM252.797 46.374V45.352H256.297V46.374H252.797ZM258.465 50V43.924H257.037V43H258.465V40.494H259.515V43H261.125V43.924H259.515V50H258.465ZM265.093 50.112C264.411 50.112 263.814 49.9533 263.301 49.636C262.797 49.3093 262.405 48.8707 262.125 48.32C261.845 47.7693 261.705 47.1627 261.705 46.5C261.705 45.828 261.845 45.2213 262.125 44.68C262.405 44.1293 262.797 43.6953 263.301 43.378C263.814 43.0513 264.411 42.888 265.093 42.888C265.671 42.888 266.166 43 266.577 43.224C266.997 43.448 267.337 43.7513 267.599 44.134V43H268.649V50H267.599V48.88C267.337 49.2533 266.997 49.552 266.577 49.776C266.166 50 265.671 50.112 265.093 50.112ZM265.233 49.16C265.755 49.16 266.194 49.0387 266.549 48.796C266.913 48.5533 267.188 48.2313 267.375 47.83C267.561 47.4193 267.655 46.976 267.655 46.5C267.655 46.0147 267.561 45.5713 267.375 45.17C267.188 44.7687 266.913 44.4467 266.549 44.204C266.194 43.9613 265.755 43.84 265.233 43.84C264.719 43.84 264.276 43.9613 263.903 44.204C263.529 44.4467 263.245 44.7687 263.049 45.17C262.853 45.5713 262.755 46.0147 262.755 46.5C262.755 46.976 262.853 47.4193 263.049 47.83C263.245 48.2313 263.529 48.5533 263.903 48.796C264.276 49.0387 264.719 49.16 265.233 49.16ZM270.423 41.824V40.452H271.557V41.824H270.423ZM270.465 50V43H271.515V50H270.465ZM273.336 50V40.2H274.386V50H273.336ZM279.245 50.112C278.536 50.112 277.92 49.9533 277.397 49.636C276.874 49.3093 276.473 48.8707 276.193 48.32C275.913 47.7693 275.773 47.1627 275.773 46.5C275.773 45.828 275.913 45.2213 276.193 44.68C276.473 44.1293 276.874 43.6953 277.397 43.378C277.92 43.0513 278.536 42.888 279.245 42.888C279.964 42.888 280.58 43.0513 281.093 43.378C281.616 43.6953 282.017 44.1293 282.297 44.68C282.577 45.2213 282.717 45.828 282.717 46.5C282.717 47.1627 282.577 47.7693 282.297 48.32C282.017 48.8707 281.616 49.3093 281.093 49.636C280.58 49.9533 279.964 50.112 279.245 50.112ZM279.245 49.16C279.768 49.16 280.206 49.0387 280.561 48.796C280.925 48.5533 281.2 48.2313 281.387 47.83C281.574 47.4193 281.667 46.976 281.667 46.5C281.667 46.0147 281.574 45.5713 281.387 45.17C281.2 44.7687 280.925 44.4467 280.561 44.204C280.206 43.9613 279.768 43.84 279.245 43.84C278.732 43.84 278.293 43.9613 277.929 44.204C277.565 44.4467 277.29 44.7687 277.103 45.17C276.916 45.5713 276.823 46.0147 276.823 46.5C276.823 46.976 276.916 47.4193 277.103 47.83C277.29 48.2313 277.565 48.5533 277.929 48.796C278.293 49.0387 278.732 49.16 279.245 49.16ZM284.109 50V43H285.159V44.722C285.197 44.6007 285.267 44.442 285.369 44.246C285.481 44.0407 285.64 43.8353 285.845 43.63C286.051 43.4247 286.307 43.252 286.615 43.112C286.933 42.9627 287.306 42.888 287.735 42.888H287.805V43.938H287.679C287.157 43.938 286.704 44.0827 286.321 44.372C285.948 44.652 285.659 45.0207 285.453 45.478C285.257 45.926 285.159 46.4067 285.159 46.92V50H284.109ZM291.866 50.112C291.156 50.112 290.536 49.9533 290.004 49.636C289.472 49.3093 289.056 48.8707 288.758 48.32C288.468 47.7693 288.324 47.1627 288.324 46.5C288.324 45.828 288.464 45.2213 288.744 44.68C289.024 44.1293 289.425 43.6953 289.948 43.378C290.47 43.0513 291.086 42.888 291.796 42.888C292.514 42.888 293.13 43.0513 293.644 43.378C294.166 43.6953 294.568 44.1293 294.848 44.68C295.128 45.2213 295.268 45.828 295.268 46.5V46.92H289.402C289.458 47.3307 289.588 47.7087 289.794 48.054C290.008 48.39 290.293 48.6607 290.648 48.866C291.002 49.062 291.413 49.16 291.88 49.16C292.374 49.16 292.79 49.0527 293.126 48.838C293.462 48.614 293.723 48.3293 293.91 47.984H295.058C294.815 48.6093 294.428 49.1227 293.896 49.524C293.373 49.916 292.696 50.112 291.866 50.112ZM289.416 45.94H294.176C294.082 45.3427 293.83 44.8433 293.42 44.442C293.009 44.0407 292.468 43.84 291.796 43.84C291.124 43.84 290.582 44.0407 290.172 44.442C289.77 44.8433 289.518 45.3427 289.416 45.94ZM299.505 50.112C298.823 50.112 298.226 49.9533 297.713 49.636C297.209 49.3093 296.817 48.8707 296.537 48.32C296.257 47.7693 296.117 47.1627 296.117 46.5C296.117 45.828 296.257 45.2213 296.537 44.68C296.817 44.1293 297.209 43.6953 297.713 43.378C298.226 43.0513 298.823 42.888 299.505 42.888C300.083 42.888 300.578 43 300.989 43.224C301.409 43.448 301.749 43.7513 302.011 44.134V40.2H303.061V50H302.011V48.88C301.749 49.2533 301.409 49.552 300.989 49.776C300.578 50 300.083 50.112 299.505 50.112ZM299.645 49.16C300.167 49.16 300.606 49.0387 300.961 48.796C301.325 48.5533 301.6 48.2313 301.787 47.83C301.973 47.4193 302.067 46.976 302.067 46.5C302.067 46.0147 301.973 45.5713 301.787 45.17C301.6 44.7687 301.325 44.4467 300.961 44.204C300.606 43.9613 300.167 43.84 299.645 43.84C299.131 43.84 298.688 43.9613 298.315 44.204C297.941 44.4467 297.657 44.7687 297.461 45.17C297.265 45.5713 297.167 46.0147 297.167 46.5C297.167 46.976 297.265 47.4193 297.461 47.83C297.657 48.2313 297.941 48.5533 298.315 48.796C298.688 49.0387 299.131 49.16 299.645 49.16ZM310.811 50.112C310.13 50.112 309.533 49.9533 309.019 49.636C308.515 49.3093 308.123 48.8707 307.843 48.32C307.563 47.7693 307.423 47.1627 307.423 46.5C307.423 45.828 307.563 45.2213 307.843 44.68C308.123 44.1293 308.515 43.6953 309.019 43.378C309.533 43.0513 310.13 42.888 310.811 42.888C311.39 42.888 311.885 43 312.295 43.224C312.715 43.448 313.056 43.7513 313.317 44.134V43H314.367V50H313.317V48.88C313.056 49.2533 312.715 49.552 312.295 49.776C311.885 50 311.39 50.112 310.811 50.112ZM310.951 49.16C311.474 49.16 311.913 49.0387 312.267 48.796C312.631 48.5533 312.907 48.2313 313.093 47.83C313.28 47.4193 313.373 46.976 313.373 46.5C313.373 46.0147 313.28 45.5713 313.093 45.17C312.907 44.7687 312.631 44.4467 312.267 44.204C311.913 43.9613 311.474 43.84 310.951 43.84C310.438 43.84 309.995 43.9613 309.621 44.204C309.248 44.4467 308.963 44.7687 308.767 45.17C308.571 45.5713 308.473 46.0147 308.473 46.5C308.473 46.976 308.571 47.4193 308.767 47.83C308.963 48.2313 309.248 48.5533 309.621 48.796C309.995 49.0387 310.438 49.16 310.951 49.16ZM318.731 50.112C318.087 50.112 317.541 50.0047 317.093 49.79C316.655 49.5753 316.319 49.2953 316.085 48.95C315.852 48.5953 315.721 48.2127 315.693 47.802H316.785C316.813 48.0353 316.893 48.264 317.023 48.488C317.163 48.7027 317.373 48.88 317.653 49.02C317.933 49.1507 318.297 49.216 318.745 49.216C318.885 49.216 319.058 49.202 319.263 49.174C319.469 49.146 319.665 49.0947 319.851 49.02C320.047 48.9453 320.211 48.8333 320.341 48.684C320.472 48.5347 320.537 48.3433 320.537 48.11C320.537 47.8207 320.425 47.5967 320.201 47.438C319.977 47.2793 319.688 47.158 319.333 47.074C318.979 46.9807 318.601 46.892 318.199 46.808C317.807 46.724 317.434 46.6167 317.079 46.486C316.725 46.346 316.435 46.1547 316.211 45.912C315.987 45.66 315.875 45.3193 315.875 44.89C315.875 44.2553 316.104 43.7653 316.561 43.42C317.028 43.0653 317.714 42.888 318.619 42.888C319.235 42.888 319.735 42.986 320.117 43.182C320.509 43.3687 320.803 43.6113 320.999 43.91C321.205 44.2087 321.326 44.5307 321.363 44.876H320.299C320.262 44.5773 320.113 44.3207 319.851 44.106C319.599 43.8913 319.179 43.784 318.591 43.784C317.481 43.784 316.925 44.12 316.925 44.792C316.925 45.072 317.037 45.2867 317.261 45.436C317.485 45.5853 317.775 45.7067 318.129 45.8C318.484 45.884 318.857 45.968 319.249 46.052C319.651 46.1267 320.029 46.234 320.383 46.374C320.738 46.514 321.027 46.7147 321.251 46.976C321.475 47.228 321.587 47.5733 321.587 48.012C321.587 48.6933 321.326 49.216 320.803 49.58C320.29 49.9347 319.599 50.112 318.731 50.112ZM325.485 50.112C324.841 50.112 324.295 50.0047 323.847 49.79C323.409 49.5753 323.073 49.2953 322.839 48.95C322.606 48.5953 322.475 48.2127 322.447 47.802H323.539C323.567 48.0353 323.647 48.264 323.777 48.488C323.917 48.7027 324.127 48.88 324.407 49.02C324.687 49.1507 325.051 49.216 325.499 49.216C325.639 49.216 325.812 49.202 326.017 49.174C326.223 49.146 326.419 49.0947 326.605 49.02C326.801 48.9453 326.965 48.8333 327.095 48.684C327.226 48.5347 327.291 48.3433 327.291 48.11C327.291 47.8207 327.179 47.5967 326.955 47.438C326.731 47.2793 326.442 47.158 326.087 47.074C325.733 46.9807 325.355 46.892 324.953 46.808C324.561 46.724 324.188 46.6167 323.833 46.486C323.479 46.346 323.189 46.1547 322.965 45.912C322.741 45.66 322.629 45.3193 322.629 44.89C322.629 44.2553 322.858 43.7653 323.315 43.42C323.782 43.0653 324.468 42.888 325.373 42.888C325.989 42.888 326.489 42.986 326.871 43.182C327.263 43.3687 327.557 43.6113 327.753 43.91C327.959 44.2087 328.08 44.5307 328.117 44.876H327.053C327.016 44.5773 326.867 44.3207 326.605 44.106C326.353 43.8913 325.933 43.784 325.345 43.784C324.235 43.784 323.679 44.12 323.679 44.792C323.679 45.072 323.791 45.2867 324.015 45.436C324.239 45.5853 324.529 45.7067 324.883 45.8C325.238 45.884 325.611 45.968 326.003 46.052C326.405 46.1267 326.783 46.234 327.137 46.374C327.492 46.514 327.781 46.7147 328.005 46.976C328.229 47.228 328.341 47.5733 328.341 48.012C328.341 48.6933 328.08 49.216 327.557 49.58C327.044 49.9347 326.353 50.112 325.485 50.112ZM332.799 50.112C332.09 50.112 331.469 49.9533 330.937 49.636C330.405 49.3093 329.99 48.8707 329.691 48.32C329.402 47.7693 329.257 47.1627 329.257 46.5C329.257 45.828 329.397 45.2213 329.677 44.68C329.957 44.1293 330.359 43.6953 330.881 43.378C331.404 43.0513 332.02 42.888 332.729 42.888C333.448 42.888 334.064 43.0513 334.577 43.378C335.1 43.6953 335.501 44.1293 335.781 44.68C336.061 45.2213 336.201 45.828 336.201 46.5V46.92H330.335C330.391 47.3307 330.522 47.7087 330.727 48.054C330.942 48.39 331.227 48.6607 331.581 48.866C331.936 49.062 332.347 49.16 332.813 49.16C333.308 49.16 333.723 49.0527 334.059 48.838C334.395 48.614 334.657 48.3293 334.843 47.984H335.991C335.749 48.6093 335.361 49.1227 334.829 49.524C334.307 49.916 333.63 50.112 332.799 50.112ZM330.349 45.94H335.109C335.016 45.3427 334.764 44.8433 334.353 44.442C333.943 44.0407 333.401 43.84 332.729 43.84C332.057 43.84 331.516 44.0407 331.105 44.442C330.704 44.8433 330.452 45.3427 330.349 45.94ZM338.24 50V43.924H336.812V43H338.24V40.494H339.29V43H340.9V43.924H339.29V50H338.24ZM344.599 50.112C343.955 50.112 343.409 50.0047 342.961 49.79C342.522 49.5753 342.186 49.2953 341.953 48.95C341.719 48.5953 341.589 48.2127 341.561 47.802H342.653C342.681 48.0353 342.76 48.264 342.891 48.488C343.031 48.7027 343.241 48.88 343.521 49.02C343.801 49.1507 344.165 49.216 344.613 49.216C344.753 49.216 344.925 49.202 345.131 49.174C345.336 49.146 345.532 49.0947 345.719 49.02C345.915 48.9453 346.078 48.8333 346.209 48.684C346.339 48.5347 346.405 48.3433 346.405 48.11C346.405 47.8207 346.293 47.5967 346.069 47.438C345.845 47.2793 345.555 47.158 345.201 47.074C344.846 46.9807 344.468 46.892 344.067 46.808C343.675 46.724 343.301 46.6167 342.947 46.486C342.592 46.346 342.303 46.1547 342.079 45.912C341.855 45.66 341.743 45.3193 341.743 44.89C341.743 44.2553 341.971 43.7653 342.429 43.42C342.895 43.0653 343.581 42.888 344.487 42.888C345.103 42.888 345.602 42.986 345.985 43.182C346.377 43.3687 346.671 43.6113 346.867 43.91C347.072 44.2087 347.193 44.5307 347.231 44.876H346.167C346.129 44.5773 345.98 44.3207 345.719 44.106C345.467 43.8913 345.047 43.784 344.459 43.784C343.348 43.784 342.793 44.12 342.793 44.792C342.793 45.072 342.905 45.2867 343.129 45.436C343.353 45.5853 343.642 45.7067 343.997 45.8C344.351 45.884 344.725 45.968 345.117 46.052C345.518 46.1267 345.896 46.234 346.251 46.374C346.605 46.514 346.895 46.7147 347.119 46.976C347.343 47.228 347.455 47.5733 347.455 48.012C347.455 48.6933 347.193 49.216 346.671 49.58C346.157 49.9347 345.467 50.112 344.599 50.112ZM171.584 64.112C170.996 64.112 170.506 64 170.114 63.776C169.722 63.552 169.414 63.2673 169.19 62.922C168.975 62.5673 168.826 62.208 168.742 61.844H169.918C169.983 62.04 170.077 62.236 170.198 62.432C170.329 62.6187 170.506 62.7773 170.73 62.908C170.954 63.0293 171.239 63.09 171.584 63.09C172.163 63.09 172.629 62.922 172.984 62.586C173.348 62.25 173.614 61.7973 173.782 61.228C173.959 60.6587 174.048 60.024 174.048 59.324C173.824 59.7067 173.493 60.024 173.054 60.276C172.625 60.5187 172.149 60.64 171.626 60.64C171.047 60.64 170.515 60.514 170.03 60.262C169.554 60.0007 169.176 59.646 168.896 59.198C168.616 58.7407 168.476 58.218 168.476 57.63C168.476 57.0513 168.621 56.538 168.91 56.09C169.199 55.6327 169.587 55.2733 170.072 55.012C170.557 54.7507 171.089 54.62 171.668 54.62C172.797 54.62 173.651 55.0307 174.23 55.852C174.809 56.6733 175.098 57.8447 175.098 59.366C175.098 60.8313 174.804 61.9887 174.216 62.838C173.628 63.6873 172.751 64.112 171.584 64.112ZM171.668 59.646C172.06 59.646 172.419 59.5667 172.746 59.408C173.073 59.24 173.329 59.0113 173.516 58.722C173.712 58.4233 173.81 58.0827 173.81 57.7C173.81 57.2893 173.712 56.93 173.516 56.622C173.329 56.314 173.073 56.076 172.746 55.908C172.429 55.7307 172.069 55.642 171.668 55.642C171.276 55.642 170.917 55.726 170.59 55.894C170.273 56.062 170.016 56.2953 169.82 56.594C169.624 56.8927 169.526 57.238 169.526 57.63C169.526 58.0127 169.624 58.358 169.82 58.666C170.016 58.9647 170.273 59.2027 170.59 59.38C170.917 59.5573 171.276 59.646 171.668 59.646ZM179.547 64.112C178.455 64.112 177.639 63.7107 177.097 62.908C176.565 62.096 176.299 60.9153 176.299 59.366C176.299 57.8167 176.565 56.6407 177.097 55.838C177.639 55.026 178.455 54.62 179.547 54.62C180.182 54.6293 180.709 54.7693 181.129 55.04C181.549 55.3013 181.881 55.656 182.123 56.104C182.366 56.552 182.539 57.056 182.641 57.616C182.744 58.176 182.795 58.7593 182.795 59.366C182.795 60.9153 182.525 62.096 181.983 62.908C181.451 63.7107 180.639 64.112 179.547 64.112ZM179.547 63.09C180.023 63.0807 180.406 62.964 180.695 62.74C180.985 62.516 181.204 62.222 181.353 61.858C181.512 61.494 181.615 61.0973 181.661 60.668C181.717 60.2293 181.745 59.7953 181.745 59.366C181.745 58.1247 181.573 57.196 181.227 56.58C180.882 55.9547 180.322 55.642 179.547 55.642C178.782 55.642 178.222 55.9547 177.867 56.58C177.522 57.196 177.349 58.1247 177.349 59.366C177.349 60.6073 177.522 61.5407 177.867 62.166C178.222 62.782 178.782 63.09 179.547 63.09ZM187.145 60.374V59.352H190.645V60.374H187.145ZM195.27 64V55.74H193.31V54.732H196.32V64H195.27ZM202.967 64.112C201.875 64.112 201.059 63.7107 200.517 62.908C199.985 62.096 199.719 60.9153 199.719 59.366C199.719 57.8167 199.985 56.6407 200.517 55.838C201.059 55.026 201.875 54.62 202.967 54.62C203.602 54.6293 204.129 54.7693 204.549 55.04C204.969 55.3013 205.301 55.656 205.543 56.104C205.786 56.552 205.959 57.056 206.061 57.616C206.164 58.176 206.215 58.7593 206.215 59.366C206.215 60.9153 205.945 62.096 205.403 62.908C204.871 63.7107 204.059 64.112 202.967 64.112ZM202.967 63.09C203.443 63.0807 203.826 62.964 204.115 62.74C204.405 62.516 204.624 62.222 204.773 61.858C204.932 61.494 205.035 61.0973 205.081 60.668C205.137 60.2293 205.165 59.7953 205.165 59.366C205.165 58.1247 204.993 57.196 204.647 56.58C204.302 55.9547 203.742 55.642 202.967 55.642C202.202 55.642 201.642 55.9547 201.287 56.58C200.942 57.196 200.769 58.1247 200.769 59.366C200.769 60.6073 200.942 61.5407 201.287 62.166C201.642 62.782 202.202 63.09 202.967 63.09ZM210.664 64.112C209.572 64.112 208.756 63.7107 208.214 62.908C207.682 62.096 207.416 60.9153 207.416 59.366C207.416 57.8167 207.682 56.6407 208.214 55.838C208.756 55.026 209.572 54.62 210.664 54.62C211.299 54.6293 211.826 54.7693 212.246 55.04C212.666 55.3013 212.998 55.656 213.24 56.104C213.483 56.552 213.656 57.056 213.758 57.616C213.861 58.176 213.912 58.7593 213.912 59.366C213.912 60.9153 213.642 62.096 213.1 62.908C212.568 63.7107 211.756 64.112 210.664 64.112ZM210.664 63.09C211.14 63.0807 211.523 62.964 211.812 62.74C212.102 62.516 212.321 62.222 212.47 61.858C212.629 61.494 212.732 61.0973 212.778 60.668C212.834 60.2293 212.862 59.7953 212.862 59.366C212.862 58.1247 212.69 57.196 212.344 56.58C211.999 55.9547 211.439 55.642 210.664 55.642C209.899 55.642 209.339 55.9547 208.984 56.58C208.639 57.196 208.466 58.1247 208.466 59.366C208.466 60.6073 208.639 61.5407 208.984 62.166C209.339 62.782 209.899 63.09 210.664 63.09ZM216.766 64.168L223.192 54.62H224.074L217.648 64.168H216.766ZM217.2 59.968C216.546 59.968 216.033 59.744 215.66 59.296C215.286 58.8387 215.1 58.1807 215.1 57.322C215.1 56.454 215.286 55.796 215.66 55.348C216.033 54.8907 216.546 54.662 217.2 54.662C217.704 54.6713 218.11 54.802 218.418 55.054C218.726 55.306 218.95 55.6327 219.09 56.034C219.23 56.4353 219.3 56.8647 219.3 57.322C219.3 58.1807 219.108 58.8387 218.726 59.296C218.352 59.744 217.844 59.968 217.2 59.968ZM217.2 59.17C217.517 59.1607 217.764 59.0627 217.942 58.876C218.119 58.6893 218.245 58.456 218.32 58.176C218.394 57.8867 218.432 57.602 218.432 57.322C218.432 56.706 218.32 56.244 218.096 55.936C217.881 55.628 217.582 55.474 217.2 55.474C216.808 55.474 216.5 55.628 216.276 55.936C216.061 56.244 215.954 56.706 215.954 57.322C215.954 57.938 216.061 58.4 216.276 58.708C216.5 59.016 216.808 59.17 217.2 59.17ZM223.654 64.112C223 64.112 222.487 63.888 222.114 63.44C221.74 62.9827 221.554 62.3247 221.554 61.466C221.554 60.598 221.74 59.94 222.114 59.492C222.487 59.0347 223 58.806 223.654 58.806C224.158 58.8153 224.564 58.946 224.872 59.198C225.18 59.45 225.404 59.7767 225.544 60.178C225.684 60.5793 225.754 61.0087 225.754 61.466C225.754 62.3247 225.562 62.9827 225.18 63.44C224.806 63.888 224.298 64.112 223.654 64.112ZM223.654 63.314C223.971 63.3047 224.218 63.2067 224.396 63.02C224.573 62.8333 224.699 62.6 224.774 62.32C224.848 62.0307 224.886 61.746 224.886 61.466C224.886 60.85 224.774 60.388 224.55 60.08C224.335 59.772 224.036 59.618 223.654 59.618C223.262 59.618 222.954 59.772 222.73 60.08C222.515 60.388 222.408 60.85 222.408 61.466C222.408 62.082 222.515 62.544 222.73 62.852C222.954 63.16 223.262 63.314 223.654 63.314ZM173.082 92.112C172.139 92.112 171.327 91.902 170.646 91.482C169.974 91.0527 169.456 90.4787 169.092 89.76C168.728 89.0413 168.546 88.2433 168.546 87.366C168.546 86.4887 168.733 85.6907 169.106 84.972C169.479 84.2533 170.007 83.684 170.688 83.264C171.379 82.8347 172.186 82.62 173.11 82.62C174.109 82.62 174.972 82.8673 175.7 83.362C176.437 83.8473 176.979 84.4773 177.324 85.252H176.176C175.896 84.7573 175.504 84.3653 175 84.076C174.505 83.7867 173.903 83.642 173.194 83.642C172.447 83.642 171.803 83.81 171.262 84.146C170.721 84.4727 170.305 84.916 170.016 85.476C169.736 86.036 169.596 86.666 169.596 87.366C169.596 88.0567 169.736 88.6867 170.016 89.256C170.296 89.816 170.702 90.264 171.234 90.6C171.775 90.9267 172.419 91.09 173.166 91.09C173.726 91.09 174.253 90.9687 174.748 90.726C175.252 90.4833 175.658 90.1333 175.966 89.676C176.283 89.2187 176.442 88.668 176.442 88.024H173.054V87.072H177.408V92H176.442V90.362C176.246 90.6607 175.994 90.9453 175.686 91.216C175.378 91.4773 175.005 91.692 174.566 91.86C174.137 92.028 173.642 92.112 173.082 92.112ZM179.027 92V85H180.077V86.722C180.115 86.6007 180.185 86.442 180.287 86.246C180.399 86.0407 180.558 85.8353 180.763 85.63C180.969 85.4247 181.225 85.252 181.533 85.112C181.851 84.9627 182.224 84.888 182.653 84.888H182.723V85.938H182.597C182.075 85.938 181.622 86.0827 181.239 86.372C180.866 86.652 180.577 87.0207 180.371 87.478C180.175 87.926 180.077 88.4067 180.077 88.92V92H179.027ZM186.714 92.112C186.004 92.112 185.388 91.9533 184.866 91.636C184.343 91.3093 183.942 90.8707 183.662 90.32C183.382 89.7693 183.242 89.1627 183.242 88.5C183.242 87.828 183.382 87.2213 183.662 86.68C183.942 86.1293 184.343 85.6953 184.866 85.378C185.388 85.0513 186.004 84.888 186.714 84.888C187.432 84.888 188.048 85.0513 188.562 85.378C189.084 85.6953 189.486 86.1293 189.766 86.68C190.046 87.2213 190.186 87.828 190.186 88.5C190.186 89.1627 190.046 89.7693 189.766 90.32C189.486 90.8707 189.084 91.3093 188.562 91.636C188.048 91.9533 187.432 92.112 186.714 92.112ZM186.714 91.16C187.236 91.16 187.675 91.0387 188.03 90.796C188.394 90.5533 188.669 90.2313 188.856 89.83C189.042 89.4193 189.136 88.976 189.136 88.5C189.136 88.0147 189.042 87.5713 188.856 87.17C188.669 86.7687 188.394 86.4467 188.03 86.204C187.675 85.9613 187.236 85.84 186.714 85.84C186.2 85.84 185.762 85.9613 185.398 86.204C185.034 86.4467 184.758 86.7687 184.572 87.17C184.385 87.5713 184.292 88.0147 184.292 88.5C184.292 88.976 184.385 89.4193 184.572 89.83C184.758 90.2313 185.034 90.5533 185.398 90.796C185.762 91.0387 186.2 91.16 186.714 91.16ZM192.799 92L190.601 85H191.721L193.401 90.698L195.179 85H196.327L198.105 90.698L199.785 85H200.905L198.707 92H197.503L195.753 86.414L194.003 92H192.799ZM202.643 92V85.924H201.215V85H202.643V82.494H203.693V85H205.303V85.924H203.693V92H202.643ZM206.453 92V82.2H207.503V86.092C207.755 85.756 208.063 85.4713 208.427 85.238C208.791 85.0047 209.258 84.888 209.827 84.888C210.312 84.888 210.765 85.0047 211.185 85.238C211.614 85.462 211.96 85.8027 212.221 86.26C212.492 86.708 212.627 87.2633 212.627 87.926V92H211.577V87.954C211.577 87.3193 211.395 86.8107 211.031 86.428C210.667 86.036 210.196 85.84 209.617 85.84C209.225 85.84 208.87 85.9287 208.553 86.106C208.236 86.2833 207.979 86.5353 207.783 86.862C207.596 87.1793 207.503 87.548 207.503 87.968V92H206.453ZM214.243 88.374V87.352H217.743V88.374H214.243ZM219.91 92V85.924H218.482V85H219.91V82.494H220.96V85H222.57V85.924H220.96V92H219.91ZM223.721 92V85H224.771V86.722C224.808 86.6007 224.878 86.442 224.981 86.246C225.093 86.0407 225.251 85.8353 225.457 85.63C225.662 85.4247 225.919 85.252 226.227 85.112C226.544 84.9627 226.917 84.888 227.347 84.888H227.417V85.938H227.291C226.768 85.938 226.315 86.0827 225.933 86.372C225.559 86.652 225.27 87.0207 225.065 87.478C224.869 87.926 224.771 88.4067 224.771 88.92V92H223.721ZM231.323 92.112C230.642 92.112 230.044 91.9533 229.531 91.636C229.027 91.3093 228.635 90.8707 228.355 90.32C228.075 89.7693 227.935 89.1627 227.935 88.5C227.935 87.828 228.075 87.2213 228.355 86.68C228.635 86.1293 229.027 85.6953 229.531 85.378C230.044 85.0513 230.642 84.888 231.323 84.888C231.902 84.888 232.396 85 232.807 85.224C233.227 85.448 233.568 85.7513 233.829 86.134V85H234.879V92H233.829V90.88C233.568 91.2533 233.227 91.552 232.807 91.776C232.396 92 231.902 92.112 231.323 92.112ZM231.463 91.16C231.986 91.16 232.424 91.0387 232.779 90.796C233.143 90.5533 233.418 90.2313 233.605 89.83C233.792 89.4193 233.885 88.976 233.885 88.5C233.885 88.0147 233.792 87.5713 233.605 87.17C233.418 86.7687 233.143 86.4467 232.779 86.204C232.424 85.9613 231.986 85.84 231.463 85.84C230.95 85.84 230.506 85.9613 230.133 86.204C229.76 86.4467 229.475 86.7687 229.279 87.17C229.083 87.5713 228.985 88.0147 228.985 88.5C228.985 88.976 229.083 89.4193 229.279 89.83C229.475 90.2313 229.76 90.5533 230.133 90.796C230.506 91.0387 230.95 91.16 231.463 91.16ZM236.653 83.824V82.452H237.787V83.824H236.653ZM236.695 92V85H237.745V92H236.695ZM239.566 92V82.2H240.616V92H239.566ZM245.475 92.112C244.766 92.112 244.15 91.9533 243.627 91.636C243.105 91.3093 242.703 90.8707 242.423 90.32C242.143 89.7693 242.003 89.1627 242.003 88.5C242.003 87.828 242.143 87.2213 242.423 86.68C242.703 86.1293 243.105 85.6953 243.627 85.378C244.15 85.0513 244.766 84.888 245.475 84.888C246.194 84.888 246.81 85.0513 247.323 85.378C247.846 85.6953 248.247 86.1293 248.527 86.68C248.807 87.2213 248.947 87.828 248.947 88.5C248.947 89.1627 248.807 89.7693 248.527 90.32C248.247 90.8707 247.846 91.3093 247.323 91.636C246.81 91.9533 246.194 92.112 245.475 92.112ZM245.475 91.16C245.998 91.16 246.437 91.0387 246.791 90.796C247.155 90.5533 247.431 90.2313 247.617 89.83C247.804 89.4193 247.897 88.976 247.897 88.5C247.897 88.0147 247.804 87.5713 247.617 87.17C247.431 86.7687 247.155 86.4467 246.791 86.204C246.437 85.9613 245.998 85.84 245.475 85.84C244.962 85.84 244.523 85.9613 244.159 86.204C243.795 86.4467 243.52 86.7687 243.333 87.17C243.147 87.5713 243.053 88.0147 243.053 88.5C243.053 88.976 243.147 89.4193 243.333 89.83C243.52 90.2313 243.795 90.5533 244.159 90.796C244.523 91.0387 244.962 91.16 245.475 91.16ZM250.34 92V85H251.39V86.722C251.427 86.6007 251.497 86.442 251.6 86.246C251.712 86.0407 251.87 85.8353 252.076 85.63C252.281 85.4247 252.538 85.252 252.846 85.112C253.163 84.9627 253.536 84.888 253.966 84.888H254.036V85.938H253.91C253.387 85.938 252.934 86.0827 252.552 86.372C252.178 86.652 251.889 87.0207 251.684 87.478C251.488 87.926 251.39 88.4067 251.39 88.92V92H250.34ZM258.096 92.112C257.387 92.112 256.766 91.9533 256.234 91.636C255.702 91.3093 255.287 90.8707 254.988 90.32C254.699 89.7693 254.554 89.1627 254.554 88.5C254.554 87.828 254.694 87.2213 254.974 86.68C255.254 86.1293 255.655 85.6953 256.178 85.378C256.701 85.0513 257.317 84.888 258.026 84.888C258.745 84.888 259.361 85.0513 259.874 85.378C260.397 85.6953 260.798 86.1293 261.078 86.68C261.358 87.2213 261.498 87.828 261.498 88.5V88.92H255.632C255.688 89.3307 255.819 89.7087 256.024 90.054C256.239 90.39 256.523 90.6607 256.878 90.866C257.233 91.062 257.643 91.16 258.11 91.16C258.605 91.16 259.02 91.0527 259.356 90.838C259.692 90.614 259.953 90.3293 260.14 89.984H261.288C261.045 90.6093 260.658 91.1227 260.126 91.524C259.603 91.916 258.927 92.112 258.096 92.112ZM255.646 87.94H260.406C260.313 87.3427 260.061 86.8433 259.65 86.442C259.239 86.0407 258.698 85.84 258.026 85.84C257.354 85.84 256.813 86.0407 256.402 86.442C256.001 86.8433 255.749 87.3427 255.646 87.94ZM265.735 92.112C265.054 92.112 264.456 91.9533 263.943 91.636C263.439 91.3093 263.047 90.8707 262.767 90.32C262.487 89.7693 262.347 89.1627 262.347 88.5C262.347 87.828 262.487 87.2213 262.767 86.68C263.047 86.1293 263.439 85.6953 263.943 85.378C264.456 85.0513 265.054 84.888 265.735 84.888C266.314 84.888 266.808 85 267.219 85.224C267.639 85.448 267.98 85.7513 268.241 86.134V82.2H269.291V92H268.241V90.88C267.98 91.2533 267.639 91.552 267.219 91.776C266.808 92 266.314 92.112 265.735 92.112ZM265.875 91.16C266.398 91.16 266.836 91.0387 267.191 90.796C267.555 90.5533 267.83 90.2313 268.017 89.83C268.204 89.4193 268.297 88.976 268.297 88.5C268.297 88.0147 268.204 87.5713 268.017 87.17C267.83 86.7687 267.555 86.4467 267.191 86.204C266.836 85.9613 266.398 85.84 265.875 85.84C265.362 85.84 264.918 85.9613 264.545 86.204C264.172 86.4467 263.887 86.7687 263.691 87.17C263.495 87.5713 263.397 88.0147 263.397 88.5C263.397 88.976 263.495 89.4193 263.691 89.83C263.887 90.2313 264.172 90.5533 264.545 90.796C264.918 91.0387 265.362 91.16 265.875 91.16ZM277.042 92.112C276.36 92.112 275.763 91.9533 275.25 91.636C274.746 91.3093 274.354 90.8707 274.074 90.32C273.794 89.7693 273.654 89.1627 273.654 88.5C273.654 87.828 273.794 87.2213 274.074 86.68C274.354 86.1293 274.746 85.6953 275.25 85.378C275.763 85.0513 276.36 84.888 277.042 84.888C277.62 84.888 278.115 85 278.526 85.224C278.946 85.448 279.286 85.7513 279.548 86.134V85H280.598V92H279.548V90.88C279.286 91.2533 278.946 91.552 278.526 91.776C278.115 92 277.62 92.112 277.042 92.112ZM277.182 91.16C277.704 91.16 278.143 91.0387 278.498 90.796C278.862 90.5533 279.137 90.2313 279.324 89.83C279.51 89.4193 279.604 88.976 279.604 88.5C279.604 88.0147 279.51 87.5713 279.324 87.17C279.137 86.7687 278.862 86.4467 278.498 86.204C278.143 85.9613 277.704 85.84 277.182 85.84C276.668 85.84 276.225 85.9613 275.852 86.204C275.478 86.4467 275.194 86.7687 274.998 87.17C274.802 87.5713 274.704 88.0147 274.704 88.5C274.704 88.976 274.802 89.4193 274.998 89.83C275.194 90.2313 275.478 90.5533 275.852 90.796C276.225 91.0387 276.668 91.16 277.182 91.16ZM284.962 92.112C284.318 92.112 283.772 92.0047 283.324 91.79C282.885 91.5753 282.549 91.2953 282.316 90.95C282.083 90.5953 281.952 90.2127 281.924 89.802H283.016C283.044 90.0353 283.123 90.264 283.254 90.488C283.394 90.7027 283.604 90.88 283.884 91.02C284.164 91.1507 284.528 91.216 284.976 91.216C285.116 91.216 285.289 91.202 285.494 91.174C285.699 91.146 285.895 91.0947 286.082 91.02C286.278 90.9453 286.441 90.8333 286.572 90.684C286.703 90.5347 286.768 90.3433 286.768 90.11C286.768 89.8207 286.656 89.5967 286.432 89.438C286.208 89.2793 285.919 89.158 285.564 89.074C285.209 88.9807 284.831 88.892 284.43 88.808C284.038 88.724 283.665 88.6167 283.31 88.486C282.955 88.346 282.666 88.1547 282.442 87.912C282.218 87.66 282.106 87.3193 282.106 86.89C282.106 86.2553 282.335 85.7653 282.792 85.42C283.259 85.0653 283.945 84.888 284.85 84.888C285.466 84.888 285.965 84.986 286.348 85.182C286.74 85.3687 287.034 85.6113 287.23 85.91C287.435 86.2087 287.557 86.5307 287.594 86.876H286.53C286.493 86.5773 286.343 86.3207 286.082 86.106C285.83 85.8913 285.41 85.784 284.822 85.784C283.711 85.784 283.156 86.12 283.156 86.792C283.156 87.072 283.268 87.2867 283.492 87.436C283.716 87.5853 284.005 87.7067 284.36 87.8C284.715 87.884 285.088 87.968 285.48 88.052C285.881 88.1267 286.259 88.234 286.614 88.374C286.969 88.514 287.258 88.7147 287.482 88.976C287.706 89.228 287.818 89.5733 287.818 90.012C287.818 90.6933 287.557 91.216 287.034 91.58C286.521 91.9347 285.83 92.112 284.962 92.112ZM291.716 92.112C291.072 92.112 290.526 92.0047 290.078 91.79C289.639 91.5753 289.303 91.2953 289.07 90.95C288.836 90.5953 288.706 90.2127 288.678 89.802H289.77C289.798 90.0353 289.877 90.264 290.008 90.488C290.148 90.7027 290.358 90.88 290.638 91.02C290.918 91.1507 291.282 91.216 291.73 91.216C291.87 91.216 292.042 91.202 292.248 91.174C292.453 91.146 292.649 91.0947 292.836 91.02C293.032 90.9453 293.195 90.8333 293.326 90.684C293.456 90.5347 293.522 90.3433 293.522 90.11C293.522 89.8207 293.41 89.5967 293.186 89.438C292.962 89.2793 292.672 89.158 292.318 89.074C291.963 88.9807 291.585 88.892 291.184 88.808C290.792 88.724 290.418 88.6167 290.064 88.486C289.709 88.346 289.42 88.1547 289.196 87.912C288.972 87.66 288.86 87.3193 288.86 86.89C288.86 86.2553 289.088 85.7653 289.546 85.42C290.012 85.0653 290.698 84.888 291.604 84.888C292.22 84.888 292.719 84.986 293.102 85.182C293.494 85.3687 293.788 85.6113 293.984 85.91C294.189 86.2087 294.31 86.5307 294.348 86.876H293.284C293.246 86.5773 293.097 86.3207 292.836 86.106C292.584 85.8913 292.164 85.784 291.576 85.784C290.465 85.784 289.91 86.12 289.91 86.792C289.91 87.072 290.022 87.2867 290.246 87.436C290.47 87.5853 290.759 87.7067 291.114 87.8C291.468 87.884 291.842 87.968 292.234 88.052C292.635 88.1267 293.013 88.234 293.368 88.374C293.722 88.514 294.012 88.7147 294.236 88.976C294.46 89.228 294.572 89.5733 294.572 90.012C294.572 90.6933 294.31 91.216 293.788 91.58C293.274 91.9347 292.584 92.112 291.716 92.112ZM299.03 92.112C298.32 92.112 297.7 91.9533 297.168 91.636C296.636 91.3093 296.22 90.8707 295.922 90.32C295.632 89.7693 295.488 89.1627 295.488 88.5C295.488 87.828 295.628 87.2213 295.908 86.68C296.188 86.1293 296.589 85.6953 297.112 85.378C297.634 85.0513 298.25 84.888 298.96 84.888C299.678 84.888 300.294 85.0513 300.808 85.378C301.33 85.6953 301.732 86.1293 302.012 86.68C302.292 87.2213 302.432 87.828 302.432 88.5V88.92H296.566C296.622 89.3307 296.752 89.7087 296.958 90.054C297.172 90.39 297.457 90.6607 297.812 90.866C298.166 91.062 298.577 91.16 299.044 91.16C299.538 91.16 299.954 91.0527 300.29 90.838C300.626 90.614 300.887 90.3293 301.074 89.984H302.222C301.979 90.6093 301.592 91.1227 301.06 91.524C300.537 91.916 299.86 92.112 299.03 92.112ZM296.58 87.94H301.34C301.246 87.3427 300.994 86.8433 300.584 86.442C300.173 86.0407 299.632 85.84 298.96 85.84C298.288 85.84 297.746 86.0407 297.336 86.442C296.934 86.8433 296.682 87.3427 296.58 87.94ZM304.471 92V85.924H303.043V85H304.471V82.494H305.521V85H307.131V85.924H305.521V92H304.471ZM310.829 92.112C310.185 92.112 309.639 92.0047 309.191 91.79C308.752 91.5753 308.416 91.2953 308.183 90.95C307.95 90.5953 307.819 90.2127 307.791 89.802H308.883C308.911 90.0353 308.99 90.264 309.121 90.488C309.261 90.7027 309.471 90.88 309.751 91.02C310.031 91.1507 310.395 91.216 310.843 91.216C310.983 91.216 311.156 91.202 311.361 91.174C311.566 91.146 311.762 91.0947 311.949 91.02C312.145 90.9453 312.308 90.8333 312.439 90.684C312.57 90.5347 312.635 90.3433 312.635 90.11C312.635 89.8207 312.523 89.5967 312.299 89.438C312.075 89.2793 311.786 89.158 311.431 89.074C311.076 88.9807 310.698 88.892 310.297 88.808C309.905 88.724 309.532 88.6167 309.177 88.486C308.822 88.346 308.533 88.1547 308.309 87.912C308.085 87.66 307.973 87.3193 307.973 86.89C307.973 86.2553 308.202 85.7653 308.659 85.42C309.126 85.0653 309.812 84.888 310.717 84.888C311.333 84.888 311.832 84.986 312.215 85.182C312.607 85.3687 312.901 85.6113 313.097 85.91C313.302 86.2087 313.424 86.5307 313.461 86.876H312.397C312.36 86.5773 312.21 86.3207 311.949 86.106C311.697 85.8913 311.277 85.784 310.689 85.784C309.578 85.784 309.023 86.12 309.023 86.792C309.023 87.072 309.135 87.2867 309.359 87.436C309.583 87.5853 309.872 87.7067 310.227 87.8C310.582 87.884 310.955 87.968 311.347 88.052C311.748 88.1267 312.126 88.234 312.481 88.374C312.836 88.514 313.125 88.7147 313.349 88.976C313.573 89.228 313.685 89.5733 313.685 90.012C313.685 90.6933 313.424 91.216 312.901 91.58C312.388 91.9347 311.697 92.112 310.829 92.112ZM171.85 106.112C170.758 106.112 169.941 105.711 169.4 104.908C168.868 104.096 168.602 102.915 168.602 101.366C168.602 99.8167 168.868 98.6407 169.4 97.838C169.941 97.026 170.758 96.62 171.85 96.62C172.485 96.6293 173.012 96.7693 173.432 97.04C173.852 97.3013 174.183 97.656 174.426 98.104C174.669 98.552 174.841 99.056 174.944 99.616C175.047 100.176 175.098 100.759 175.098 101.366C175.098 102.915 174.827 104.096 174.286 104.908C173.754 105.711 172.942 106.112 171.85 106.112ZM171.85 105.09C172.326 105.081 172.709 104.964 172.998 104.74C173.287 104.516 173.507 104.222 173.656 103.858C173.815 103.494 173.917 103.097 173.964 102.668C174.02 102.229 174.048 101.795 174.048 101.366C174.048 100.125 173.875 99.196 173.53 98.58C173.185 97.9547 172.625 97.642 171.85 97.642C171.085 97.642 170.525 97.9547 170.17 98.58C169.825 99.196 169.652 100.125 169.652 101.366C169.652 102.607 169.825 103.541 170.17 104.166C170.525 104.782 171.085 105.09 171.85 105.09ZM179.448 102.374V101.352H182.948V102.374H179.448ZM187.573 106V97.74H185.613V96.732H188.623V106H187.573ZM195.27 106.112C194.178 106.112 193.361 105.711 192.82 104.908C192.288 104.096 192.022 102.915 192.022 101.366C192.022 99.8167 192.288 98.6407 192.82 97.838C193.361 97.026 194.178 96.62 195.27 96.62C195.905 96.6293 196.432 96.7693 196.852 97.04C197.272 97.3013 197.603 97.656 197.846 98.104C198.089 98.552 198.261 99.056 198.364 99.616C198.467 100.176 198.518 100.759 198.518 101.366C198.518 102.915 198.247 104.096 197.706 104.908C197.174 105.711 196.362 106.112 195.27 106.112ZM195.27 105.09C195.746 105.081 196.129 104.964 196.418 104.74C196.707 104.516 196.927 104.222 197.076 103.858C197.235 103.494 197.337 103.097 197.384 102.668C197.44 102.229 197.468 101.795 197.468 101.366C197.468 100.125 197.295 99.196 196.95 98.58C196.605 97.9547 196.045 97.642 195.27 97.642C194.505 97.642 193.945 97.9547 193.59 98.58C193.245 99.196 193.072 100.125 193.072 101.366C193.072 102.607 193.245 103.541 193.59 104.166C193.945 104.782 194.505 105.09 195.27 105.09ZM202.967 106.112C201.875 106.112 201.059 105.711 200.517 104.908C199.985 104.096 199.719 102.915 199.719 101.366C199.719 99.8167 199.985 98.6407 200.517 97.838C201.059 97.026 201.875 96.62 202.967 96.62C203.602 96.6293 204.129 96.7693 204.549 97.04C204.969 97.3013 205.301 97.656 205.543 98.104C205.786 98.552 205.959 99.056 206.061 99.616C206.164 100.176 206.215 100.759 206.215 101.366C206.215 102.915 205.945 104.096 205.403 104.908C204.871 105.711 204.059 106.112 202.967 106.112ZM202.967 105.09C203.443 105.081 203.826 104.964 204.115 104.74C204.405 104.516 204.624 104.222 204.773 103.858C204.932 103.494 205.035 103.097 205.081 102.668C205.137 102.229 205.165 101.795 205.165 101.366C205.165 100.125 204.993 99.196 204.647 98.58C204.302 97.9547 203.742 97.642 202.967 97.642C202.202 97.642 201.642 97.9547 201.287 98.58C200.942 99.196 200.769 100.125 200.769 101.366C200.769 102.607 200.942 103.541 201.287 104.166C201.642 104.782 202.202 105.09 202.967 105.09ZM209.068 106.168L215.494 96.62H216.376L209.95 106.168H209.068ZM209.502 101.968C208.849 101.968 208.336 101.744 207.962 101.296C207.589 100.839 207.402 100.181 207.402 99.322C207.402 98.454 207.589 97.796 207.962 97.348C208.336 96.8907 208.849 96.662 209.502 96.662C210.006 96.6713 210.412 96.802 210.72 97.054C211.028 97.306 211.252 97.6327 211.392 98.034C211.532 98.4353 211.602 98.8647 211.602 99.322C211.602 100.181 211.411 100.839 211.028 101.296C210.655 101.744 210.146 101.968 209.502 101.968ZM209.502 101.17C209.82 101.161 210.067 101.063 210.244 100.876C210.422 100.689 210.548 100.456 210.622 100.176C210.697 99.8867 210.734 99.602 210.734 99.322C210.734 98.706 210.622 98.244 210.398 97.936C210.184 97.628 209.885 97.474 209.502 97.474C209.11 97.474 208.802 97.628 208.578 97.936C208.364 98.244 208.256 98.706 208.256 99.322C208.256 99.938 208.364 100.4 208.578 100.708C208.802 101.016 209.11 101.17 209.502 101.17ZM215.956 106.112C215.303 106.112 214.79 105.888 214.416 105.44C214.043 104.983 213.856 104.325 213.856 103.466C213.856 102.598 214.043 101.94 214.416 101.492C214.79 101.035 215.303 100.806 215.956 100.806C216.46 100.815 216.866 100.946 217.174 101.198C217.482 101.45 217.706 101.777 217.846 102.178C217.986 102.579 218.056 103.009 218.056 103.466C218.056 104.325 217.865 104.983 217.482 105.44C217.109 105.888 216.6 106.112 215.956 106.112ZM215.956 105.314C216.274 105.305 216.521 105.207 216.698 105.02C216.876 104.833 217.002 104.6 217.076 104.32C217.151 104.031 217.188 103.746 217.188 103.466C217.188 102.85 217.076 102.388 216.852 102.08C216.638 101.772 216.339 101.618 215.956 101.618C215.564 101.618 215.256 101.772 215.032 102.08C214.818 102.388 214.71 102.85 214.71 103.466C214.71 104.082 214.818 104.544 215.032 104.852C215.256 105.16 215.564 105.314 215.956 105.314Z" fill="white"/>
<circle cx="156.5" cy="45.5" r="5.5" fill="#C5E16F"/>
<circle cx="156.5" cy="86.5" r="5.5" fill="#62BB46"/>
</svg>
