<svg width="248" height="54" viewBox="0 0 248 54" fill="none" xmlns="http://www.w3.org/2000/svg">
<path d="M49.6136 22.3622C53.9278 22.3622 56.5164 24.5912 56.5164 28.3302C56.5164 32.0692 53.9278 34.3702 49.6136 34.3702H46.7374V40.2663H43.2141V22.3622H49.6136ZM49.5417 31.0626C51.6269 31.0626 52.8493 30.0559 52.8493 28.4021C52.8493 26.7483 51.6269 25.7417 49.5417 25.7417H46.8093V31.0626H49.5417Z" fill="white"/>
<path d="M71.9043 36.9587V40.2663H59.1053V22.3622H71.7605V25.6698H62.6287V29.4807H69.8191V32.5726H62.6287V36.8868H71.9043V36.9587Z" fill="white"/>
<path d="M88.8016 22.3622V25.6698H83.1931V40.2663H79.6698V25.6698H74.0613V22.3622H88.8016Z" fill="white"/>
<path d="M101.313 40.2663L97.7896 34.1544C97.7177 34.1544 97.6458 34.1544 97.5739 34.1544H94.8415V40.2663H91.3182V22.3622H97.5739C101.96 22.3622 104.621 24.735 104.621 28.3302C104.621 30.775 103.398 32.5726 101.241 33.5073L105.34 40.2663H101.313ZM94.8415 30.9907H98.0053C99.9467 30.9907 100.881 29.6964 100.881 28.3302C100.881 26.8921 99.9467 25.6698 98.0053 25.6698H94.8415V30.9907Z" fill="white"/>
<path d="M115.694 22.0026C120.871 22.0026 125.041 25.8855 125.041 31.3502C125.041 36.8149 120.871 40.6977 115.694 40.6977C110.517 40.6977 106.418 36.8149 106.418 31.3502C106.418 25.8855 110.589 22.0026 115.694 22.0026ZM115.694 37.1744C119.001 37.1744 121.302 34.8016 121.302 31.3502C121.302 27.8988 119.001 25.5259 115.694 25.5259C112.386 25.5259 110.085 27.8988 110.085 31.3502C110.157 34.7297 112.458 37.1744 115.694 37.1744Z" fill="white"/>
<path d="M131.513 25.6698V30.0559H138.415V33.2916H131.513V40.2663H127.989V22.3622H140.429V25.6698H131.513Z" fill="white"/>
<path d="M158.477 22.3622V32.5006C158.477 37.7497 155.457 40.6258 150.711 40.6258C145.965 40.6258 142.945 37.7497 142.945 32.5006V22.3622H146.469V32.4287C146.469 35.7363 147.907 37.3182 150.639 37.3182C153.371 37.3182 154.809 35.8082 154.809 32.4287V22.3622H158.477Z" fill="white"/>
<path d="M177.603 22.3622V40.2663H174.224L169.118 33.3635C167.536 31.1345 165.523 28.3302 165.523 28.3302C165.523 28.3302 165.523 30.9188 165.523 34.4421V40.1944H162V22.3622H165.379L170.556 29.3369C171.779 30.9188 174.008 34.1545 174.08 34.1545C174.08 34.1545 174.08 31.2064 174.08 28.1864V22.2903H177.603V22.3622Z" fill="white"/>
<path d="M189.54 22.3622C194.645 22.3622 198.815 26.0293 198.815 31.4221C198.815 36.743 194.717 40.3382 189.611 40.3382H181.846V22.3622H189.54ZM189.611 36.9587C192.56 36.9587 195.148 34.8735 195.148 31.4221C195.148 27.9707 192.56 25.7417 189.54 25.7417H185.369V37.0306H189.611V36.9587Z" fill="white"/>
<path d="M214.562 36.9587V40.2663H201.763V22.3622H214.418V25.6698H205.286V29.4807H212.476V32.5726H205.286V36.8868H214.562V36.9587Z" fill="white"/>
<path d="M228.439 40.2663L224.916 34.1544C224.844 34.1544 224.772 34.1544 224.7 34.1544H221.968V40.2663H218.445V22.3622H224.7C229.086 22.3622 231.747 24.735 231.747 28.3302C231.747 30.775 230.524 32.5726 228.367 33.5073L232.466 40.2663H228.439ZM221.968 30.9907H225.132C227.073 30.9907 228.008 29.6964 228.008 28.3302C228.008 26.8921 227.073 25.6698 225.132 25.6698H221.968V30.9907Z" fill="white"/>
<path d="M244.115 27.8269C243.683 26.0293 242.173 25.0945 240.592 25.0945C238.938 25.0945 237.931 25.8855 237.931 26.964C237.931 28.4021 239.944 28.9055 242.173 29.6964C244.762 30.5593 247.782 31.9973 247.782 35.1611C247.782 38.3968 245.05 40.6258 240.951 40.6258C237.212 40.6258 234.623 38.4687 233.617 35.233L237.068 34.2983C237.428 35.8802 238.866 37.3901 241.095 37.3901C243.036 37.3901 244.043 36.4554 244.043 35.233C244.043 33.4354 241.598 33.004 239.082 32.0692C236.924 31.2783 234.264 30.1997 234.264 27.1079C234.264 24.3036 236.996 21.9308 240.807 21.9308C244.187 21.9308 246.847 23.9441 247.566 26.8202L244.115 27.8269Z" fill="white"/>
<path d="M25.3103 9.63515L25.0227 8.26897L19.7737 9.27563L14.1652 8.26897L13.8776 9.63515L19.7737 10.7137L25.3103 9.63515Z" fill="white"/>
<path d="M29.3369 20.996L29.6965 23.2969C32.9321 26.1731 34.8017 30.2716 34.8017 34.7297C34.8017 38.253 33.5793 41.5606 31.566 44.1491L27.6831 21.3555L26.0294 11.6485L26.6046 11.5047L26.3889 10.0666L19.7737 11.3609L12.799 10.0666L12.5114 11.4328L13.3742 11.5766L11.7204 21.2117L7.76571 44.4367C5.53668 41.7763 4.2424 38.3968 4.2424 34.6578C4.2424 29.984 6.25572 25.7417 9.77902 22.9374L10.1385 20.7084C5.60858 23.8722 2.80432 28.9774 2.80432 34.6578C2.80432 43.9334 10.3543 51.4114 19.558 51.4114C19.6299 51.4114 19.7018 51.4114 19.7737 51.4114C28.9055 51.2676 36.3116 43.7896 36.3116 34.6578C36.3116 29.1931 33.6512 24.1598 29.3369 20.996ZM14.5247 13.6618L15.819 16.5379L13.5899 19.1265L14.5247 13.6618ZM16.2504 17.6165L18.2637 22.1465L13.3023 20.996L16.2504 17.6165ZM18.6951 23.4407L15.7471 25.3822L13.0866 22.1465L18.6951 23.4407ZM12.799 23.4407L14.8842 25.8855L12.08 27.755L12.799 23.4407ZM15.5314 26.7483L18.4075 30.1997L11.9361 29.0493L15.5314 26.7483ZM18.3356 31.4221L14.9561 34.0107L12.2957 30.3435L18.3356 31.4221ZM11.5047 31.0626L14.0933 34.6578L10.4262 37.534L11.5047 31.0626ZM10.2104 38.972L14.7404 35.4487L18.3356 40.482L10.2104 38.972ZM18.1918 41.7044L13.8776 44.9401L10.1385 40.2663L18.1918 41.7044ZM9.05998 45.731L9.77902 41.3449L13.0866 45.4434L10.7857 47.1691C10.2104 46.7377 9.56331 46.3063 9.05998 45.731ZM11.7204 47.8162L13.7337 46.3063L16.4661 49.6857C14.7404 49.3262 13.1585 48.6791 11.7204 47.8162ZM19.0547 49.9734C18.6951 49.9734 18.3356 49.9734 17.9761 49.9015L14.5247 45.6591L18.9827 42.2796V49.9734H19.0547ZM19.0547 39.6911L15.5314 34.8016L19.0547 32.0692V39.6911ZM19.0547 29.3369L16.3942 26.1731L19.0547 24.4474V29.3369ZM19.0547 21.2836L17.0413 16.7537L19.0547 14.3808V21.2836ZM19.0547 12.8708L16.538 15.747L14.8123 11.8642L19.0547 12.6551V12.8708ZM29.265 39.0439L21.068 40.482L24.6632 35.4487L29.265 39.0439ZM29.265 40.2663L25.526 44.8682L21.2118 41.7044L29.265 40.2663ZM24.5194 34.0107L21.1399 31.4221L27.1079 30.4154L24.5194 34.0107ZM27.8989 31.0626L28.9774 37.534L25.3103 34.6578L27.8989 31.0626ZM20.9961 30.1997L23.8722 26.7483L27.4674 29.1212L20.9961 30.1997ZM27.3955 27.8269L24.5913 25.9574L26.6765 23.5126L27.3955 27.8269ZM23.7284 25.3822L20.7804 23.4407L26.3889 22.1465L23.7284 25.3822ZM26.1732 20.996L21.2837 22.0746L23.2251 17.5446L26.1732 20.996ZM25.8855 19.1984L23.6565 16.5379L24.9508 13.4461L25.8855 19.1984ZM20.4927 12.727L24.5194 11.8642L22.8656 15.6751L20.4208 12.8708V12.727H20.4927ZM20.4927 14.4527L22.5061 16.7537L20.4927 21.4274V14.4527ZM20.4927 24.4474L23.0813 26.1731L20.4927 29.265V24.4474ZM20.4927 32.1411L23.9441 34.8016L20.4927 39.6192V32.1411ZM20.4927 49.9734V42.3515L24.9508 45.6591L21.5713 49.8296C21.2118 49.9015 20.8523 49.9015 20.4927 49.9734ZM23.0813 49.5419L25.7417 46.2344L27.6112 47.6005C26.2451 48.5353 24.6632 49.1824 23.0813 49.5419ZM28.4741 47.0972L26.317 45.5153L29.6246 41.4168L30.3436 45.5153C29.7684 46.0186 29.1931 46.5939 28.4741 47.0972Z" fill="white"/>
<path d="M39.1158 34.4421C39.1158 45.1558 30.4873 53.8562 19.7736 54C19.7017 54 19.6298 54 19.5579 54C8.7723 54 0 45.2277 0 34.4421C0 27.036 4.09854 20.3489 10.7856 16.9694L10.498 18.6951C4.74567 21.9308 1.29427 27.8988 1.29427 34.514C1.29427 44.5806 9.49134 52.7776 19.5579 52.7776C19.6298 52.7776 19.7017 52.7776 19.7736 52.7776C29.7683 52.7057 37.8216 44.5806 37.8216 34.514C37.8216 28.0426 34.514 22.2184 29.0493 18.9108L28.7617 17.257C35.1611 20.6365 39.1158 27.1798 39.1158 34.4421Z" fill="white"/>
<path d="M20.9961 7.54993C20.9961 7.40612 21.068 7.26231 21.1399 7.11851C21.1399 7.0466 21.2118 7.0466 21.2118 6.9747C21.2837 6.90279 21.3556 6.75899 21.4994 6.75899C21.5713 6.68708 21.7151 6.68708 21.787 6.61518C22.0028 6.61518 22.2185 6.61518 22.4342 6.75899C22.7937 7.0466 23.2251 7.0466 23.6566 6.83089C24.1599 6.54327 24.3756 5.82423 24.0161 5.3209C23.9442 5.1771 23.7285 5.03329 23.6566 4.96138C23.6566 4.96138 23.5847 4.88948 23.5127 4.88948C23.0094 4.67377 22.3623 4.67377 21.787 5.03329C20.9242 5.53662 20.6366 6.61518 20.9961 7.54993Z" fill="white"/>
<path d="M20.2051 4.88948C20.1332 4.74567 20.0613 4.52996 20.0613 4.31425C20.0613 4.24234 20.0613 4.17044 20.0613 4.09854C20.0613 3.95473 20.0613 3.81092 20.1332 3.59521C20.2051 3.4514 20.277 3.30759 20.3489 3.23569C20.5646 3.01997 20.8522 2.87616 21.1399 2.87616C21.7151 2.80426 22.2184 2.44474 22.4341 1.86951C22.7218 1.07856 22.3622 0.287616 21.6432 0.0719041C21.4994 0 21.068 0 20.9242 0C20.8522 0 20.7803 0 20.7803 0C20.0613 0.287616 19.3423 0.862849 19.0546 1.65379C18.4794 3.01997 19.0546 4.38615 20.2051 4.88948Z" fill="white"/>
<path d="M15.4593 6.83089C15.9627 7.11851 16.6098 7.11851 17.1131 6.75899C17.3288 6.54327 17.6884 6.47137 17.976 6.54328C18.1198 6.54328 18.2636 6.61518 18.4074 6.68708C18.5512 6.75899 18.695 6.9028 18.7669 7.0466C18.8388 7.11851 18.8388 7.11851 18.9107 7.19041C19.0545 7.33422 19.1264 7.54993 19.1264 7.76565C19.7017 6.54327 19.2702 5.03329 18.0479 4.31425C17.3288 3.88282 16.3941 3.81092 15.675 4.09853C15.6031 4.09853 15.5312 4.17044 15.5312 4.17044C15.3874 4.31425 15.0998 4.60186 14.956 4.81758C14.5246 5.46471 14.8122 6.39947 15.4593 6.83089Z" fill="white"/>
<path d="M12.799 10.0666L12.5114 11.4328L13.3742 11.5766L11.7204 21.2117L7.76571 44.4367C5.53668 41.7763 4.2424 38.3968 4.2424 34.6578C4.2424 29.984 6.25572 25.7417 9.77902 22.9374L10.1385 20.7084C5.60858 23.8722 2.80432 28.9774 2.80432 34.6578C2.80432 43.9334 10.3543 51.4114 19.558 51.4114C19.6299 51.4114 19.7018 51.4114 19.7737 51.4114V11.3609L12.799 10.0666ZM14.5247 13.6618L15.819 16.5379L13.5899 19.1265L14.5247 13.6618ZM16.2504 17.6165L18.2637 22.1465L13.3023 20.996L16.2504 17.6165ZM18.6951 23.4407L15.7471 25.3822L13.0866 22.1465L18.6951 23.4407ZM12.799 23.4407L14.8842 25.8855L12.08 27.755L12.799 23.4407ZM15.5314 26.7483L18.4075 30.1997L11.9361 29.0493L15.5314 26.7483ZM18.3356 31.4221L14.9561 34.0107L12.2957 30.3435L18.3356 31.4221ZM11.5047 31.0626L14.0933 34.6578L10.4262 37.534L11.5047 31.0626ZM10.2104 38.972L14.7404 35.4487L18.3356 40.482L10.2104 38.972ZM18.1918 41.7044L13.8776 44.9401L10.1385 40.2663L18.1918 41.7044ZM9.05998 45.731L9.77902 41.3449L13.0866 45.4434L10.7857 47.1691C10.2104 46.7377 9.56331 46.3063 9.05998 45.731ZM11.7204 47.8162L13.7338 46.3063L16.4661 49.6857C14.7404 49.3262 13.1585 48.6791 11.7204 47.8162ZM19.0547 49.9734C18.6951 49.9734 18.3356 49.9734 17.9761 49.9015L14.5247 45.6591L18.9828 42.2796V49.9734H19.0547ZM19.0547 39.6911L15.5314 34.8016L19.0547 32.0692V39.6911ZM19.0547 29.3369L16.3942 26.1731L19.0547 24.4474V29.3369ZM19.0547 21.2836L17.0413 16.7537L19.0547 14.3808V21.2836ZM19.0547 12.8708L16.538 15.747L14.8123 11.8642L19.0547 12.6551V12.8708Z" fill="white"/>
<path d="M14.1651 8.26897L13.8774 9.63515L19.7736 10.7137V9.27563L14.1651 8.26897Z" fill="white"/>
</svg>
