<svg width="193" height="42" viewBox="0 0 193 42" fill="none" xmlns="http://www.w3.org/2000/svg">
<path d="M38.5938 17.3867C41.933 17.3867 43.9685 19.1428 43.9685 22.043C43.9685 24.9699 41.933 26.7127 38.5938 26.7127H36.3853V31.3025H33.6182V17.3867H38.5938ZM38.5406 24.1317C40.1769 24.1317 41.1082 23.3335 41.1082 22.043C41.1082 20.726 40.137 19.9677 38.5406 19.9677H36.3853V24.1317H38.5406Z" fill="#1A1A1A"/>
<path d="M55.8893 28.7348V31.3158H45.9248V17.3867H55.7696V19.9676H48.692V22.9344H54.2796V25.3557H48.692V28.7348H55.8893Z" fill="#1A1A1A"/>
<path d="M69.0065 17.3867V19.9676H64.6296V31.3158H61.8624V19.9676H57.5254V17.3867H69.0065Z" fill="#1A1A1A"/>
<path d="M78.7316 31.3158L75.9644 26.5663C75.9112 26.5663 75.8712 26.5663 75.8047 26.5663H73.7027V31.3158H70.9355V17.3867H75.8047C79.2238 17.3867 81.2726 19.2359 81.2726 22.043C81.2726 23.9588 80.3413 25.3424 78.6517 26.0475L81.8313 31.3158H78.7316ZM73.7027 24.0918H76.1639C77.6939 24.0918 78.4123 23.094 78.4123 22.043C78.4123 20.9521 77.6806 19.9676 76.1639 19.9676H73.7027V24.0918Z" fill="#1A1A1A"/>
<path d="M89.9603 17.1074C93.9647 17.1074 97.1975 20.154 97.1975 24.3447C97.1975 28.5354 93.9514 31.5819 89.9603 31.5819C85.9558 31.5819 82.7363 28.5354 82.7363 24.3447C82.7363 20.154 85.9558 17.1074 89.9603 17.1074ZM89.9603 28.868C92.5279 28.868 94.3239 27.0187 94.3239 24.3447C94.3239 21.6573 92.5279 19.8214 89.9603 19.8214C87.4193 19.8214 85.6232 21.6573 85.6232 24.3447C85.6232 27.0187 87.4193 28.868 89.9603 28.868Z" fill="#1A1A1A"/>
<path d="M102.226 19.981V23.3867H107.614V25.8745H102.226V31.3291H99.459V17.3867H109.104V19.9677H102.226V19.981Z" fill="#62BB46"/>
<path d="M123.18 17.3867V25.2758C123.18 29.3734 120.825 31.6084 117.167 31.6084C113.481 31.6084 111.153 29.3867 111.153 25.2758V17.4H113.921V25.2359C113.921 27.8169 115.038 29.0142 117.167 29.0142C119.282 29.0142 120.386 27.8169 120.386 25.2359V17.4H123.18V17.3867Z" fill="#62BB46"/>
<path d="M138.04 17.3867V31.3158H135.433L131.468 25.941C130.218 24.2249 128.688 22.043 128.661 22.043H128.648C128.635 22.043 128.674 24.0519 128.674 26.8191V31.3158H125.907V17.3867H128.515L132.559 22.8147C133.517 24.0652 135.26 26.553 135.286 26.553H135.3C135.326 26.553 135.286 24.2781 135.286 21.9366V17.3867H138.04Z" fill="#62BB46"/>
<path d="M147.352 17.3867C151.33 17.3867 154.549 20.2337 154.549 24.4111C154.549 28.5752 151.343 31.3158 147.392 31.3158H141.339V17.3867H147.352ZM147.392 28.7348C149.707 28.7348 151.689 27.1251 151.689 24.4111C151.689 21.7104 149.694 19.9676 147.352 19.9676H144.106V28.7348H147.392Z" fill="#62BB46"/>
<path d="M166.776 28.7348V31.3158H156.812V17.3867H166.656V19.9676H159.579V22.9344H165.166V25.3557H159.579V28.7348H166.776Z" fill="#62BB46"/>
<path d="M177.578 31.3158L174.811 26.5663C174.758 26.5663 174.718 26.5663 174.651 26.5663H172.549V31.3158H169.782V17.3867H174.651C178.07 17.3867 180.119 19.2359 180.119 22.043C180.119 23.9588 179.188 25.3424 177.498 26.0475L180.678 31.3158H177.578ZM172.549 24.0918H175.011C176.541 24.0918 177.259 23.094 177.259 22.043C177.259 20.9521 176.527 19.9676 175.011 19.9676H172.549V24.0918Z" fill="#62BB46"/>
<path d="M189.765 21.6303C189.446 20.2334 188.235 19.515 186.998 19.515C185.721 19.515 184.91 20.127 184.91 20.9651C184.91 22.0827 186.479 22.4818 188.235 23.0804C190.271 23.7722 192.599 24.8498 192.599 27.3377C192.599 29.8255 190.444 31.5949 187.264 31.5949C184.337 31.5949 182.329 29.9452 181.57 27.4175L184.231 26.6991C184.524 27.9496 185.641 29.1204 187.371 29.1204C188.861 29.1204 189.632 28.3886 189.632 27.4441C189.632 26.0339 187.743 25.688 185.774 24.9962C184.125 24.3975 182.049 23.5461 182.049 21.1115C182.049 18.943 184.204 17.0938 187.145 17.0938C189.752 17.0938 191.814 18.6902 192.413 20.872L189.765 21.6303Z" fill="#62BB46"/>
<path d="M19.6897 7.48874L19.4635 6.41113L15.3792 7.23597L11.0023 6.41113L10.8027 7.48874L15.3792 8.35348L19.6897 7.48874Z" fill="#62BB46"/>
<path d="M22.7893 16.3358L23.082 18.0919C25.5964 20.3136 27.0598 23.5066 27.0598 26.9655C27.0598 29.7194 26.1152 32.2471 24.5454 34.2693L21.5254 16.5221L20.2483 8.99214L20.7272 8.89901L20.5011 7.82141L15.3791 8.8325L9.97777 7.80811L9.77821 8.88571L10.4434 9.00544L9.16624 16.5088L6.07977 34.562C4.36358 32.4999 3.32589 29.8524 3.32589 26.9655C3.32589 23.3469 4.90903 20.0609 7.623 17.8258L7.91569 16.123C4.33697 18.5309 2.16846 22.5354 2.16846 26.9256C2.16846 34.1097 8.00881 39.95 15.1928 39.95C15.2461 39.95 15.3126 39.95 15.3658 39.95C22.47 39.8569 28.2172 34.0431 28.2172 26.9256C28.2305 22.6817 26.1818 18.7704 22.7893 16.3358ZM11.2682 10.6285L12.2926 12.8901L10.5498 14.9123L11.2682 10.6285ZM12.6518 13.6751L14.235 17.1873L10.3769 16.3092L12.6518 13.6751ZM14.5144 18.225L12.2394 19.7283L10.1507 17.2272L14.5144 18.225ZM9.97777 18.2516L11.5742 20.1673L9.40571 21.6041L9.97777 18.2516ZM12.0798 20.7793L14.3281 23.4799L9.31258 22.6019L12.0798 20.7793ZM14.2217 24.4112L11.6008 26.4467L9.53874 23.5997L14.2217 24.4112ZM8.96668 24.1451L10.9889 26.9389L8.11524 29.1607L8.96668 24.1451ZM7.91569 30.3048L11.4545 27.5642L14.2616 31.4489L7.91569 30.3447V30.3048ZM14.1552 32.3935L10.8159 34.8813L7.90238 31.3026L14.1552 32.3935ZM7.02433 35.5731L7.6097 32.1806L10.1906 35.3602L8.39462 36.7039C7.91569 36.358 7.45005 35.9722 7.02433 35.5731ZM9.09972 37.1562L10.6829 35.9722L12.8248 38.6063C11.4811 38.327 10.2305 37.8347 9.09972 37.1562ZM14.807 38.8325C14.5277 38.8192 14.2483 38.8059 13.9822 38.7793L11.3215 35.4932L14.8203 32.8857V38.8325H14.807ZM14.807 30.8635L12.0798 27.0853L14.807 24.97V30.8635ZM14.807 22.8148L12.745 20.3403L14.807 18.9833V22.8148ZM14.807 16.562L13.2106 13.0365L14.807 11.2006V16.562ZM14.807 9.98992L12.8647 12.2383L11.5077 9.23161V9.21831L14.807 9.84358V9.98992ZM22.7627 30.358L16.4035 31.4755L19.2239 27.5775L22.7627 30.3181V30.358ZM22.7627 31.3159L19.8625 34.8946L16.5365 32.4068L22.7627 31.3159ZM19.0642 26.4467L16.4567 24.4245L21.113 23.613L19.0642 26.4467ZM21.7117 24.1451L22.5631 29.1607L19.6895 26.9256L21.7117 24.1451ZM16.337 23.4932L18.5986 20.7793L21.3791 22.6152L16.337 23.4932ZM21.2727 21.6041L19.1042 20.1673L20.7006 18.2516L21.2727 21.6041ZM18.439 19.7283L16.1773 18.225L20.5144 17.2405L18.439 19.7283ZM20.3281 16.3225L16.5498 17.174L18.0265 13.6751L20.3281 16.3225ZM20.1418 14.9123L18.3857 12.8768L19.3968 10.4955L20.1418 14.9123ZM15.9113 9.88349L19.0642 9.23161L17.8004 12.2117L15.9113 10.0298V9.88349ZM15.9113 11.2272L17.4545 13.0099L15.9113 16.6684V11.2272ZM15.9113 19.0099L17.9334 20.3403L15.9113 22.7615V19.0099ZM15.9113 24.9966L18.6119 27.0853L15.9113 30.8103V24.9966ZM15.9113 38.8192V32.9123L19.3702 35.4932L16.7361 38.7394C16.4567 38.7793 16.1906 38.8059 15.9113 38.8192ZM17.9201 38.5265L19.9955 35.9722L21.4456 37.0631C20.3813 37.7283 19.184 38.2205 17.9201 38.5265ZM22.1507 36.5842L20.5011 35.3469L23.082 32.1673L23.6141 35.3336C23.1618 35.7859 22.6696 36.2116 22.1507 36.5842Z" fill="#62BB46"/>
<path d="M30.3991 26.8057C30.3991 35.1205 23.6807 41.9055 15.3792 41.9986C15.3259 41.9986 15.2594 41.9986 15.2062 41.9986C6.81153 41.9986 0 35.1871 0 26.8057C0 21.0185 3.1929 15.8301 8.35477 13.2358L8.1286 14.5396C3.69845 17.0673 0.984479 21.7103 0.984479 26.8589C0.984479 34.6948 7.35698 41.0673 15.1929 41.0673C15.2461 41.0673 15.3126 41.0673 15.3659 41.0673C23.122 40.9742 29.388 34.6416 29.388 26.8722C29.388 21.8434 26.8071 17.3068 22.5632 14.7392L22.337 13.4088C27.3259 16.0429 30.3991 21.1383 30.3991 26.8057Z" fill="#1A1A1A"/>
<path d="M16.3501 5.85223C16.3634 5.7325 16.4033 5.62607 16.4699 5.51964C16.4965 5.49303 16.5098 5.45312 16.5364 5.42651C16.5896 5.34669 16.6561 5.28017 16.7359 5.22696C16.8158 5.18704 16.8956 5.14713 16.9754 5.14713C17.1484 5.12053 17.3213 5.16044 17.4676 5.26687C17.7337 5.46642 18.1062 5.49303 18.4122 5.30678C18.8113 5.06731 18.9444 4.54846 18.7049 4.14935C18.6384 4.02962 18.4654 3.89658 18.3856 3.83006C18.359 3.80345 18.3324 3.79015 18.2925 3.77684C17.8668 3.6039 17.3612 3.6305 16.9355 3.88327C16.257 4.309 16.0175 5.16044 16.3501 5.85223Z" fill="#1A1A1A"/>
<path d="M15.6853 3.79017C15.6055 3.67044 15.5656 3.52409 15.5523 3.36445C15.5523 3.31123 15.5523 3.25802 15.5523 3.2048C15.5523 3.08507 15.5656 2.95203 15.6188 2.8323C15.6587 2.72587 15.7252 2.61944 15.805 2.53962C15.9647 2.36667 16.1909 2.24693 16.417 2.23363C16.856 2.19372 17.2685 1.90103 17.4547 1.44871C17.6942 0.850037 17.4281 0.22476 16.856 0.0385068C16.6964 -0.0147083 16.4037 -0.00140452 16.2707 0.0118993C16.2308 0.0118993 16.1776 0.025203 16.1376 0.0385068C15.5523 0.251367 15.0334 0.703695 14.794 1.34228C14.3815 2.32676 14.7807 3.39106 15.6853 3.79017Z" fill="#1A1A1A"/>
<path d="M12.0399 5.30652C12.4523 5.55929 12.9579 5.51938 13.3304 5.2533C13.5299 5.10696 13.7694 5.05375 14.0089 5.08036C14.1153 5.09366 14.235 5.13357 14.3415 5.20009C14.4612 5.26661 14.5543 5.35973 14.6208 5.46616C14.6607 5.50608 14.6874 5.54599 14.714 5.5992C14.8071 5.73224 14.8603 5.89189 14.8736 6.05153C15.3259 5.09366 14.9933 3.93623 14.0621 3.36417C13.4767 3.01827 12.7982 2.97836 12.2129 3.21783C12.1729 3.23113 12.133 3.25774 12.0931 3.28435C11.9867 3.36417 11.7472 3.55042 11.6541 3.71007C11.3082 4.26883 11.4944 4.97393 12.0399 5.30652Z" fill="#1A1A1A"/>
<path d="M9.97777 7.80762L9.77821 8.88522L10.4434 9.00496L9.16624 16.5083L6.07977 34.5615C4.36358 32.4994 3.32589 29.852 3.32589 26.965C3.32589 23.3464 4.90903 20.0604 7.623 17.8254L7.91569 16.1225C4.33697 18.5305 2.16846 22.5349 2.16846 26.9251C2.16846 34.1092 8.00881 39.9495 15.1928 39.9495C15.2461 39.9495 15.3126 39.9495 15.3658 39.9495V8.8187L9.97777 7.80762ZM11.2682 10.628L12.2926 12.8897L10.5498 14.9118L11.2682 10.628ZM12.6518 13.6746L14.235 17.1868L10.3769 16.3087L12.6518 13.6746ZM14.5144 18.2245L12.2394 19.7278L10.1507 17.2267L14.5144 18.2245ZM9.97777 18.2511L11.5742 20.1668L9.40571 21.6036L9.97777 18.2511ZM12.0798 20.7788L14.3281 23.4795L9.31258 22.6014L12.0798 20.7788ZM14.2217 24.4107L11.6008 26.4462L9.53875 23.5992L14.2217 24.4107ZM8.96668 24.1446L10.9889 26.9384L8.11524 29.1602L8.96668 24.1446ZM7.91569 30.3043L11.4545 27.5637L14.2616 31.4484L7.91569 30.3442V30.3043ZM14.1552 32.393L10.8159 34.8808L7.90238 31.3021L14.1552 32.393ZM7.02433 35.5726L7.6097 32.1801L10.1906 35.3597L8.39462 36.7034C7.91569 36.3575 7.45005 35.9717 7.02433 35.5726ZM9.09972 37.1557L10.6829 35.9717L12.8248 38.6058C11.4811 38.3265 10.2305 37.8342 9.09972 37.1557ZM14.807 38.832C14.5277 38.8187 14.2483 38.8054 13.9822 38.7788L11.3215 35.4928L14.8203 32.8852V38.832H14.807ZM14.807 30.863L12.0798 27.0848L14.807 24.9695V30.863ZM14.807 22.8143L12.745 20.3398L14.807 18.9828V22.8143ZM14.807 16.5615L13.2106 13.036L14.807 11.2001V16.5615ZM14.807 9.98943L12.8647 12.2378L11.5077 9.23112V9.21782L14.807 9.84309V9.98943Z" fill="#C5E16F"/>
<path d="M11.0023 6.41113L10.8027 7.48874L15.3792 8.35348V7.23597L11.0023 6.41113Z" fill="#C5E16F"/>
</svg>
