<svg width="44" height="44" viewBox="0 0 44 44" fill="none" xmlns="http://www.w3.org/2000/svg">
<path d="M14.1431 42.6248H13.8862L10.4109 27.8714L12.521 26.2434L12.3612 24.63L9.51635 26.8251L4.11689 24.9908L6.62895 20.7754L12.176 22.76L12.0261 21.246L6.55946 19.2902C6.40942 19.2365 6.2454 19.2366 6.09544 19.2905C5.94547 19.3444 5.81889 19.4487 5.73732 19.5856L2.50081 25.0167C2.44879 25.1072 2.41734 25.2081 2.40869 25.3121C2.40005 25.4161 2.41442 25.5208 2.45079 25.6186L9.45089 43.5623C9.50121 43.6912 9.58927 43.8019 9.70355 43.88C9.81783 43.9581 9.95301 43.9998 10.0914 43.9998H14.3465C14.2885 43.8437 14.2499 43.6811 14.2313 43.5156L14.1431 42.6248ZM10.5611 42.6248L4.26856 26.4946L9.05363 28.1201L12.4732 42.6248H10.5611Z" fill="#0F304D"/>
<path d="M24.4102 43.1595L24.4499 42.6249H22.165L23.2289 12.9272L31.093 9.15737L29.4702 19.8833L30.9388 19.3681L32.647 8.07878C32.6608 7.98203 32.6543 7.88345 32.6277 7.78939C32.6012 7.69533 32.5553 7.60786 32.4929 7.53261L26.3455 0.244432C26.2459 0.126122 26.1092 0.0448997 25.9577 0.0139194C25.8062 -0.0170608 25.6486 0.00401448 25.5106 0.0737325C25.5106 0.0737325 12.4133 6.67147 12.401 6.67886C12.2826 6.74628 12.1854 6.8454 12.1203 6.96507C12.0551 7.08473 12.0247 7.22019 12.0324 7.35621L15.5996 43.3802C15.6164 43.5499 15.6958 43.7074 15.8222 43.8219C15.9487 43.9364 16.1132 43.9999 16.2838 43.9999H24.5227C24.4273 43.7306 24.389 43.4444 24.4102 43.1595ZM25.6442 1.54591L30.8688 7.74007L22.5594 11.7234L14.2145 7.30367L25.6442 1.54591ZM20.7888 42.6249H16.9065L13.527 8.49571L21.8484 12.9028L20.7888 42.6249Z" fill="#0F304D"/>
<path d="M41.5859 24.7425C41.5721 24.6511 41.5403 24.5632 41.4922 24.4842L38.0939 18.8933C38.0119 18.7587 37.8863 18.6563 37.738 18.6032C37.5896 18.5502 37.4276 18.5496 37.2788 18.6016L27.7807 21.9331C27.655 21.9781 27.5449 22.0585 27.4637 22.1645C27.3825 22.2705 27.3336 22.3977 27.3228 22.5308L25.7813 43.2616C25.7762 43.3554 25.7901 43.4494 25.8221 43.5378C25.8541 43.6262 25.9035 43.7073 25.9675 43.7762C26.0314 43.8451 26.1086 43.9004 26.1944 43.9389C26.2802 43.9773 26.3728 43.9982 26.4668 44.0001H33.5545C33.6921 44.0001 33.8266 43.9588 33.9405 43.8815C34.0544 43.8043 34.1425 43.6946 34.1934 43.5667C34.1934 43.5667 41.5419 25.0995 41.5503 25.078C41.5913 24.9712 41.6036 24.8555 41.5859 24.7425ZM29.5999 42.6251H27.2074L28.6003 23.8918L33.2548 27.4129L29.5999 42.6251ZM33.0882 42.6251H31.0142L34.6128 27.6612L39.7194 25.9605L33.0882 42.6251ZM34.1504 26.3661L29.4448 22.8066L37.2083 20.0835L39.8694 24.4614L34.1504 26.3661Z" fill="#0F304D"/>
</svg>
