<svg width="72" height="96" viewBox="0 0 72 96" fill="none" xmlns="http://www.w3.org/2000/svg">
<path d="M71.1285 96C71.5363 96 71.867 95.6693 71.867 95.2615V19.2C71.867 19.1838 71.8588 19.1703 71.8578 19.1544C71.8535 19.0874 71.8404 19.0229 71.8184 18.9595C71.8101 18.9358 71.8041 18.9123 71.7936 18.8899C71.758 18.8135 71.7132 18.741 71.6515 18.6791C71.651 18.6786 71.6508 18.6781 71.6504 18.6777L53.1976 0.216571C53.1972 0.216166 53.1967 0.21594 53.1962 0.21549C53.1343 0.153741 53.0617 0.108894 52.9852 0.0732873C52.9629 0.0628305 52.9396 0.056881 52.9162 0.0486779C52.8526 0.0265024 52.788 0.0134315 52.7208 0.00919473C52.7049 0.00815808 52.6914 0 52.6752 0H0.738462C0.330649 0 0 0.330649 0 0.738462V95.2615C0 95.6693 0.330649 96 0.738462 96H71.1285ZM53.4137 2.52188L69.3462 18.4615H53.4137V2.52188ZM1.47692 1.47692H51.9368V19.2C51.9368 19.6078 52.2674 19.9385 52.6752 19.9385H70.39V94.5231H1.47692V1.47692Z" fill="#0F304D"/>
<path d="M10.7346 10.7079H39.2252C39.633 10.7079 39.9636 10.3772 39.9636 9.96942C39.9636 9.56161 39.633 9.23096 39.2252 9.23096H10.7346C10.3267 9.23096 9.99609 9.56161 9.99609 9.96942C9.99609 10.3772 10.3267 10.7079 10.7346 10.7079Z" fill="#0F304D"/>
<path d="M10.7346 22.5692H44.3944C44.8022 22.5692 45.1329 22.2386 45.1329 21.8307C45.1329 21.4229 44.8022 21.0923 44.3944 21.0923H10.7346C10.3267 21.0923 9.99609 21.4229 9.99609 21.8307C9.99609 22.2386 10.3267 22.5692 10.7346 22.5692Z" fill="#0F304D"/>
<path d="M10.7346 34.4305H59.8437C60.2515 34.4305 60.5822 34.0999 60.5822 33.6921C60.5822 33.2843 60.2515 32.9536 59.8437 32.9536H10.7346C10.3267 32.9536 9.99609 33.2843 9.99609 33.6921C9.99609 34.0999 10.3267 34.4305 10.7346 34.4305Z" fill="#0F304D"/>
<path d="M10.7346 46.2924H50.3021C50.7099 46.2924 51.0406 45.9617 51.0406 45.5539C51.0406 45.1461 50.7099 44.8154 50.3021 44.8154H10.7346C10.3267 44.8154 9.99609 45.1461 9.99609 45.5539C9.99609 45.9617 10.3267 46.2924 10.7346 46.2924Z" fill="#0F304D"/>
<path d="M60.5822 57.4152C60.5822 57.0074 60.2515 56.6768 59.8437 56.6768H10.7346C10.3267 56.6768 9.99609 57.0074 9.99609 57.4152C9.99609 57.823 10.3267 58.1537 10.7346 58.1537H59.8437C60.2515 58.1537 60.5822 57.823 60.5822 57.4152Z" fill="#0F304D"/>
<path d="M60.6529 73.0215C60.5177 72.6054 60.553 72.0296 60.5902 71.4202C60.6472 70.4892 60.7121 69.4338 60.1214 68.6225C59.525 67.8032 58.496 67.5389 57.5877 67.306C57.0014 67.1557 56.4475 67.0132 56.1014 66.7615C55.7631 66.5153 55.461 66.0371 55.1411 65.5309C54.6371 64.7329 54.0655 63.8282 53.0891 63.5109C52.1491 63.2048 51.1755 63.5903 50.3159 63.9288C49.7646 64.1463 49.1942 64.3709 48.7413 64.3709C48.288 64.3709 47.718 64.1463 47.1663 63.9288C46.3063 63.5895 45.3306 63.2052 44.3931 63.5109C43.4166 63.8282 42.8455 64.7329 42.341 65.5309C42.0212 66.0371 41.719 66.5153 41.3808 66.7615C41.0347 67.0132 40.4808 67.1557 39.8945 67.306C38.9866 67.5393 37.9575 67.8036 37.3611 68.6228C36.7705 69.4345 36.835 70.4895 36.892 71.4206C36.9295 72.0299 36.9648 72.6054 36.8296 73.0215C36.7045 73.4073 36.3486 73.835 35.9718 74.2882C35.3639 75.0191 34.6748 75.8474 34.6748 76.8923C34.6748 77.9369 35.3639 78.7651 35.9718 79.4964C36.3486 79.9493 36.7045 80.3773 36.8296 80.7631C36.9648 81.1792 36.9295 81.755 36.8924 82.3644C36.8354 83.2951 36.7705 84.3505 37.3611 85.1618C37.9575 85.981 38.9866 86.2453 39.8949 86.4786C40.4812 86.629 41.035 86.7714 41.3812 87.0231C41.7194 87.2694 42.0216 87.7475 42.3414 88.2537C42.8455 89.0517 43.417 89.9564 44.3938 90.2737C44.6343 90.3516 44.877 90.3847 45.1196 90.3847C45.8242 90.3847 46.527 90.1075 47.1663 89.8554C47.718 89.6383 48.2884 89.4133 48.7413 89.4133C49.1945 89.4133 49.7649 89.6383 50.3166 89.8558C51.1759 90.1944 52.1494 90.5766 53.0895 90.2737C54.0659 89.9564 54.6371 89.0517 55.1415 88.2537C55.4613 87.7475 55.7635 87.2694 56.1017 87.0231C56.4479 86.771 57.0017 86.629 57.5884 86.4782C58.4963 86.2453 59.525 85.981 60.1214 85.1618C60.7121 84.3501 60.6475 83.2947 60.5905 82.3637C60.553 81.7543 60.5177 81.1788 60.6529 80.7631C60.778 80.3773 61.1339 79.9493 61.5107 79.4964C62.1187 78.7651 62.8077 77.9369 62.8077 76.8923C62.8077 75.8474 62.1187 75.0188 61.5107 74.2879C61.1339 73.835 60.778 73.407 60.6529 73.0215ZM60.3753 78.552C59.926 79.0922 59.4612 79.6511 59.2481 80.307C59.0264 80.9895 59.0722 81.7341 59.1161 82.4538C59.1619 83.2031 59.2056 83.9106 58.9272 84.2928C58.6434 84.6826 57.9205 84.8683 57.221 85.0478C56.5258 85.2263 55.8071 85.4106 55.2327 85.8288C54.6659 86.2413 54.2729 86.8633 53.8928 87.4648C53.4861 88.1088 53.1021 88.7167 52.6333 88.8689C52.1999 89.0106 51.5476 88.7535 50.8582 88.4816C50.1782 88.2137 49.475 87.9364 48.7413 87.9364C48.0079 87.9364 47.3047 88.2137 46.6247 88.4816C45.9353 88.7531 45.2841 89.0113 44.8499 88.8689C44.3805 88.7167 43.9964 88.1084 43.5901 87.4648C43.21 86.8633 42.817 86.2413 42.2502 85.8288C41.6758 85.4109 40.9571 85.2263 40.2619 85.0478C39.5624 84.8683 38.8391 84.6826 38.5553 84.2928C38.2773 83.9106 38.3206 83.2035 38.3664 82.4546C38.4107 81.7345 38.4562 80.9899 38.2344 80.3066C38.0213 79.6511 37.5565 79.0922 37.1073 78.552C36.6158 77.9611 36.1517 77.4029 36.1517 76.8923C36.1517 76.3814 36.6158 75.8236 37.1073 75.2326C37.5565 74.6921 38.0213 74.1332 38.2344 73.4776C38.4562 72.7947 38.4104 72.0505 38.3664 71.3304C38.3206 70.5815 38.277 69.874 38.5553 69.4918C38.8391 69.102 39.5624 68.9163 40.2619 68.7368C40.9568 68.5583 41.6754 68.3737 42.2498 67.9558C42.8166 67.5433 43.2097 66.9213 43.5897 66.3198C43.9964 65.6758 44.3805 65.0679 44.8496 64.9157C44.9347 64.888 45.028 64.8757 45.1287 64.8757C45.5408 64.8757 46.0705 65.0845 46.6247 65.303C47.3047 65.5709 48.0075 65.8478 48.7413 65.8478C49.4747 65.8478 50.1778 65.5709 50.8575 65.303C51.5469 65.0315 52.1981 64.7748 52.6326 64.9157C53.1021 65.0679 53.4861 65.6762 53.8925 66.3198C54.2725 66.9213 54.6655 67.5433 55.2324 67.9558C55.8068 68.3737 56.5254 68.5583 57.2206 68.7364C57.9201 68.916 58.6434 69.1017 58.9272 69.4915C59.2052 69.8737 59.1619 70.5811 59.1161 71.3297C59.0718 72.0501 59.0264 72.7947 59.2481 73.478C59.4612 74.1332 59.9256 74.6917 60.3749 75.2322C60.8668 75.8232 61.3308 76.3814 61.3308 76.8923C61.3308 77.4029 60.8668 77.9611 60.3753 78.552Z" fill="#0F304D"/>
<path d="M48.7413 68.7402C44.2463 68.7402 40.5894 72.3972 40.5894 76.8922C40.5894 81.3871 44.2463 85.0441 48.7413 85.0441C53.2362 85.0441 56.8932 81.3871 56.8932 76.8922C56.8932 72.3972 53.2362 68.7402 48.7413 68.7402ZM48.7413 83.5672C45.0605 83.5672 42.0663 80.5729 42.0663 76.8922C42.0663 73.2114 45.0605 70.2172 48.7413 70.2172C52.422 70.2172 55.4163 73.2114 55.4163 76.8922C55.4163 80.5729 52.422 83.5672 48.7413 83.5672Z" fill="#0F304D"/>
<path d="M51.1023 74.2354L47.3552 77.9825L46.3802 77.0075C46.0917 76.719 45.6244 76.719 45.336 77.0075C45.0475 77.296 45.0475 77.7633 45.336 78.0517L46.8331 79.5488C46.9773 79.6931 47.1663 79.7652 47.3552 79.7652C47.5441 79.7652 47.7331 79.6931 47.8773 79.5488L52.1466 75.2796C52.435 74.9912 52.435 74.5239 52.1466 74.2354C51.8581 73.9469 51.3908 73.9469 51.1023 74.2354Z" fill="#0F304D"/>
</svg>
