<svg width="36" height="54" viewBox="0 0 36 54" fill="none" xmlns="http://www.w3.org/2000/svg">
<path d="M1.26618 52.4074H7.88269C7.97671 52.4074 8.07407 52.3628 8.14219 52.2947C8.21035 52.2265 8.25958 52.1232 8.23585 52.0026V40.2662C8.23585 40.045 8.0658 39.875 7.84466 39.875H1.26618C1.04504 39.875 0.875 40.045 0.875 40.2662V52.0162C0.875 52.2373 1.04504 52.4074 1.26618 52.4074ZM7.45348 40.6574V51.625H1.65736V40.6574H7.45348Z" fill="#0F304D" stroke="#0F304D" stroke-width="0.25"/>
<path d="M7.76724 51.2599L7.77698 51.2631L7.78711 51.2647L19.7264 53.1659C19.7265 53.1659 19.7266 53.1659 19.7267 53.166C20.1896 53.2431 20.6527 53.2817 21.1158 53.2817C21.8888 53.2817 22.6597 53.1657 23.4277 52.9737L23.4277 52.9738L23.4298 52.9732C28.1358 51.7106 31.8486 49.1073 34.755 45.0155L34.7552 45.0152C35.2417 44.3259 35.2412 43.396 34.7963 42.7081C34.5117 42.2612 34.0223 41.932 33.4842 41.8905C32.9883 41.8493 32.4567 42.0552 32.0893 42.4629C30.4486 44.2153 27.9044 46.281 24.7108 46.6655C24.7318 45.9498 24.3777 45.256 23.8135 44.8423L23.8136 44.8423L23.8113 44.8406L19.1348 41.5709C19.1347 41.5708 19.1346 41.5708 19.1345 41.5707C17.9323 40.7177 16.5345 40.329 15.0978 40.4455C15.0978 40.4455 15.0977 40.4455 15.0976 40.4455L7.83948 41.0155C7.62093 41.0182 7.45361 41.1873 7.45361 41.4067V50.8751C7.45361 50.9732 7.50154 51.0587 7.557 51.1203C7.6133 51.1829 7.68837 51.2336 7.76724 51.2599ZM19.8806 52.3868L8.23598 50.5342V41.9028L15.1552 41.3792L15.1552 41.3792L15.1568 41.3791C16.4198 41.2676 17.645 41.6017 18.6856 42.345L18.6866 42.3457L23.3638 45.6159L23.3643 45.6162C23.8107 45.9253 24.0252 46.5156 23.8848 47.1171C23.8128 47.3678 23.7076 47.5742 23.5372 47.7447C23.3283 47.9535 23.0546 48.0883 22.751 48.0883C22.6218 48.0883 22.5252 48.057 22.4118 48.0192C21.5788 47.7162 20.6338 47.3286 19.7703 46.8898C18.9041 46.4496 18.1291 45.9624 17.6298 45.4631C17.5527 45.386 17.4554 45.3409 17.3513 45.3409C17.2471 45.3409 17.1499 45.386 17.0728 45.4631C16.9956 45.5402 16.9506 45.6375 16.9506 45.7416C16.9506 45.8458 16.9956 45.943 17.0728 46.0201L17.0727 46.0201L17.074 46.0214C17.7738 46.7017 18.8446 47.3078 19.8358 47.7795C20.8299 48.2527 21.7564 48.5965 22.1759 48.7491L22.1756 48.7497L22.1883 48.7529C22.344 48.7918 22.5457 48.8326 22.751 48.8326C23.2479 48.8326 23.7344 48.5854 24.0942 48.2256L24.0946 48.226L24.1018 48.2173C24.2753 48.0091 24.4599 47.7572 24.5554 47.4939C28.1364 47.1579 30.9101 44.8695 32.6528 43.0133L32.6529 43.0133L32.6565 43.0091C32.8555 42.7769 33.12 42.674 33.4293 42.6725C33.7301 42.7079 33.9977 42.8757 34.1667 43.1458C34.4428 43.595 34.4098 44.1495 34.132 44.5676C31.2964 48.4989 27.7464 50.9904 23.2131 52.1993L23.212 52.1996C22.1257 52.4993 21.0033 52.5739 19.8815 52.3869L19.8806 52.3868Z" fill="#0F304D" stroke="#0F304D" stroke-width="0.25"/>
<path d="M23.7779 45.753V45.7533L23.7861 45.7527C26.1399 45.5984 28.1402 44.4417 29.5131 43.5265L29.5134 43.5269L29.5218 43.5201C29.6782 43.395 29.862 43.3641 30.0507 43.427C30.2302 43.4868 30.3613 43.6385 30.4688 43.8508C30.5068 43.9651 30.5356 44.057 30.5356 44.145C30.5356 44.2998 30.6361 44.5149 30.8584 44.5705L30.8734 44.5742H30.8887C31.0436 44.5742 31.2586 44.4737 31.3142 44.2513L31.318 44.2364V44.221V44.221V44.221V44.221V44.221V44.221V44.221V44.221V44.221V44.221V44.221V44.2209V44.2209V44.2209V44.2209V44.2209V44.2209V44.2209V44.2208V44.2208V44.2208V44.2208V44.2208V44.2207V44.2207V44.2207V44.2207V44.2206V44.2206V44.2206V44.2206V44.2205V44.2205V44.2205V44.2204V44.2204V44.2204V44.2204V44.2203V44.2203V44.2202V44.2202V44.2202V44.2201V44.2201V44.2201V44.22V44.22V44.2199V44.2199V44.2198V44.2198V44.2198V44.2197V44.2197V44.2196V44.2196V44.2195V44.2195V44.2194V44.2194V44.2193V44.2193V44.2192V44.2192V44.2191V44.2191V44.219V44.2189V44.2189V44.2188V44.2188V44.2187V44.2186V44.2186V44.2185V44.2185V44.2184V44.2183V44.2183V44.2182V44.2181V44.2181V44.218V44.2179V44.2179V44.2178V44.2177V44.2176V44.2176V44.2175V44.2174V44.2173V44.2173V44.2172V44.2171V44.217V44.217V44.2169V44.2168V44.2167V44.2166V44.2166V44.2165V44.2164V44.2163V44.2162V44.2161V44.2161V44.216V44.2159V44.2158V44.2157V44.2156V44.2155V44.2154V44.2153V44.2153V44.2152V44.2151V44.215V44.2149V44.2148V44.2147V44.2146V44.2145V44.2144V44.2143V44.2142V44.2141V44.214V44.2139V44.2138V44.2137V44.2136V44.2135V44.2134V44.2133V44.2132V44.2131V44.213V44.2129V44.2127V44.2126V44.2125V44.2124V44.2123V44.2122V44.2121V44.212V44.2119V44.2117V44.2116V44.2115V44.2114V44.2113V44.2112V44.211V44.2109V44.2108V44.2107V44.2106V44.2105V44.2103V44.2102V44.2101V44.21V44.2098V44.2097V44.2096V44.2095V44.2093V44.2092V44.2091V44.209V44.2088V44.2087V44.2086V44.2085V44.2083V44.2082V44.2081V44.2079V44.2078V44.2077V44.2075V44.2074V44.2073V44.2071V44.207V44.2069V44.2067V44.2066V44.2064V44.2063V44.2062V44.206V44.2059V44.2057V44.2056V44.2055V44.2053V44.2052V44.205V44.2049V44.2048V44.2046V44.2045V44.2043V44.2042V44.204V44.2039V44.2037V44.2036V44.2034V44.2033V44.2031V44.203V44.2028V44.2027V44.2025V44.2024V44.2022V44.2021V44.2019V44.2018V44.2016V44.2015V44.2013V44.2011V44.201V44.2008V44.2007V44.2005V44.2004V44.2002V44.2V44.1999V44.1997V44.1996V44.1994V44.1992V44.1991V44.1989V44.1987V44.1986V44.1984V44.1983V44.1981V44.1979V44.1978V44.1976V44.1974V44.1973V44.1971V44.1969V44.1968V44.1966V44.1964V44.1963V44.1961V44.1959V44.1957V44.1956V44.1954V44.1952V44.1951V44.1949V44.1947V44.1945V44.1944V44.1942V44.194V44.1938V44.1937V44.1935V44.1933V44.1931V44.193V44.1928V44.1926V44.1924V44.1922V44.1921V44.1919V44.1917V44.1915V44.1913V44.1912V44.191V44.1908V44.1906V44.1904V44.1902V44.1901V44.1899V44.1897V44.1895V44.1893V44.1891V44.189V44.1888V44.1886V44.1884V44.1882V44.188V44.1878V44.1876V44.1875V44.1873V44.1871V44.1869V44.1867V44.1865V44.1863V44.1861V44.1859V44.1858V44.1856V44.1854V44.1852V44.185V44.1848V44.1846V44.1844V44.1842V44.184V44.1838V44.1836V44.1834V44.1832V44.183V44.1828V44.1826V44.1824V44.1823V44.1821V44.1819V44.1817V44.1815V44.1813V44.1811V44.1809V44.1807V44.1805V44.1803V44.1801V44.1799V44.1797V44.1795V44.1793V44.1791V44.1789V44.1787V44.1785V44.1783V44.1781V44.1778V44.1776V44.1774V44.1772V44.177V44.1768V44.1766V44.1764V44.1762V44.176V44.1758V44.1756V44.1754V44.1752V44.175V44.1748V44.1746V44.1744V44.1742V44.1739V44.1737V44.1735V44.1733V44.1731V44.1729V44.1727V44.1725V44.1723V44.1721V44.1719V44.1716V44.1714V44.1712V44.171V44.1708V44.1706V44.1704V44.1702V44.17V44.1697V44.1695V44.1693V44.1691V44.1689V44.1687V44.1685V44.1683V44.168V44.1678V44.1676V44.1674V44.1672V44.167V44.1668V44.1665V44.1663V44.1661V44.1659V44.1657V44.1655V44.1653V44.165V44.1648V44.1646V44.1644V44.1642V44.164V44.1637V44.1635V44.1633V44.1631V44.1629V44.1627V44.1624V44.1622V44.162V44.1618V44.1616V44.1613V44.1611V44.1609V44.1607V44.1605V44.1603V44.16V44.1598V44.1596V44.1594V44.1592V44.1589V44.1587V44.1585V44.1583V44.1581V44.1578V44.1576V44.1574V44.1572V44.157V44.1567V44.1565V44.1563V44.1561V44.1559V44.1556V44.1554V44.1552V44.155V44.1548V44.1545V44.1543V44.1541V44.1539V44.1536V44.1534V44.1532V44.153V44.1528V44.1525V44.1523V44.1521V44.1519V44.1517V44.1514V44.1512V44.151V44.1508V44.1505V44.1503V44.1501V44.1499V44.1497V44.1494V44.1492V44.149V44.1488V44.1485V44.1483V44.1481V44.1479V44.1476V44.1474V44.1472V44.147V44.1468V44.1465V44.1463V44.1461V44.1459V44.1456V44.1454V44.1452V44.145C31.318 43.9378 31.2764 43.7319 31.1949 43.5282C31.0284 43.1117 30.6561 42.7811 30.2402 42.6563C29.8207 42.5305 29.3641 42.6155 28.9942 42.8622L28.9941 42.8621L28.9905 42.8647C27.782 43.7333 25.9033 44.7831 23.7691 44.9329L23.7582 44.9337L23.7476 44.9363C23.5559 44.9842 23.3867 45.1373 23.3867 45.3618C23.3867 45.5829 23.5568 45.753 23.7779 45.753Z" fill="#0F304D" stroke="#0F304D" stroke-width="0.25"/>
<path d="M22.2791 43.907L22.2716 43.9079L22.2642 43.9098C22.1633 43.935 22.0797 43.988 22.0224 44.0668C21.9657 44.1447 21.9414 44.2385 21.9414 44.3352C21.9414 44.5304 22.1242 44.6884 22.3326 44.6884H22.3326H22.3326H22.3326H22.3326H22.3326H22.3326H22.3326H22.3326H22.3326H22.3326H22.3327H22.3327H22.3327H22.3327H22.3327H22.3327H22.3327H22.3328H22.3328H22.3328H22.3328H22.3328H22.3328H22.3328H22.3329H22.3329H22.3329H22.3329H22.333H22.333H22.333H22.333H22.3331H22.3331H22.3331H22.3331H22.3332H22.3332H22.3332H22.3332H22.3333H22.3333H22.3333H22.3334H22.3334H22.3334H22.3335H22.3335H22.3335H22.3335H22.3336H22.3336H22.3336H22.3337H22.3337H22.3337H22.3338H22.3338H22.3338H22.3339H22.3339H22.3339H22.334H22.334H22.3341H22.3341H22.3341H22.3341H22.3342H22.3342H22.3343H22.3343H22.3343H22.3344H22.3344H22.3345H22.3345H22.3345H22.3346H22.3346H22.3347H22.3347H22.3348H22.3348H22.3349H22.3349H22.3349H22.335H22.335H22.3351H22.3351H22.3352H22.3352H22.3353H22.3353H22.3353H22.3354H22.3354H22.3355H22.3355H22.3355H22.3356H22.3357H22.3357H22.3357H22.3358H22.3358H22.3359H22.3359H22.336H22.336H22.3361H22.3361H22.3361H22.3362H22.3363H22.3363H22.3363H22.3364H22.3365H22.3365H22.3365H22.3366H22.3367H22.3367H22.3367H22.3368H22.3369H22.3369H22.3369H22.337H22.337H22.3371H22.3371H22.3372H22.3372H22.3373H22.3373H22.3374H22.3374H22.3375H22.3375H22.3376H22.3376H22.3377H22.3377H22.3378H22.3378H22.3379H22.3379H22.338H22.338H22.3381H22.3381H22.3382H22.3382H22.3383H22.3383H22.3384H22.3384H22.3385H22.3385H22.3386H22.3386H22.3387H22.3387H22.3388H22.3389H22.3389H22.3389H22.339H22.339H22.3391H22.3391H22.3392H22.3392H22.3393H22.3394H22.3394H22.3394H22.3395H22.3395H22.3396H22.3397H22.3397H22.3397H22.3398H22.3398H22.3399H22.34H22.34H22.34H22.3401H22.3402H22.3402H22.3402H22.3403H22.3403H22.3404H22.3405H22.3405H22.3405H22.3406H22.3406H22.3407H22.3408H22.3408H22.3408H22.3409H22.3409H22.341H22.3411H22.3411H22.3411H22.3412H22.3412H22.3413H22.3414H22.3414H22.3414H22.3415H22.3415H22.3416H22.3417H22.3417H22.3417H22.3418H22.3418H22.3419H22.3419H22.342H22.342H22.3421H22.3421H22.3422H22.3422H22.3422H22.3423H22.3423H22.3424H22.3425H22.3425H22.3425H22.3426H22.3426H22.3427H22.3427H22.3428H22.3428H22.3429H22.3429H22.343H22.343H22.343H22.3431H22.3431H22.3432H22.3433H22.3433H22.3433H22.3434H22.3434H22.3435H22.3435H22.3436H22.3436H22.3436H22.3437H22.3437H22.3438H22.3438H22.3439H22.3439H22.344H22.344H22.344H22.3441H22.3441H22.3442H22.3442H22.3443H22.3443H22.3444H22.3444H22.3445H22.3445H22.3445H22.3446H22.3447H22.3447H22.3447H22.3448H22.3448H22.3449H22.3449H22.3449H22.345H22.345H22.3451H22.3451H22.3451H22.3452H22.3452H22.3453H22.3453H22.3453H22.3454H22.3454H22.3455H22.3455H22.3455H22.3456H22.3456H22.3457H22.3457H22.3457H22.3458H22.3458H22.3458H22.3459H22.3459H22.3459H22.346H22.346H22.346H22.3461H22.3461H22.3461H22.3462H22.3463H22.3463H22.3463H22.3464H22.3464H22.3464H22.3465H22.3465H22.3465H22.3466H22.3466H22.3466H22.3467H22.3467H22.3467H22.3468H22.3468H22.3468H22.3469H22.3469H22.3469H22.347H22.347H22.347H22.3471H22.3471H22.3471H22.3472H22.3472H22.3472H22.3472H22.3473H22.3473H22.3473H22.3474H22.3474H22.3474H22.3474H22.3475H22.3475H22.3475H22.3476H22.3476H22.3476H22.3476H22.3477H22.3477H22.3477H22.3478H22.3478H22.3478H22.3478H22.3479H22.3479H22.3479H22.3479H22.348H22.348H22.348H22.348H22.3481H22.3481H22.3481H22.3482H22.3482H22.3482H22.3482H22.3483H22.3483H22.3483H22.3483H22.3484H22.3484H22.3484H22.3484H22.3485H22.3485H22.3485H22.3485H22.3485H22.3485H22.3486H22.3486H22.3486H22.3486H22.3486H22.3487H22.3487H22.3487H22.3487H22.3487H22.3487H22.3488H22.3488H22.3488H22.3488H22.3488H22.3489H22.3489H22.3489H22.3489H22.3489H22.349H22.349H22.349H22.349H22.349H22.349H22.349H22.3491H22.3491H22.3491H22.3491H22.3491H22.3491H22.3491H22.3492H22.3492H22.3492H22.3492H22.3492H22.3492H22.3492H22.3492H22.3492H22.3493H22.3493H22.3493H22.3493H22.3493H22.3493H22.3493H22.3493H22.3493H22.3493H22.3494H22.3494H22.3494H22.3494H22.3494H22.3494H22.3494H22.3494H22.3494H22.3494H22.3494H22.3494H22.3494H22.3494H22.3494H22.3494H22.3495H22.3495H22.3495H22.3495H22.3495H22.3495H22.3495H22.3495H22.3495H22.3495L22.3495 44.6873C23.6973 44.5328 25.0796 44.0712 26.4198 43.382C26.6259 43.2791 26.8089 43.2546 26.9876 43.3422C27.1471 43.4392 27.2786 43.6017 27.3459 43.8372L27.3491 43.8484L27.3543 43.8588C27.3773 43.9048 27.3791 43.9518 27.3791 44.031V44.0552C27.3566 44.1652 27.3869 44.2658 27.4501 44.3431C27.5137 44.4208 27.6062 44.4706 27.702 44.4945C27.8184 44.5236 27.9252 44.4936 28.0063 44.4272C28.084 44.3636 28.1338 44.2711 28.1577 44.1754L28.1615 44.1605V44.1451V44.1449V44.1446V44.1444V44.1442V44.144V44.1437V44.1435V44.1433V44.1431V44.1428V44.1426V44.1424V44.1421V44.1419V44.1417V44.1414V44.1412V44.1409V44.1407V44.1405V44.1402V44.14V44.1397V44.1395V44.1393V44.139V44.1388V44.1385V44.1383V44.138V44.1378V44.1375V44.1373V44.137V44.1368V44.1365V44.1363V44.136V44.1358V44.1355V44.1353V44.135V44.1348V44.1345V44.1342V44.134V44.1337V44.1335V44.1332V44.1329V44.1327V44.1324V44.1322V44.1319V44.1316V44.1314V44.1311V44.1308V44.1306V44.1303V44.13V44.1297V44.1295V44.1292V44.1289V44.1287V44.1284V44.1281V44.1278V44.1276V44.1273V44.127V44.1267V44.1265V44.1262V44.1259V44.1256V44.1253V44.1251V44.1248V44.1245V44.1242V44.1239V44.1236V44.1234V44.1231V44.1228V44.1225V44.1222V44.1219V44.1216V44.1214V44.1211V44.1208V44.1205V44.1202V44.1199V44.1196V44.1193V44.119V44.1187V44.1184V44.1182V44.1179V44.1176V44.1173V44.117V44.1167V44.1164V44.1161V44.1158V44.1155V44.1152V44.1149V44.1146V44.1143V44.114V44.1137V44.1134V44.1131V44.1128V44.1125V44.1122V44.1119V44.1116V44.1112V44.1109V44.1106V44.1103V44.11V44.1097V44.1094V44.1091V44.1088V44.1085V44.1082V44.1079V44.1076V44.1072V44.1069V44.1066V44.1063V44.106V44.1057V44.1054V44.1051V44.1047V44.1044V44.1041V44.1038V44.1035V44.1032V44.1029V44.1025V44.1022V44.1019V44.1016V44.1013V44.1009V44.1006V44.1003V44.1V44.0997V44.0994V44.099V44.0987V44.0984V44.0981V44.0977V44.0974V44.0971V44.0968V44.0965V44.0961V44.0958V44.0955V44.0952V44.0948V44.0945V44.0942V44.0939V44.0935V44.0932V44.0929V44.0926V44.0922V44.0919V44.0916V44.0913V44.0909V44.0906V44.0903V44.09V44.0896V44.0893V44.089V44.0886V44.0883V44.088V44.0877V44.0873V44.087V44.0867V44.0863V44.086V44.0857V44.0854V44.085V44.0847V44.0844V44.084V44.0837V44.0834V44.083V44.0827V44.0824V44.082V44.0817V44.0814V44.0811V44.0807V44.0804V44.0801V44.0797V44.0794V44.0791V44.0787V44.0784V44.0781V44.0777V44.0774V44.0771V44.0767V44.0764V44.0761V44.0757V44.0754V44.0751V44.0747V44.0744V44.0741V44.0737V44.0734V44.0731V44.0727V44.0724V44.0721V44.0717V44.0714V44.0711V44.0707V44.0704V44.07V44.0697V44.0694V44.069V44.0687V44.0684V44.068V44.0677V44.0674V44.067V44.0667V44.0664V44.066V44.0657V44.0654V44.065V44.0647V44.0644V44.064V44.0637V44.0634V44.063V44.0627V44.0624V44.062V44.0617V44.0614V44.061V44.0607V44.0604V44.06V44.0597V44.0594V44.059V44.0587V44.0584V44.058V44.0577V44.0574V44.057V44.0567V44.0564V44.056V44.0557V44.0554V44.0551V44.0547V44.0544V44.0541V44.0537V44.0534V44.0531V44.0527V44.0524V44.0521V44.0517V44.0514V44.0511V44.0508V44.0504V44.0501V44.0498V44.0494V44.0491V44.0488V44.0485V44.0481V44.0478V44.0475V44.0472V44.0468V44.0465V44.0462V44.0458V44.0455V44.0452V44.0449V44.0445V44.0442V44.0439V44.0436V44.0432V44.0429V44.0426V44.0423V44.042V44.0416V44.0413V44.041V44.0407V44.0403V44.04V44.0397V44.0394V44.0391V44.0387V44.0384V44.0381V44.0378V44.0375V44.0371V44.0368V44.0365V44.0362V44.0359V44.0356V44.0352V44.0349V44.0346V44.0343V44.034V44.0337V44.0334V44.033V44.0327V44.0324V44.0321V44.0318V44.0315V44.0312V44.0309V44.0305V44.0302V44.0299V44.0296V44.0293V44.029V44.0287V44.0284V44.0281V44.0278V44.0275V44.0272V44.0268V44.0265V44.0262V44.0259V44.0256V44.0253V44.025V44.0247V44.0244V44.0241V44.0238V44.0235V44.0232V44.0229V44.0226V44.0223V44.022V44.0217V44.0214V44.0211V44.0208V44.0205V44.0202V44.0199V44.0196V44.0194V44.0191V44.0188V44.0185V44.0182V44.0179V44.0176V44.0173V44.017V44.0167V44.0164V44.0162V44.0159V44.0156V44.0153V44.015V44.0147V44.0144V44.0142V44.0139V44.0136V44.0133V44.013V44.0128V44.0125V44.0122V44.0119V44.0116V44.0114V44.0111V44.0108V44.0105V44.0103V44.01V44.0097V44.0094V44.0092V44.0089V44.0086V44.0083V44.0081V44.0078V44.0075V44.0073V44.007V44.0067V44.0065V44.0062V44.0059V44.0057V44.0054V44.0052V44.0049V44.0046V44.0044V44.0041V44.0039V44.0036V44.0033V44.0031V44.0028V44.0026V44.0023V44.0021V44.0018V44.0016V44.0013V44.0011V44.0008V44.0006V44.0003V44.0001V43.9998V43.9996V43.9993V43.9991V43.9988V43.9986V43.9983V43.9981V43.9979V43.9976V43.9974V43.9971V43.9969V43.9967V43.9964V43.9962V43.996V43.9957V43.9955V43.9953V43.995V43.9948V43.9946V43.9943V43.9941V43.9939V43.9937V43.9934V43.9932V43.993L28.1615 43.986C28.1615 43.8785 28.1615 43.7504 28.1199 43.6199C28.0348 43.1673 27.7441 42.7917 27.3246 42.623C26.9483 42.4565 26.4919 42.4581 26.0793 42.6644L26.0793 42.6644L26.078 42.665C24.7577 43.344 23.4789 43.757 22.2791 43.907Z" fill="#0F304D" stroke="#0F304D" stroke-width="0.25"/>
<path d="M3.24372 52.4071H5.90553C6.12667 52.4071 6.29672 52.237 6.29672 52.0159V50.685C6.29672 49.7413 5.51826 48.9629 4.57463 48.9629C3.631 48.9629 2.85254 49.7413 2.85254 50.685V52.0159C2.85254 52.237 3.02258 52.4071 3.24372 52.4071ZM5.47633 50.685V51.6247H3.59688V50.685C3.59688 50.1456 3.99722 49.7453 4.5366 49.7453C5.07309 49.7453 5.47633 50.1807 5.47633 50.685Z" fill="#0F304D" stroke="#0F304D" stroke-width="0.25"/>
<path d="M16.875 33.4028C16.875 36.9867 19.7867 39.9307 23.4028 39.9307C27.0177 39.9307 29.9624 36.9878 29.9307 33.4023C29.9304 29.8186 27.0187 26.875 23.4028 26.875C19.8189 26.875 16.875 29.7867 16.875 33.4028ZM17.5644 33.4028C17.5644 30.1763 20.1763 27.5644 23.4028 27.5644C26.6294 27.5644 29.2413 30.1763 29.2413 33.4028C29.2413 36.6294 26.6294 39.2413 23.4028 39.2413C20.1763 39.2413 17.5644 36.6294 17.5644 33.4028Z" fill="#0F304D" stroke="#0F304D" stroke-width="0.25"/>
<path d="M21.6144 34.7208C21.6144 35.6466 22.4334 36.3837 23.4029 36.3837C24.3724 36.3837 25.1914 35.6466 25.1914 34.7208C25.1914 33.795 24.3724 33.0578 23.4029 33.0578C22.8037 33.0578 22.3352 32.6029 22.3352 32.0843C22.3352 31.5657 22.8037 31.1108 23.4029 31.1108C24.002 31.1108 24.4706 31.5657 24.4706 32.0843C24.4706 32.2789 24.6207 32.429 24.8153 32.429C25.0098 32.429 25.16 32.2789 25.16 32.0843C25.16 31.1585 24.341 30.4214 23.3715 30.4214C22.402 30.4214 21.583 31.1585 21.583 32.0843C21.583 33.0101 22.402 33.7473 23.3715 33.7473C23.9706 33.7473 24.4392 34.2022 24.4392 34.7208C24.4392 35.2394 23.9706 35.6943 23.3715 35.6943C22.7724 35.6943 22.3038 35.2394 22.3038 34.7208C22.3038 34.5262 22.1537 34.3761 21.9591 34.3761C21.7645 34.3761 21.6144 34.5262 21.6144 34.7208Z" fill="#0F304D" stroke="#0F304D" stroke-width="0.25"/>
<path d="M23.0581 36.6982C23.0581 36.8927 23.2082 37.0429 23.4028 37.0429C23.5974 37.0429 23.7475 36.8927 23.7475 36.6982V36.039C23.7475 35.8445 23.5974 35.6943 23.4028 35.6943C23.2082 35.6943 23.0581 35.8445 23.0581 36.039V36.6982Z" fill="#0F304D" stroke="#0F304D" stroke-width="0.25"/>
<path d="M23.0581 30.766C23.0581 30.9606 23.2082 31.1107 23.4028 31.1107C23.5974 31.1107 23.7475 30.9606 23.7475 30.766V30.1069C23.7475 29.9123 23.5974 29.7622 23.4028 29.7622C23.2082 29.7622 23.0581 29.9123 23.0581 30.1069V30.766Z" fill="#0F304D" stroke="#0F304D" stroke-width="0.25"/>
<path d="M7.875 20.5C7.875 24.1373 10.8301 27.125 14.5 27.125C18.1687 27.125 21.1572 24.1383 21.125 20.4994C21.1247 16.8624 18.1697 13.875 14.5 13.875C10.8627 13.875 7.875 16.8301 7.875 20.5ZM8.57108 20.5C8.57108 17.2234 11.2234 14.5711 14.5 14.5711C17.7766 14.5711 20.4289 17.2234 20.4289 20.5C20.4289 23.7766 17.7766 26.4289 14.5 26.4289C11.2234 26.4289 8.57108 23.7766 8.57108 20.5Z" fill="#0F304D" stroke="#0F304D" stroke-width="0.25"/>
<path d="M12.6866 21.8383C12.6866 22.777 13.5171 23.5246 14.5004 23.5246C15.4837 23.5246 16.3141 22.777 16.3141 21.8383C16.3141 20.8996 15.4837 20.1521 14.5004 20.1521C13.8912 20.1521 13.4146 19.6895 13.4146 19.1619C13.4146 18.6342 13.8912 18.1717 14.5004 18.1717C15.1095 18.1717 15.5862 18.6342 15.5862 19.1619C15.5862 19.3583 15.7377 19.5099 15.9342 19.5099C16.1307 19.5099 16.2822 19.3583 16.2822 19.1619C16.2822 18.2232 15.4518 17.4756 14.4685 17.4756C13.4852 17.4756 12.6548 18.2232 12.6548 19.1619C12.6548 20.1005 13.4852 20.8481 14.4685 20.8481C15.0776 20.8481 15.5543 21.3107 15.5543 21.8383C15.5543 22.366 15.0776 22.8285 14.4685 22.8285C13.8594 22.8285 13.3827 22.366 13.3827 21.8383C13.3827 21.6418 13.2312 21.4903 13.0347 21.4903C12.8382 21.4903 12.6866 21.6418 12.6866 21.8383Z" fill="#0F304D" stroke="#0F304D" stroke-width="0.25"/>
<path d="M14.1523 23.8458C14.1523 24.0423 14.3039 24.1938 14.5004 24.1938C14.6969 24.1938 14.8484 24.0423 14.8484 23.8458V23.1767C14.8484 22.9802 14.6969 22.8286 14.5004 22.8286C14.3039 22.8286 14.1523 22.9802 14.1523 23.1767V23.8458Z" fill="#0F304D" stroke="#0F304D" stroke-width="0.25"/>
<path d="M14.1523 17.8238C14.1523 18.0203 14.3039 18.1718 14.5004 18.1718C14.6969 18.1718 14.8484 18.0203 14.8484 17.8238V17.1547C14.8484 16.9582 14.6969 16.8066 14.5004 16.8066C14.3039 16.8066 14.1523 16.9582 14.1523 17.1547V17.8238Z" fill="#0F304D" stroke="#0F304D" stroke-width="0.25"/>
<path d="M16.875 7.5C16.875 11.1373 19.8301 14.125 23.5 14.125C27.1687 14.125 30.1572 11.1383 30.125 7.49944C30.1247 3.86243 27.1697 0.875 23.5 0.875C19.8627 0.875 16.875 3.83008 16.875 7.5ZM17.5711 7.5C17.5711 4.22345 20.2234 1.57108 23.5 1.57108C26.7766 1.57108 29.4289 4.22345 29.4289 7.5C29.4289 10.7766 26.7766 13.4289 23.5 13.4289C20.2234 13.4289 17.5711 10.7766 17.5711 7.5Z" fill="#0F304D" stroke="#0F304D" stroke-width="0.25"/>
<path d="M21.6866 8.83833C21.6866 9.77701 22.5171 10.5246 23.5004 10.5246C24.4837 10.5246 25.3141 9.77701 25.3141 8.83833C25.3141 7.89965 24.4837 7.15206 23.5004 7.15206C22.8912 7.15206 22.4146 6.6895 22.4146 6.16186C22.4146 5.63423 22.8912 5.17166 23.5004 5.17166C24.1095 5.17166 24.5862 5.63422 24.5862 6.16186C24.5862 6.35835 24.7377 6.5099 24.9342 6.5099C25.1307 6.5099 25.2822 6.35835 25.2822 6.16186C25.2822 5.22318 24.4518 4.47559 23.4685 4.47559C22.4852 4.47559 21.6548 5.22318 21.6548 6.16186C21.6548 7.10054 22.4852 7.84813 23.4685 7.84813C24.0776 7.84813 24.5543 8.31069 24.5543 8.83833C24.5543 9.36597 24.0776 9.82853 23.4685 9.82853C22.8594 9.82853 22.3827 9.36597 22.3827 8.83833C22.3827 8.64184 22.2312 8.49029 22.0347 8.49029C21.8382 8.49029 21.6866 8.64184 21.6866 8.83833Z" fill="#0F304D" stroke="#0F304D" stroke-width="0.25"/>
<path d="M23.1523 10.8458C23.1523 11.0423 23.3039 11.1938 23.5004 11.1938C23.6969 11.1938 23.8484 11.0423 23.8484 10.8458V10.1767C23.8484 9.98017 23.6969 9.82861 23.5004 9.82861C23.3039 9.82861 23.1523 9.98017 23.1523 10.1767V10.8458Z" fill="#0F304D" stroke="#0F304D" stroke-width="0.25"/>
<path d="M23.1523 4.8238C23.1523 5.02028 23.3039 5.17184 23.5004 5.17184C23.6969 5.17184 23.8484 5.02028 23.8484 4.8238V4.15468C23.8484 3.95819 23.6969 3.80664 23.5004 3.80664C23.3039 3.80664 23.1523 3.95819 23.1523 4.15468V4.8238Z" fill="#0F304D" stroke="#0F304D" stroke-width="0.25"/>
</svg>
