<svg width="135" height="136" viewBox="0 0 135 136" fill="none" xmlns="http://www.w3.org/2000/svg">
<path d="M67.5 135.013C58.391 135.013 49.5461 133.226 41.2171 129.703C33.1775 126.306 25.9557 121.437 19.7656 115.247C13.5755 109.057 8.70643 101.835 5.30941 93.7954C1.78658 85.4539 0 76.609 0 67.5C0 57.9884 1.95014 48.7787 5.77493 40.1351C9.4739 31.7936 14.7456 24.3956 21.439 18.1552C33.9828 6.45433 50.3388 0 67.5 0C76.609 0 85.4539 1.78658 93.7829 5.30941C101.822 8.70643 109.044 13.5755 115.234 19.7656C121.425 25.9557 126.294 33.1775 129.691 41.2172C133.213 49.5461 135 58.391 135 67.5C135 76.609 133.213 85.4539 129.691 93.7829C126.294 101.822 121.425 109.044 115.234 115.234C109.044 121.425 101.822 126.294 93.7829 129.691C85.4539 133.226 76.609 135.013 67.5 135.013ZM67.5 28.3085C57.5354 28.3085 48.0363 32.0578 40.7516 38.8518C36.8639 42.4879 33.794 46.7908 31.6426 51.6221C29.4282 56.6295 28.2959 61.9641 28.2959 67.5C28.2959 77.9678 32.3723 87.8066 39.7703 95.2172C47.1682 102.615 57.0196 106.692 67.4874 106.692C77.9553 106.692 87.794 102.615 95.2046 95.2172C102.603 87.8192 106.679 77.9678 106.679 67.5C106.679 57.0322 102.603 47.1934 95.2046 39.7829C87.8192 32.3849 77.9678 28.3085 67.5 28.3085Z" fill="#C5E16F"/>
<path d="M37.0526 37.8579C32.5736 37.8579 28.1826 35.7442 25.4272 31.7936C20.9608 25.377 22.5335 16.5573 28.9501 12.0909C40.2986 4.17707 53.6351 0 67.4999 0C75.3257 0 81.6542 6.3411 81.6542 14.1542C81.6542 21.9674 75.3257 28.3085 67.4999 28.3085C59.4478 28.3085 51.7101 30.7367 45.13 35.3164C42.664 37.0275 39.8457 37.8579 37.0526 37.8579Z" fill="#62BB46"/>
</svg>
