<svg width="53" height="53" viewBox="0 0 53 53" fill="none" xmlns="http://www.w3.org/2000/svg">
<path d="M40.4389 27.8779C33.4959 27.8779 27.8779 33.4959 27.8779 40.4389C27.8779 47.3819 33.4959 52.9999 40.4389 52.9999C47.3819 52.9999 52.9999 47.3819 52.9999 40.4389C52.9999 33.4959 47.3819 27.8779 40.4389 27.8779ZM40.4389 52.2049C33.9729 52.2049 28.7259 46.9049 28.7259 40.4389C28.7259 33.9729 33.9729 28.6729 40.4389 28.6729C46.9049 28.6729 52.1519 33.9729 52.1519 40.4389C52.2049 46.9049 46.9049 52.2049 40.4389 52.2049Z" fill="#0F304D"/>
<path d="M40.4392 30.8457C35.1392 30.8457 30.8462 35.1387 30.8462 40.4387C30.8462 45.7387 35.1392 50.0317 40.4392 50.0317C45.7392 50.0317 50.0322 45.7387 50.0322 40.4387C50.0322 35.1387 45.7392 30.8457 40.4392 30.8457ZM40.4392 49.1837C35.6162 49.1837 31.6942 45.2617 31.6942 40.3857C31.6942 35.5097 35.6162 31.6407 40.4392 31.6407C45.2622 31.6407 49.1842 35.5627 49.1842 40.3857C49.1842 45.2087 45.2622 49.1837 40.4392 49.1837Z" fill="#0F304D"/>
<path d="M12.561 0C5.618 0 0 5.618 0 12.561C0 19.504 5.618 25.122 12.561 25.122C19.504 25.122 25.122 19.504 25.122 12.561C25.122 5.618 19.451 0 12.561 0ZM12.561 24.327C6.095 24.327 0.848 19.027 0.848 12.561C0.848 6.095 6.095 0.795 12.561 0.795C19.027 0.795 24.274 6.095 24.274 12.561C24.274 19.027 19.027 24.327 12.561 24.327Z" fill="#0F304D"/>
<path d="M12.5608 2.96777C7.26077 2.96777 2.96777 7.26077 2.96777 12.5608C2.96777 17.8608 7.26077 22.1538 12.5608 22.1538C17.8608 22.1538 22.1538 17.8608 22.1538 12.5608C22.1008 7.26077 17.8078 2.96777 12.5608 2.96777ZM12.5608 21.3588C7.73777 21.3588 3.81577 17.4368 3.81577 12.6138C3.81577 7.79077 7.73777 3.81577 12.5608 3.81577C17.3838 3.81577 21.3058 7.73777 21.3058 12.6138C21.3058 17.4898 17.3838 21.3588 12.5608 21.3588Z" fill="#0F304D"/>
<path d="M40.757 18.3379C40.598 18.1789 40.333 18.1789 40.174 18.3379C40.015 18.4969 40.015 18.7619 40.174 18.9209L42.93 21.6769C42.983 21.7829 43.142 21.8889 43.301 21.8889C43.46 21.8889 43.566 21.7829 43.672 21.6769L46.428 18.9209C46.587 18.7619 46.587 18.4969 46.428 18.3379C46.269 18.1789 46.004 18.1789 45.845 18.3379L43.725 20.4579V8.53289C43.725 8.32089 43.566 8.10889 43.301 8.10889H31.694C31.482 8.10889 31.27 8.26789 31.27 8.53289C31.27 8.74489 31.429 8.95689 31.694 8.95689H42.93V20.4579L40.757 18.3379Z" fill="#0F304D"/>
<path d="M21.3059 44.0428H10.0699V32.5418L12.1899 34.6618C12.2959 34.7678 12.3489 34.7678 12.4549 34.7678C12.5609 34.7678 12.6669 34.7148 12.7199 34.6618C12.8789 34.5028 12.8789 34.2378 12.7199 34.0788L9.96393 31.3228C9.91093 31.2168 9.75193 31.1108 9.59293 31.1108C9.43393 31.1108 9.32793 31.2168 9.22193 31.3228L6.46593 34.0788C6.30693 34.2378 6.30693 34.5028 6.46593 34.6618C6.62493 34.8208 6.88993 34.8208 7.04893 34.6618L9.16893 32.5418V44.4668C9.16893 44.6788 9.32793 44.8908 9.59293 44.8908H21.1999C21.4119 44.8908 21.6239 44.7318 21.6239 44.4668C21.6239 44.2018 21.5179 44.0428 21.3059 44.0428Z" fill="#0F304D"/>
<path d="M12.5611 8.53279C13.5681 8.53279 14.4161 9.38079 14.4161 10.3878C14.4161 10.5468 14.5751 10.7058 14.7341 10.7058C14.8931 10.7058 15.0521 10.5468 15.0521 10.3878C15.0521 9.11579 14.0981 8.10879 12.8791 7.94979V7.47279C12.8791 7.31379 12.7201 7.15479 12.5611 7.15479C12.4021 7.15479 12.2431 7.31379 12.2431 7.47279V7.94979C11.0241 8.10879 10.0701 9.11579 10.0701 10.3878C10.0701 11.7658 11.1831 12.8788 12.5081 12.8788C13.5151 12.8788 14.3631 13.7268 14.3631 14.7338C14.3631 15.7408 13.5151 16.5888 12.5081 16.5888C11.5011 16.5888 10.6531 15.7408 10.6531 14.7338C10.6531 14.5748 10.4941 14.4158 10.3351 14.4158C10.1761 14.4158 10.0171 14.5748 10.0171 14.7338C10.0171 16.0058 10.9711 17.0128 12.1901 17.1718V17.6488C12.1901 17.8078 12.3491 17.9668 12.5081 17.9668C12.6671 17.9668 12.8261 17.8078 12.8261 17.6488V17.1718C14.0451 17.0128 14.9991 16.0058 14.9991 14.7338C14.9991 13.3558 13.8861 12.2428 12.5611 12.2428C11.5541 12.2428 10.7061 11.3948 10.7061 10.3878C10.7061 9.38079 11.5011 8.53279 12.5611 8.53279Z" fill="#0F304D"/>
<path d="M40.439 36.4107C41.446 36.4107 42.294 37.2587 42.294 38.2657C42.294 38.4247 42.453 38.5837 42.612 38.5837C42.771 38.5837 42.93 38.4247 42.93 38.2657C42.93 36.9937 41.976 35.9867 40.757 35.8277V35.3507C40.757 35.1917 40.598 35.0327 40.439 35.0327C40.28 35.0327 40.121 35.1917 40.121 35.3507V35.8277C38.902 35.9867 37.948 36.9937 37.948 38.2657C37.948 39.6437 39.061 40.7567 40.386 40.7567C41.393 40.7567 42.241 41.6047 42.241 42.6117C42.241 43.6187 41.393 44.4667 40.386 44.4667C39.379 44.4667 38.531 43.6187 38.531 42.6117C38.531 42.4527 38.372 42.2937 38.213 42.2937C38.054 42.2937 37.895 42.4527 37.895 42.6117C37.895 43.8837 38.849 44.8907 40.068 45.0497V45.5267C40.068 45.6857 40.227 45.8447 40.386 45.8447C40.545 45.8447 40.704 45.6857 40.704 45.5267V45.0497C41.923 44.8907 42.877 43.8837 42.877 42.6117C42.877 41.2337 41.764 40.1207 40.439 40.1207C39.432 40.1207 38.584 39.2727 38.584 38.2657C38.584 37.2057 39.432 36.4107 40.439 36.4107Z" fill="#0F304D"/>
</svg>
