<svg width="59" height="59" viewBox="0 0 59 59" fill="none" xmlns="http://www.w3.org/2000/svg">
<g clip-path="url(#clip0)">
<path d="M39.1567 10.9039C39.2156 11.0218 39.2745 11.1397 39.3923 11.1987C44.1028 13.7331 47.7535 18.1537 49.4023 23.2816C49.4611 23.3995 49.52 23.5173 49.6378 23.5763C49.6967 23.5763 49.7555 23.6352 49.8144 23.6352C49.8733 23.6352 49.9322 23.6352 50.05 23.5763L56.7037 20.1577C56.7625 20.0988 56.8803 20.0988 56.9392 20.0398C57.0569 19.9809 57.1747 19.9219 57.2336 19.804C57.2925 19.6862 57.2925 19.5683 57.2336 19.4504C54.6428 12.4364 49.5789 6.71913 42.9841 3.30055C42.8663 3.24161 42.7486 3.24161 42.6308 3.30055C42.513 3.35949 42.3953 3.41844 42.3364 3.53632L39.2156 10.5503C39.1567 10.6682 39.1567 10.7861 39.1567 10.9039ZM42.9841 4.36149C49.049 7.60325 53.7007 12.9079 56.1737 19.3325L50.05 22.4564C48.3424 17.5053 44.7506 13.2027 40.1577 10.6092L42.9841 4.36149Z" fill="#0F304D" stroke="#0F304D" stroke-width="0.25" stroke-miterlimit="10"/>
<path d="M27.498 58.941C27.6158 58.941 27.7335 58.882 27.7924 58.8231C27.9102 58.7642 27.9102 58.6463 27.9102 58.4694V50.8071C27.9102 50.6892 27.9102 50.5713 27.7924 50.4535C27.7335 50.3356 27.6158 50.2766 27.498 50.2766C21.6098 49.6872 16.1926 46.6223 12.6597 41.7891C12.6008 41.6712 12.483 41.6123 12.3064 41.6123C12.1886 41.6123 12.0709 41.6712 11.9531 41.7302L6.83034 47.1528C6.77146 47.2117 6.71258 47.2706 6.6537 47.3296C6.53593 47.3885 6.47705 47.5064 6.47705 47.6243C6.47705 47.7422 6.47705 47.8601 6.59482 47.9779C11.6587 54.4025 19.3134 58.3516 27.498 58.941C27.4391 58.941 27.4391 58.941 27.498 58.941ZM27.027 57.9979C19.4311 57.3496 12.4242 53.6363 7.53693 47.7422L12.3064 42.7911C15.8982 47.4475 21.1976 50.5124 27.027 51.1608V57.9979Z" fill="#0F304D"/>
<path d="M27.498 58.941C27.6158 58.941 27.7335 58.882 27.7924 58.8231C27.9102 58.7642 27.9102 58.6463 27.9102 58.4694V50.8071C27.9102 50.6892 27.9102 50.5713 27.7924 50.4535C27.7335 50.3356 27.6158 50.2766 27.498 50.2766C21.6098 49.6872 16.1926 46.6223 12.6597 41.7891C12.6008 41.6712 12.483 41.6123 12.3064 41.6123C12.1886 41.6123 12.0709 41.6712 11.9531 41.7302L6.83034 47.1528C6.77146 47.2117 6.71258 47.2706 6.6537 47.3296C6.53593 47.3885 6.47705 47.5064 6.47705 47.6243C6.47705 47.7422 6.47705 47.8601 6.59482 47.9779C11.6587 54.4025 19.3134 58.3516 27.498 58.941ZM27.498 58.941C27.4391 58.941 27.4391 58.941 27.498 58.941ZM27.027 57.9979C19.4311 57.3496 12.4242 53.6363 7.53693 47.7422L12.3064 42.7911C15.8982 47.4475 21.1976 50.5124 27.027 51.1608V57.9979Z" stroke="#0F304D" stroke-width="0.25" stroke-miterlimit="10"/>
<path d="M4.53384 44.7362C4.71049 44.7362 4.82825 44.6772 4.88714 44.6183L10.0099 39.2546C10.1277 39.1368 10.2454 39.0189 10.4221 38.9599C10.6576 38.8421 10.7165 38.6063 10.6576 38.3705C9.36219 35.6003 8.71448 32.6532 8.71448 29.5883C8.71448 29.4704 8.71448 29.3525 8.71448 29.1757C8.71448 29.0578 8.6556 28.94 8.59672 28.8221C8.42007 28.6453 8.12566 28.7042 7.83125 28.6453L0.76538 26.7002C0.647616 26.6413 0.470969 26.7002 0.412087 26.7591C0.294322 26.8181 0.23544 26.936 0.23544 27.1128C0.176558 27.879 0.117676 28.7042 0.117676 29.5294C0.117676 34.8341 1.53085 40.0209 4.23943 44.5004C4.23943 44.6772 4.3572 44.7362 4.53384 44.7362ZM1.05979 27.7022L7.59572 29.4704C7.6546 29.4704 7.71348 29.5294 7.77237 29.5294C7.77237 32.5943 8.42007 35.5414 9.6566 38.3705C9.53883 38.4295 9.47995 38.5474 9.36219 38.6063L4.65161 43.5573C2.23744 39.3136 1.00091 34.4804 1.00091 29.5294C1.00091 28.94 1.00091 28.2916 1.05979 27.7022Z" fill="#0F304D" stroke="#0F304D" stroke-width="0.25" stroke-miterlimit="10"/>
<path d="M1.17751 23.5762C1.23639 23.5762 1.29528 23.5762 1.35416 23.6352L8.53779 25.5802C8.59667 25.5802 8.59667 25.5802 8.65556 25.5802C8.71444 25.5802 8.8322 25.5802 8.89109 25.5213C9.00885 25.4623 9.06773 25.3444 9.12661 25.2266C11.1875 15.6781 19.7254 8.72307 29.4999 8.72307C31.6196 8.72307 33.6805 9.01778 35.6825 9.66613C35.918 9.72507 36.1536 9.60719 36.2124 9.43036L39.3921 2.35744C39.451 2.23955 39.451 2.12167 39.3921 2.00379C39.3332 1.88591 39.2154 1.76803 39.0977 1.76803C35.9769 0.707086 32.7384 0.117676 29.441 0.117676C22.7284 0.117676 16.1336 2.41638 10.952 6.66013C5.88809 10.786 2.23739 16.5622 0.824219 22.9868C0.824219 23.1047 0.824219 23.2226 0.883101 23.3405C0.941983 23.4583 1.05975 23.5173 1.17751 23.5762ZM29.4999 1.00179C32.5617 1.00179 35.5059 1.47332 38.3911 2.41638L35.5647 8.66413C33.5627 8.07472 31.5607 7.78001 29.4999 7.78001C19.4899 7.78001 10.6576 14.794 8.36115 24.5193L1.76633 22.751C4.88709 9.90189 16.2514 1.00179 29.4999 1.00179Z" fill="#0F304D" stroke="#0F304D" stroke-width="0.25" stroke-miterlimit="10"/>
<path d="M50.5799 26.7003C50.3443 26.7592 50.1677 26.9361 50.2266 27.1718C50.3443 27.9381 50.3443 28.7632 50.3443 29.5295C50.3443 40.3157 42.2186 49.2747 31.502 50.2767C31.3843 50.2767 31.2665 50.3357 31.2076 50.4535C31.1487 50.5714 31.0898 50.6893 31.0898 50.8072V58.4695C31.0898 58.5874 31.1487 58.7053 31.2076 58.8232C31.2665 58.8821 31.3843 58.9411 31.502 58.9411C31.502 58.9411 31.502 58.9411 31.5609 58.9411C46.9292 57.8801 58.9411 44.972 58.9411 29.5295C58.9411 27.4665 58.7056 25.4036 58.2934 23.4585C58.2934 23.3407 58.1757 23.2228 58.0579 23.1638C57.9401 23.1049 57.7635 23.1049 57.6457 23.1638L51.0509 26.5235C50.9332 26.6414 50.7565 26.6414 50.5799 26.7003ZM51.4631 27.3487L57.528 24.2248C57.8813 25.993 57.999 27.7612 57.999 29.5295C57.999 44.3237 46.5759 56.7013 31.9731 57.998V51.1608C42.9841 49.9231 51.2276 40.6693 51.2276 29.5295C51.2276 28.8222 51.1687 28.1149 51.1098 27.4665C51.2865 27.4665 51.3453 27.4076 51.4631 27.3487Z" fill="#0F304D" stroke="#0F304D" stroke-width="0.25" stroke-miterlimit="10"/>
</g>
<defs>
<clipPath id="clip0">
<rect width="59" height="59" fill="white"/>
</clipPath>
</defs>
</svg>
