<svg width="53" height="53" viewBox="0 0 53 53" fill="none" xmlns="http://www.w3.org/2000/svg">
<path d="M24.4131 23.7375C24.5684 23.8987 24.7788 23.9835 24.9929 23.9835C25.0947 23.9835 25.198 23.9644 25.2961 23.9241C25.6008 23.8011 25.8001 23.5059 25.8001 23.1768V3.45656C25.8001 3.01083 25.4387 2.6499 24.9929 2.6499C19.6378 2.6499 14.5668 4.70471 10.7147 8.43591C10.561 8.58643 10.473 8.78836 10.4693 9.00248C10.4661 9.2166 10.5478 9.42489 10.6972 9.57753L24.4131 23.7375ZM24.1852 4.2823V21.1819L12.4298 9.04753C15.6983 6.13518 19.8191 4.46462 24.1852 4.2823Z" fill="#0F304D"/>
<path d="M24.9285 27.3924C24.9503 27.1592 24.8692 26.9255 24.7049 26.7559L10.9874 12.5964C10.8385 12.4437 10.635 12.3547 10.4208 12.3521C10.2067 12.3542 10 12.4305 9.84685 12.5794C5.81726 16.4829 3.59814 21.7172 3.59814 27.3182C3.59814 31.5974 4.90724 35.7001 7.38181 39.1833C7.5387 39.4059 7.78832 39.5252 8.04113 39.5252C8.20172 39.5252 8.3655 39.4764 8.50701 39.3768L24.5914 27.9765C24.7844 27.8402 24.9073 27.6277 24.9285 27.3924ZM8.24466 37.5827C6.25821 34.5198 5.21252 30.99 5.21252 27.3182C5.21252 22.4279 7.04897 17.8413 10.4018 14.3109L22.8901 27.2032L8.24466 37.5827Z" fill="#0F304D"/>
<path d="M49.4012 29.3733C49.398 28.5009 49.3355 27.5946 49.2157 26.6799C49.1717 26.3444 49.1187 26.011 49.0599 25.6824C48.9274 24.9584 48.7599 24.2519 48.5649 23.5852C48.4795 23.2905 48.3863 22.9974 48.2872 22.7086C48.0741 22.0805 47.8266 21.4541 47.5536 20.8515C47.4354 20.5859 47.3109 20.3252 47.1816 20.0681C46.8991 19.5058 46.5864 18.9472 46.2493 18.4039C46.102 18.1659 45.9525 17.9327 45.7972 17.7054C45.4124 17.1388 44.9958 16.5865 44.5581 16.0624C44.3842 15.8546 44.2067 15.6484 44.0233 15.4449C43.621 14.9992 43.1875 14.5598 42.7354 14.1395C42.5372 13.9551 42.3347 13.7722 42.1291 13.5963C41.6643 13.1951 41.1761 12.8087 40.6817 12.4541C40.4564 12.2909 40.2296 12.1314 40.0011 11.983C39.4621 11.6242 38.9152 11.295 38.3799 11.0088C38.1292 10.8731 37.8748 10.7433 37.6182 10.6182C36.9621 10.2976 36.2805 10.0087 35.5926 9.76068C35.308 9.6568 35.0218 9.55716 34.7319 9.46759C34.062 9.25718 33.3682 9.07698 32.6681 8.93494C32.3458 8.86922 32.0209 8.81198 31.6918 8.75898C30.927 8.64238 30.1294 8.56553 29.3238 8.53585C29.045 8.52525 28.7657 8.51465 28.4848 8.51465C27.8228 8.51465 27.2854 9.05154 27.2854 9.71404V28.8126L11.7087 39.852C11.449 40.0348 11.2704 40.3168 11.2168 40.6353C11.1654 40.9496 11.2375 41.2633 11.4225 41.5268L11.5004 41.6306C11.8391 42.0997 12.2148 42.573 12.65 43.0781C12.8275 43.2842 13.0072 43.4878 13.1911 43.6849C13.5944 44.1179 14.0348 44.5488 14.5012 44.9691C14.7037 45.1493 14.9099 45.3279 15.1192 45.5018C15.6953 45.9814 16.2317 46.3869 16.7596 46.7457C16.953 46.875 17.1507 46.9985 17.3479 47.1193L17.4639 47.1914C18.0061 47.529 18.5637 47.8406 19.1271 48.1253C19.3847 48.2546 19.6428 48.3797 19.903 48.4968C20.4743 48.7554 21.0844 48.9934 21.7691 49.2271C22.058 49.3268 22.3484 49.4206 22.6405 49.5054C23.3676 49.7174 24.0508 49.8833 24.734 50.0083C25.0657 50.0698 25.398 50.1165 25.7309 50.161C26.6367 50.2818 27.544 50.3454 28.4063 50.3475C28.4201 50.3475 28.4705 50.3497 28.4842 50.3497C28.8621 50.3497 29.2368 50.3391 29.6078 50.3179C30.5973 50.267 31.5959 50.1419 32.5758 49.9442C33.0682 49.8467 33.5643 49.728 34.0932 49.579C35.6138 49.1566 37.0782 48.5667 38.4456 47.8216C39.8156 47.0764 41.1131 46.1658 42.3013 45.1175C42.9675 44.5319 43.5972 43.9012 44.1706 43.2477C45.2222 42.0568 46.1327 40.7598 46.8763 39.3909C47.6178 38.0282 48.2087 36.5654 48.6338 35.0396C48.7822 34.5027 48.9025 34.0076 48.9989 33.5216C49.1929 32.5454 49.3185 31.5479 49.3731 30.552C49.3917 30.1805 49.4028 29.8069 49.4028 29.4316L49.4012 29.3733ZM47.7598 30.4683C47.71 31.3852 47.5939 32.3063 47.4148 33.2063C47.3257 33.652 47.2155 34.1126 47.0777 34.6092C46.6855 36.0142 46.1407 37.3641 45.4564 38.6208C44.7711 39.8816 43.9306 41.0789 42.9585 42.1802C42.428 42.7829 41.8477 43.3648 41.2313 43.908C40.1331 44.8779 38.9364 45.7164 37.6728 46.4043C36.413 47.0896 35.0626 47.6355 33.6586 48.024C33.1689 48.1618 32.711 48.2726 32.2589 48.3638C31.3552 48.5424 30.4341 48.659 29.5209 48.7077C29.178 48.7247 28.834 48.7395 28.4869 48.7353C28.4747 48.7353 28.444 48.7332 28.4318 48.7332C27.6187 48.731 26.7819 48.6738 25.9439 48.5614C25.635 48.5212 25.3281 48.4766 25.0244 48.4215C24.3995 48.307 23.7678 48.1539 23.0925 47.9567C22.8212 47.8783 22.553 47.7892 22.2875 47.7002C21.6541 47.484 21.0913 47.2651 20.566 47.0271C20.3222 46.9169 20.0832 46.8003 19.8495 46.6831C19.3338 46.4224 18.817 46.1335 18.3146 45.8213L18.1959 45.7471C18.0157 45.6369 17.8371 45.5261 17.6638 45.4095C17.1804 45.0804 16.6848 44.7046 16.1511 44.2631C15.9587 44.102 15.7674 43.9361 15.5798 43.7687C15.1489 43.3823 14.7429 42.9832 14.3698 42.582C14.1986 42.3991 14.0327 42.2105 13.8705 42.0239C13.5425 41.6439 13.252 41.283 12.986 40.9268L28.5584 29.8895C28.772 29.739 28.8987 29.4926 28.8987 29.2318V10.1364C29.019 10.1386 29.1393 10.1449 29.2596 10.1492C30.0059 10.1767 30.7404 10.2467 31.4438 10.3548C31.7469 10.4014 32.048 10.4566 32.3453 10.5159C32.9892 10.6495 33.6295 10.8133 34.2496 11.0083C34.5156 11.091 34.7796 11.1821 35.0414 11.2775C35.6758 11.507 36.3049 11.772 36.9086 12.0672C37.1455 12.1838 37.3808 12.3031 37.6135 12.4303C38.1064 12.6937 38.6083 12.9947 39.1091 13.3281C39.3206 13.468 39.5278 13.6127 39.7351 13.7632C40.1935 14.0924 40.6435 14.4469 41.0733 14.8179C41.2631 14.9812 41.4512 15.1492 41.6346 15.3209C42.0522 15.7094 42.4524 16.1148 42.8234 16.5245C42.9914 16.7137 43.1562 16.9024 43.3173 17.0953C43.7212 17.5792 44.1065 18.0907 44.4616 18.6127C44.6063 18.8247 44.7436 19.0415 44.8777 19.2562C45.1882 19.757 45.4771 20.2727 45.7373 20.7905C45.856 21.0285 45.9705 21.2659 46.0808 21.5124C46.333 22.0726 46.5609 22.6482 46.7576 23.2274C46.8482 23.493 46.9335 23.7622 47.0136 24.0362C47.1943 24.6516 47.3485 25.3035 47.4699 25.9697C47.5255 26.2755 47.5738 26.5808 47.6146 26.8887C47.7253 27.7356 47.7837 28.5741 47.7858 29.3765L47.7863 29.4316C47.7874 29.7804 47.7773 30.1265 47.7598 30.4683Z" fill="#0F304D"/>
</svg>
