<svg width="130" height="86" viewBox="0 0 130 86" fill="none" xmlns="http://www.w3.org/2000/svg">
<path d="M59.1786 41.834C54.3411 41.834 50.6323 45.559 50.6323 50.4178C50.6323 53.333 52.2448 56.2483 54.6636 57.7059L58.6948 64.8321C58.6948 65.156 59.0173 65.156 59.1786 65.156C59.3398 65.156 59.6623 65.156 59.6623 64.8321L63.6936 57.8679C66.1123 56.4103 67.7248 53.495 67.7248 50.5797C67.7248 45.883 63.8548 41.834 59.1786 41.834ZM66.5961 50.5797C66.5961 53.333 65.3061 55.6005 63.0486 56.8961L62.8873 57.0581L60.4686 61.269L59.3398 63.3745L55.7923 57.0581L55.6311 56.8961C53.5348 55.6005 52.0836 53.1711 52.0836 50.5797C52.0836 46.5308 55.4698 43.1297 59.5011 43.1297C63.5323 43.1297 66.5961 46.3688 66.5961 50.5797Z" fill="#0F304D"/>
<path d="M59.1785 44.5874C55.9535 44.5874 53.3735 47.3407 53.3735 50.4179C53.3735 53.4951 56.1148 56.2484 59.1785 56.2484C62.2423 56.2484 64.9835 53.4951 64.9835 50.4179C64.9835 47.1787 62.4035 44.5874 59.1785 44.5874ZM63.8548 50.5799C63.8548 53.1712 61.9198 55.2767 59.1785 55.2767C56.5985 55.2767 54.5023 53.1712 54.5023 50.5799C54.5023 47.9885 56.5985 45.8831 59.1785 45.8831C61.7585 45.8831 63.8548 47.9885 63.8548 50.5799Z" fill="#0F304D"/>
<path d="M102.716 21.8647C101.104 20.569 100.136 18.4635 100.136 16.1961C100.136 12.1471 103.522 8.74602 107.554 8.74602C110.94 8.74602 113.842 11.0134 114.649 14.2526L115.777 13.9287C114.81 10.2036 111.424 7.6123 107.554 7.6123C102.716 7.6123 99.0073 11.3374 99.0073 16.1961C99.0073 18.4635 99.9748 20.569 101.587 22.1886C102.071 21.8647 102.232 21.7027 102.716 21.7027V21.8647Z" fill="#0F304D"/>
<path d="M114.971 16.3583C114.971 19.1116 113.681 21.379 111.424 22.6747L111.262 22.8366L108.844 27.0476L107.554 29.153L104.329 23.4845C104.006 23.4845 103.361 23.4845 102.877 23.4845L106.909 30.6106C106.909 30.9346 107.231 30.9346 107.392 30.9346C107.554 30.9346 107.876 30.9346 107.876 30.6106L111.907 23.6464C114.487 22.1888 116.1 19.4355 116.1 16.5202C116.1 16.1963 116.1 15.8724 116.1 15.7104L114.971 16.0344C114.81 16.0344 114.971 16.1963 114.971 16.3583Z" fill="#0F304D"/>
<path d="M105.297 20.5686V20.4067C103.845 19.5969 102.878 18.1392 102.878 16.3577C102.878 13.7664 104.974 11.6609 107.554 11.6609C109.65 11.6609 111.424 13.1185 112.069 15.062L113.198 14.7381C112.553 12.3087 110.295 10.3652 107.554 10.3652C104.329 10.3652 101.749 13.1185 101.749 16.1957C101.749 18.4632 103.039 20.4067 104.974 21.3784L105.458 21.0545L105.297 20.5686Z" fill="#0F304D"/>
<path d="M107.554 20.8927C107.392 20.8927 107.231 20.8927 107.07 20.8927L107.231 22.0265L107.07 22.1884C107.231 22.1884 107.392 22.1884 107.392 22.1884C110.617 22.1884 113.197 19.5971 113.197 16.3579L111.907 16.6818C111.907 19.1112 109.972 20.8927 107.554 20.8927Z" fill="#0F304D"/>
<path d="M34.9915 72.7197H34.1853C33.2178 72.7197 32.5728 73.3676 32.5728 74.3393V74.9871C32.5728 75.9589 33.2178 76.6067 34.1853 76.6067H34.9915C35.959 76.6067 36.604 75.9589 36.604 74.9871V74.3393C36.604 73.5295 35.959 72.7197 34.9915 72.7197ZM34.9915 74.9871H34.1853V74.3393H34.9915V74.9871Z" fill="#0F304D"/>
<path d="M29.8312 81.1414L28.7025 80.4936L26.2837 77.4163C25.8 76.9305 25.155 76.6065 24.3487 76.9305L23.7037 77.2544L23.22 76.7685C23.0587 76.6065 22.7362 76.4446 22.4137 76.2826V65.9173C22.4137 65.2694 22.0912 64.7836 21.6075 64.4597L20.64 63.8118C20.3175 63.6499 19.995 63.6499 19.6725 63.6499H19.0275L16.77 63.164L15.1575 62.1922C14.835 62.0303 14.6737 62.0303 14.3512 62.0303H12.4162C12.0937 62.0303 11.7712 62.1922 11.4487 62.3542L9.51373 63.8118H8.38498C6.93373 63.8118 6.28873 65.4314 7.25623 66.5651L7.41748 66.7271L6.44998 66.889C5.80498 67.051 5.32123 67.5369 5.32123 68.1847C5.15998 69.4804 5.15998 69.6423 5.15998 69.8043C5.15998 70.4521 5.48248 70.938 6.12748 71.2619C4.67623 72.3956 4.51498 72.3956 4.51498 72.5576C3.70873 73.3674 3.86998 74.1772 4.67623 76.6065C4.83748 77.0924 5.15998 77.4163 5.64373 77.5783H5.80498C5.80498 77.7403 5.80498 77.7403 5.80498 77.7403C5.80498 78.3881 6.12748 79.1979 7.09498 79.3598L4.03123 80.3316C3.22498 80.6555 2.74123 81.4653 2.90248 82.2751C3.06373 83.0849 3.86998 83.5708 4.67623 83.5708L8.22373 83.0849C8.38498 83.0849 8.54623 82.9229 8.86873 82.9229L12.4162 80.9794C12.4162 80.9794 12.5775 80.9794 12.5775 80.8175L13.3837 80.1696C13.545 80.1696 13.545 80.0077 13.7062 79.8457C13.8675 79.8457 14.0287 79.8457 14.19 79.8457C14.3512 79.8457 16.125 79.5218 16.2862 79.3598C16.6087 79.3598 17.0925 79.0359 17.415 78.874C17.415 78.874 17.415 78.712 17.5762 78.712L18.2212 79.1979C18.5437 79.5218 19.0275 79.6838 19.5112 79.5218L20.1562 79.3598L20.4787 79.5218L21.4462 79.8457L23.22 80.9794C23.7037 82.2751 24.0262 82.4371 24.1875 82.599C24.1875 82.599 24.3487 82.761 24.51 82.9229C24.6712 83.0849 24.8325 83.2468 24.9937 83.4088C25.155 83.7327 25.155 83.8947 25.4775 84.0566L26.6062 85.0284C26.9287 85.3523 27.2512 85.5143 27.735 85.5143C27.8962 85.5143 29.67 85.0284 29.67 85.0284C30.315 84.8664 30.7987 84.2186 30.7987 83.4088V82.599C30.6375 81.9512 30.315 81.4653 29.8312 81.1414ZM29.025 83.8947L27.5737 84.3806L26.445 83.4088C26.445 83.4088 26.2837 82.761 26.1225 82.761C25.9612 82.761 25.155 81.7892 24.9937 81.6273C24.8325 81.4653 24.3487 80.1696 24.3487 80.1696L21.93 78.55L20.9625 78.3881L20.3175 78.0642L19.1887 78.2261L17.8987 77.2544L16.125 77.0924C16.125 77.0924 16.2862 78.0642 16.125 78.0642C15.9637 78.0642 14.19 78.55 14.19 78.55L15.3187 76.7685L14.835 76.1207L11.9325 78.55L12.4162 78.874L11.61 79.5218L8.06248 81.6273L4.51498 82.1131L7.90123 80.9794L9.51373 79.8457L9.67498 79.1979L10.32 78.3881L8.70748 78.874L8.06248 77.9022H7.25623C7.25623 77.7403 7.41748 76.6065 7.41748 76.6065L6.12748 76.1207C6.12748 76.1207 5.48248 73.8532 5.64373 73.6913C5.80498 73.5293 7.41748 72.2337 7.41748 72.2337L8.38498 72.5576L9.99748 71.9097L9.83623 70.2902L8.86873 70.776L6.77248 69.8043L6.93373 68.5086L8.70748 68.0227V68.9945C8.70748 68.9945 9.51373 69.1565 9.67498 69.1565C9.83623 69.1565 10.1587 67.8608 10.1587 67.8608C10.1587 67.8608 9.35248 67.5369 9.35248 67.3749C9.35248 67.2129 9.19123 66.2412 9.19123 66.2412L8.38498 65.4314H9.99748L12.4162 63.6499H14.5125L16.2862 64.6216L19.1887 65.4314L20.1562 65.2694L21.1237 65.9173V77.5783L22.2525 77.9022L23.5425 79.1979L25.3162 78.55L27.8962 81.7892L29.025 82.599V83.8947Z" fill="#0F304D"/>
<path d="M49.8265 80.8174C49.6653 80.3315 49.504 80.0076 49.0203 79.8456C47.8915 79.1978 47.2465 78.8739 46.924 78.8739C47.0853 78.226 46.6015 77.5782 46.1178 77.2543L44.5053 76.4445C44.1828 76.2825 43.8603 76.2825 43.5378 76.2825L42.2478 75.7966C41.9253 75.6347 41.6028 75.6347 41.2803 75.7966L40.7965 75.1488C40.474 74.8249 39.9903 74.501 39.5065 74.501H38.8615C37.894 74.501 37.249 75.1488 37.249 76.1206V76.6064C37.249 77.4162 37.7328 78.0641 38.539 78.226L39.6678 78.5499C39.9903 78.5499 39.9903 78.5499 40.1515 78.5499C40.3128 79.0358 40.7965 79.3597 41.2803 79.5217C41.4415 80.0076 41.764 80.4934 42.409 80.6554C42.7315 80.8174 43.2153 80.6554 43.5378 80.6554C43.699 80.8174 43.8603 80.8174 44.0215 80.8174C44.1828 80.8174 44.1828 80.8174 44.344 80.8174C44.1828 80.9793 44.1828 81.1413 44.0215 81.4652C43.8603 81.9511 44.0215 82.4369 44.344 82.7609L44.1828 83.7326C44.0215 84.3804 44.344 85.1902 44.989 85.3522L45.7953 85.8381C46.1178 86 46.6015 86 47.0853 86C47.569 85.8381 47.8915 85.5142 48.0528 85.1902L48.214 84.8663C48.6978 84.7044 49.0203 84.7044 49.3428 84.3804L50.149 83.7326C50.9553 83.0848 51.1165 81.7891 49.8265 80.8174ZM39.0228 76.6064V76.1206H39.6678L40.3128 76.9304L39.0228 76.6064ZM44.8278 79.0358C44.8278 78.8739 44.8278 78.5499 44.8278 78.388L45.4728 78.7119L44.8278 79.0358ZM48.3753 83.0848L47.0853 83.4087L46.6015 84.3804L45.7953 83.8946L46.1178 82.275L45.634 81.6272L46.4403 81.1413L46.1178 80.1695C46.279 80.1695 48.214 81.3032 48.214 81.3032V81.7891L49.1815 82.4369L48.3753 83.0848Z" fill="#0F304D"/>
<path d="M128.839 12.6329L128.355 11.3373C128.194 10.8514 127.71 10.5275 127.226 10.3655C127.065 9.87963 126.743 9.55571 126.259 9.39375L125.13 5.99262C124.969 5.6687 124.646 5.34479 124.324 5.02087L123.195 4.37303C122.872 4.21108 122.711 4.21108 122.389 4.21108C122.066 4.21108 121.744 4.37303 121.421 4.53499C121.099 4.37303 120.776 4.37303 120.454 4.53499L120.131 4.85891C119.647 5.02087 119.164 5.34479 119.003 5.99262L118.357 8.09808C118.357 8.26004 118.357 8.422 118.357 8.422L118.196 11.4992L117.874 12.309L117.229 12.6329C116.906 12.7949 116.584 13.2808 116.422 13.6047L115.616 13.7666C115.939 14.5764 116.1 15.0623 116.1 15.5482L117.874 15.0623L118.035 14.0905L119.164 13.4427L119.809 11.8231L119.97 8.422L120.615 6.4785L121.099 6.31654L121.421 7.12633L122.55 5.99262L123.679 6.64045L125.13 10.8514L125.775 11.0133L126.259 11.9851H126.904L127.387 13.1188L125.614 14.7384H124.969L123.84 16.196L123.679 16.8438L121.744 18.3015L121.582 19.5971L121.099 21.2167L121.582 22.3504L121.26 22.9983L122.872 24.4559C122.872 24.4559 122.711 25.4277 122.55 25.4277L120.454 26.7233L118.357 27.5331L116.1 28.9907V29.3147L119.003 27.3712L119.97 27.5331L116.745 29.8005L115.616 30.1244L116.422 31.2582V32.7158L114.81 31.2582L114.649 30.4484L113.681 30.7723L113.359 30.1244L113.842 28.019L113.197 27.857L112.391 26.5614L110.779 26.7233L112.069 28.019V30.6103L112.714 30.4484L113.359 31.2582L113.197 31.744L114.487 33.0397L113.52 35.4691L112.069 34.6593L112.391 35.4691L113.359 36.9267L113.197 38.8702L112.23 41.4616L111.908 40.9757L112.069 39.1941L110.617 38.2224L110.456 35.955L109.811 35.631L110.134 37.8985L111.101 39.518L111.262 42.2713L112.23 42.7572L112.714 43.8909L112.23 44.2148L113.036 44.7007L111.908 45.6725L112.714 46.1583H113.359L113.52 46.9681L112.391 48.1019L111.585 48.2638L112.552 49.2356L111.585 50.2073L110.617 50.6932L109.489 52.1508L109.327 53.2845L107.715 53.6084L106.909 54.7422L106.747 56.0378L103.522 59.439L102.716 61.5444L102.232 64.6216L103.522 67.8608L105.941 70.938V72.5576L107.876 75.7968V80.3316L107.554 81.1414L106.264 81.6273L104.49 79.6838H103.845L102.394 77.0924L101.587 76.9305L100.781 75.4728L101.265 74.0152C101.265 74.0152 100.298 73.6913 100.298 73.5294C100.298 73.3674 100.459 71.2619 100.459 71.2619L99.975 70.2902C99.975 70.2902 99.1687 70.1282 99.0075 70.1282L96.2663 67.6988L94.9762 68.0228L93.3637 69.3184L91.7513 67.6988L89.655 67.213L86.43 68.1847L85.4625 66.4032L84.9788 66.7271V67.5369H83.0437L82.2375 68.1847L81.1087 68.3467L80.1413 67.8608L79.8187 68.9945L80.7862 68.8326L81.27 68.5086L81.7537 69.1565L82.7212 68.3467L83.0437 68.8326L81.7537 70.4521C81.7537 70.4521 83.6887 71.7478 83.5275 71.7478C83.5275 71.7478 82.7213 72.0717 82.56 72.0717L80.9475 70.938L80.4638 71.7478L79.6575 71.4239L79.0125 72.0717L77.8837 71.4239L75.7875 69.8043L75.3037 70.2902V70.6141L70.7887 70.1282L69.015 70.938L68.2087 70.2902L67.5638 70.7761L68.0475 71.4239L65.79 73.5294L64.5 74.0152H64.0163L61.4362 76.4446V77.5783L60.9525 78.0642L61.1138 80.4936L61.92 82.1132L61.1138 82.4371L60.3075 81.7892C60.3075 81.7892 58.8563 81.7892 58.695 81.6273C58.5338 81.6273 56.76 80.8175 56.76 80.6555C56.76 80.4936 55.9538 78.2262 55.9538 78.2262L55.7925 77.0924C55.7925 77.0924 53.535 74.6631 53.535 74.5011C53.535 74.3391 52.89 72.2337 52.7287 72.0717C52.5675 71.9098 50.6325 69.8043 50.6325 69.8043H47.8913L46.44 72.0717L42.4087 69.3184C42.4087 69.3184 42.2475 67.3749 42.2475 67.213C42.0863 67.051 38.2163 62.3542 38.2163 62.3542L34.3462 61.8683L33.8625 63.326C33.8625 63.326 26.445 62.1922 26.1225 62.0303C25.9613 61.8683 17.7375 56.8476 17.7375 56.8476V56.0378L12.255 55.5519C12.255 55.5519 11.9325 53.1226 11.7712 52.9606C11.61 52.7987 10.32 51.0171 10.32 51.0171L9.675 51.1791V50.2073L8.54625 49.8834L7.4175 48.2638C7.4175 48.2638 4.8375 47.454 4.8375 47.2921C4.8375 47.1301 5.16 45.3486 5.16 45.3486C5.16 45.1866 3.225 40.6518 3.225 40.6518L4.1925 39.518L3.225 38.2224L3.38625 36.4408L3.87 36.1169L3.70875 35.3071C3.70875 35.4691 3.225 35.631 3.225 35.631C3.06375 35.4691 2.74125 34.6593 2.74125 34.6593V33.3636C2.74125 33.3636 1.935 32.2299 1.935 31.906C1.77375 31.5821 1.935 29.9625 1.935 29.9625L2.41875 29.3147L1.6125 26.5614L2.74125 24.7798L3.225 22.0265V19.1113L5.64375 15.0623L7.4175 9.71767C7.4175 9.55571 8.0625 6.4785 8.0625 6.4785C8.0625 6.31654 8.22375 2.10561 8.22375 2.10561L11.61 4.53499V5.6687L11.1263 6.4785L11.61 7.12633L12.4162 5.02087V1.61974C25.3162 5.83066 48.2137 10.6894 66.2737 9.39375L66.7575 8.26004L67.4025 8.58396L67.5638 10.2035L69.66 10.8514L70.305 10.3655L71.4337 10.5275L72.24 11.4992L72.885 11.3373L73.8525 12.147H74.4975L75.3037 11.6612L75.7875 11.9851H77.0775L77.4 12.309H78.2062L76.755 12.9568L72.885 16.5199H73.8525L75.6263 15.5482L75.7875 16.0341L75.6263 16.5199L76.9163 16.6819L79.6575 15.0623L81.5925 13.4427L82.0762 13.6047L80.4638 15.5482V16.0341L81.4312 15.3862L82.8825 16.5199L84.495 16.6819L85.3012 16.196L86.1075 16.5199L86.43 17.0058L87.8812 17.1678L88.2038 17.9776H89.3325L89.9775 18.6254L91.2675 18.9493L91.9125 19.9211L91.59 20.245L92.235 21.3787L91.9125 22.3504L90.945 23.6461V24.6179L91.4287 24.9418L92.7188 23.1602L93.3637 23.4841L94.17 25.9135V27.5331L93.3637 28.6668L92.88 30.7723L93.8475 30.9342L95.1375 31.744L95.9437 30.9342H96.5888L98.04 29.6386L99.8138 28.6668L102.232 25.9135L101.587 24.2939L102.555 23.4841C102.555 23.4841 102.716 23.4841 102.877 23.4841C102.394 23.1602 101.91 22.6744 101.426 22.3504C101.265 22.5124 100.942 22.6744 100.62 22.9983C99.975 23.4841 99.8137 24.2939 100.136 24.9418L100.298 25.4277L98.8462 27.2092C98.3625 27.3712 97.5563 27.857 97.395 28.019C97.2337 28.1809 97.2337 28.1809 95.9437 29.1527C95.6212 29.1527 95.1375 29.1527 94.815 29.4766V29.3147L95.46 28.3429C95.6212 28.019 95.7825 27.6951 95.7825 27.3712V25.7516C95.7825 25.5896 95.7825 25.4277 95.6212 25.1037L94.9762 22.6744C94.815 22.1885 94.4925 21.8646 94.0087 21.7026L93.525 21.5406C93.6862 20.8928 93.525 20.7309 93.2025 20.245C93.3637 19.9211 93.2025 19.4352 93.0413 19.1113L92.3962 18.1395C92.235 17.8156 91.9125 17.4917 91.4287 17.4917L90.4612 17.1678L90.3 16.8438C89.9775 16.5199 89.655 16.358 89.1712 16.358C89.01 15.8721 88.5262 15.5482 87.8812 15.3862H87.075C86.9137 15.0623 86.5912 14.9003 86.43 14.9003L85.6237 14.5764C85.4625 14.4145 85.14 14.4145 84.9788 14.4145C84.6562 14.4145 84.3337 14.5764 84.0112 14.7384L83.85 14.9003H83.3662L83.205 14.5764C84.1725 13.4427 83.5275 12.147 82.2375 11.8231L81.7537 11.6612C81.27 11.4992 80.7862 11.6612 80.4638 11.9851L79.6575 12.6329C80.1413 11.4992 79.335 10.3655 78.2062 10.3655H78.045C77.7225 10.2035 77.4 10.0416 77.0775 10.0416H76.11C75.7875 9.87963 75.6262 9.71767 75.1425 9.71767C74.82 9.71767 74.4975 9.87963 74.175 10.0416L73.8525 9.87963C73.6912 9.87963 73.2075 9.71767 72.7237 9.71767C72.4012 9.39375 72.0788 9.06983 71.595 9.06983L70.4662 8.90787C70.1437 8.90787 69.66 8.90787 69.3375 9.06983L68.8538 8.90787L68.6925 8.26004C68.6925 7.77416 68.2087 7.28829 67.725 6.96437L67.08 6.64045C66.7575 6.4785 66.2738 6.4785 65.79 6.64045C65.145 6.80241 64.9837 7.28829 64.8225 7.77416C47.8913 8.90788 25.3162 4.21108 12.9 0.162111C11.9325 -0.161806 10.8037 0.324069 10.8037 1.94366L9.19125 0.809945C8.0625 0.000152133 6.61125 0.647986 6.61125 1.94366C6.45 4.85891 6.45 5.83066 6.45 6.4785C6.45 6.80241 6.1275 8.09808 5.96625 9.23179L4.35375 14.4145L2.09625 18.3015C1.935 18.4634 1.935 18.7873 1.935 19.1113V21.8646L1.29 24.2939L0.3225 25.7516C0 26.0755 0 26.5614 0 27.0472L0.48375 28.9907C0.3225 29.3147 0.16125 29.4766 0.16125 29.8005C0 31.744 0.16125 32.068 0.16125 32.2299C0.16125 32.3919 0.3225 32.7158 0.9675 33.6875V34.4973C0.9675 34.6593 0.9675 34.9832 1.12875 35.1452C1.45125 35.631 1.6125 35.955 1.77375 36.2789L1.6125 37.8985C1.6125 38.3843 1.77375 38.8702 2.2575 39.3561C1.935 39.842 1.935 40.3278 2.09625 40.8137C2.74125 42.2713 3.5475 44.3768 3.87 45.1866C3.87 45.5105 3.70875 45.8344 3.70875 45.9964C3.5475 46.6442 3.5475 46.8062 3.5475 46.9681C3.5475 48.1019 4.1925 48.4258 6.7725 49.3975L7.57875 50.6932C7.74 51.0171 8.0625 51.1791 8.385 51.341C8.54625 52.1508 9.19125 52.6367 9.83625 52.6367C10.1587 53.1226 10.32 53.4465 10.4812 53.6084C10.4812 54.0943 10.6425 54.9041 10.8037 55.7139C10.965 56.5237 11.4487 57.0096 12.255 57.1715L16.4475 57.6574C16.6087 57.9813 16.77 58.3052 17.0925 58.4672C18.3825 59.277 25.3162 63.4879 25.4775 63.6499C25.8 63.8118 25.9612 63.9738 33.7012 65.1075C34.5075 65.2695 35.3137 64.7836 35.475 63.9738L37.2487 64.1357C38.7 65.7553 40.1512 67.5369 40.635 68.1847C40.635 68.5086 40.7962 69.1565 40.7962 69.8043C40.7962 70.2902 41.1188 70.7761 41.4412 71.1L45.4725 73.8533C46.2788 74.3391 47.2463 74.1772 47.73 73.3674L48.6975 71.9098H49.8262C50.4712 72.5576 50.955 73.2054 51.2775 73.3674C51.4387 73.8533 51.7612 74.825 51.9225 75.1489C51.9225 75.6348 52.245 75.9587 54.18 78.2262C54.18 78.5501 54.18 79.0359 54.3413 79.1979C54.6637 80.1697 55.1475 81.3034 55.1475 81.4653C55.47 82.9229 58.2113 83.7327 58.3725 83.7327C58.5337 83.7327 58.695 83.7327 59.8237 83.8947L60.1462 84.2186C60.63 84.5425 61.1137 84.7045 61.7587 84.5425L62.565 84.2186C63.3712 83.8947 63.855 82.9229 63.5325 81.9512L62.8875 80.4936L62.7262 79.0359C63.21 78.5501 63.0487 78.0642 63.21 77.4164L64.8225 75.9587C64.9837 75.9587 65.145 75.9587 65.3063 75.9587L66.2737 75.6348C66.435 75.6348 66.7575 75.4729 66.9187 75.3109L69.1762 73.2054C69.1762 73.2054 69.4987 73.0435 69.66 73.0435L71.1112 72.3956L75.3037 72.7196C75.6263 72.7196 75.9487 72.7196 76.2712 72.5576L77.0775 73.2054L77.2387 73.3674L78.3675 74.0152C79.0125 74.3391 79.6575 74.1772 80.1413 73.8533C80.625 74.0152 81.1087 74.0152 81.5925 73.6913L81.7537 73.8533C82.3988 74.5011 83.205 74.3391 84.1725 74.0152H84.3337C85.4625 73.6913 86.1075 72.0717 84.3337 70.7761C84.495 70.4521 84.6562 70.2902 84.8175 69.9663H85.6237C85.9462 70.2902 86.5912 70.2902 86.9137 70.1282L89.8162 69.3184L91.1062 69.6423L92.3962 70.938C93.0412 71.5858 93.8475 71.5858 94.4925 70.938L95.7825 69.8043C98.04 71.9098 98.04 71.9098 98.5237 72.0717C98.5237 72.0717 98.685 72.0717 98.8462 72.0717C98.3625 72.8815 98.3625 73.0435 98.3625 73.0435C98.3625 73.6913 98.685 74.0152 99.0075 74.3391C98.8463 74.825 98.8462 75.3109 99.1687 75.7968L99.975 77.2544C100.298 77.7403 100.62 77.9022 101.104 78.0642L102.232 80.1697C102.555 80.6555 103.039 80.9794 103.522 80.9794L104.812 82.4371C105.296 82.923 105.941 83.0849 106.586 82.923L107.876 82.4371C108.36 82.2751 108.682 81.9512 108.844 81.4653L109.166 80.6555C109.327 80.4936 109.327 80.1697 109.327 80.0077V75.4728C109.327 75.1489 109.327 74.987 109.166 74.6631L107.554 71.7478V70.4521C107.554 70.1282 107.392 69.8043 107.231 69.4804L104.974 66.5651L104.006 63.9738L104.49 61.5444L105.135 59.9248L108.199 56.6857C108.36 56.3617 108.521 56.1998 108.683 55.7139L108.844 54.7422L109.005 54.4182L109.972 54.2563C110.617 54.0943 111.101 53.6084 111.262 52.9606C111.262 52.6367 111.424 52.3128 111.424 52.1508C111.585 51.9889 111.907 51.6649 112.069 51.341L112.714 51.0171C112.875 51.0171 113.036 50.8551 113.036 50.6932L114.004 49.7214C114.487 49.2356 114.649 48.5877 114.326 48.1019L114.81 47.616C115.132 47.2921 115.455 46.6442 115.294 46.1583L115.132 45.3486C115.132 45.0246 114.971 44.8627 114.81 44.7007C114.971 44.2148 114.81 43.567 114.487 43.2431C114.487 42.9192 114.004 42.1094 114.004 41.7855L114.971 39.1941C114.971 39.0322 115.132 38.8702 115.132 38.7083L115.294 36.7648C115.294 36.4408 115.294 36.2789 115.132 36.1169L115.294 35.955L115.939 34.3354C116.423 34.4973 116.906 34.6593 117.229 34.3354C117.874 34.1734 118.196 33.5256 118.196 32.8777V31.4201C118.196 31.2582 118.196 31.0962 118.196 30.9342L120.938 28.9907C121.421 28.6668 121.582 28.1809 121.582 27.5331C122.066 27.2092 123.034 26.5614 123.356 26.5614C124.001 26.2374 124.162 25.7516 124.485 24.4559C124.646 23.8081 124.485 23.3222 124.001 22.8363C123.679 22.6744 123.517 22.3504 123.356 22.1885C123.356 21.8646 123.356 21.5406 123.195 21.3787L123.034 20.8928L123.356 19.9211V19.7591L123.517 19.1113C124.001 18.7873 124.485 18.3015 124.807 18.1395C125.291 17.8156 125.452 17.3297 125.614 16.8438L126.097 16.358C126.42 16.358 126.743 16.196 127.065 16.0341L128.839 14.4145C129 13.9286 129.161 13.1188 128.839 12.6329Z" fill="#0F304D"/>
<path d="M85.9462 18.4632L84.3337 18.9491L83.5274 19.1111L82.0762 22.1883V22.8361L83.8499 20.2448L83.6887 21.5404L82.7212 25.9133L83.0437 28.6666L83.8499 31.4199L84.3337 31.7438C84.3337 31.7438 86.5912 30.2862 86.4299 30.1242C86.4299 30.1242 86.1074 27.047 86.1074 26.8851C86.1074 26.8851 85.3012 24.4557 85.3012 24.2937C85.3012 24.1318 85.9462 21.0546 85.9462 21.0546L86.9137 20.5687L87.7199 18.3013L86.9137 18.6252C86.7524 18.7871 85.9462 18.4632 85.9462 18.4632Z" fill="#0F304D"/>
<path d="M114.81 15.8722L116.1 15.5483C116.1 15.0624 115.939 14.4146 115.778 13.9287L114.649 14.2526C114.81 14.9005 114.81 15.3863 114.81 15.8722Z" fill="#0F304D"/>
<path d="M104.329 23.484L104.006 22.8362L103.845 22.6742C103.522 22.5122 103.2 22.1883 102.877 22.0264H102.716C102.394 22.0264 102.232 22.0264 101.587 22.5122C102.071 22.9981 102.555 23.322 103.039 23.646C103.361 23.484 104.006 23.484 104.329 23.484Z" fill="#0F304D"/>
<path d="M113.198 14.7383L112.069 15.0622C112.23 15.3861 112.23 15.872 112.23 16.3579C112.23 16.5198 112.23 16.6818 112.23 16.8437L113.52 16.5198C113.359 15.71 113.359 15.2242 113.198 14.7383Z" fill="#0F304D"/>
<path d="M107.07 20.8931C106.425 20.8931 105.941 20.7311 105.296 20.4072V20.5692L105.457 21.217L104.974 21.5409C105.619 21.8649 106.425 22.0268 107.231 22.1888L107.392 22.0268L107.07 20.8931Z" fill="#0F304D"/>
</svg>
